solid Pinze
facet normal 0.0 0.0 -1.0
  outer loop
    vertex 20.107430967686245 43.756630802524064 0.0
    vertex 19.999522583152512 42.962340995355575 0.0
    vertex 19.99212154542522 44.66965556624804 0.0
  endloop
endfacet
facet normal 0.0 0.0 -1.0
  outer loop
    vertex 19.999522583152512 42.962340995355575 0.0
    vertex 20.107430967686245 43.756630802524064 0.0
    vertex 20.104661765476642 42.704679544957514 0.0
  endloop
endfacet
facet normal 0.0 0.0 -1.0
  outer loop
    vertex 20.104661765476642 42.704679544957514 0.0
    vertex 20.107430967686245 43.756630802524064 0.0
    vertex 20.724709690209938 41.88773726781014 0.0
  endloop
endfacet
facet normal 0.0 0.0 -1.0
  outer loop
    vertex 20.724709690209938 41.88773726781014 0.0
    vertex 20.107430967686245 43.756630802524064 0.0
    vertex 20.455119514164632 42.90456087776252 0.0
  endloop
endfacet
facet normal 0.0 0.0 -1.0
  outer loop
    vertex 20.724709690209938 41.88773726781014 0.0
    vertex 20.455119514164632 42.90456087776252 0.0
    vertex 21.011492785000375 42.17151294922378 0.0
  endloop
endfacet
facet normal 0.0 0.0 -1.0
  outer loop
    vertex 20.724709690209938 41.88773726781014 0.0
    vertex 21.011492785000375 42.17151294922378 0.0
    vertex 21.535070214321927 41.259111835523356 0.0
  endloop
endfacet
facet normal 0.0 0.0 -1.0
  outer loop
    vertex 21.535070214321927 41.259111835523356 0.0
    vertex 21.011492785000375 42.17151294922378 0.0
    vertex 21.738634861236314 41.60744302181879 0.0
  endloop
endfacet
facet normal 0.0 0.0 -1.0
  outer loop
    vertex 21.535070214321927 41.259111835523356 0.0
    vertex 21.738634861236314 41.60744302181879 0.0
    vertex 22.480518607278448 40.86164303245488 0.0
  endloop
endfacet
facet normal 0.0 0.0 -1.0
  outer loop
    vertex 22.480518607278448 40.86164303245488 0.0
    vertex 21.738634861236314 41.60744302181879 0.0
    vertex 22.586992212036076 41.25079152893055 0.0
  endloop
endfacet
facet normal 0.0 0.0 -1.0
  outer loop
    vertex 22.480518607278448 40.86164303245488 0.0
    vertex 22.586992212036076 41.25079152893055 0.0
    vertex 23.496624123526896 40.722417700685554 0.0
  endloop
endfacet
facet normal 0.0 0.0 -1.0
  outer loop
    vertex 23.496624123526896 40.722417700685554 0.0
    vertex 22.586992212036076 41.25079152893055 0.0
    vertex 23.49875068591946 41.125863680404954 0.0
  endloop
endfacet
facet normal 0.0 0.0 -1.0
  outer loop
    vertex 23.496624123526896 40.722417700685554 0.0
    vertex 23.49875068591946 41.125863680404954 0.0
    vertex 24.514140851328676 40.85092381649472 0.0
  endloop
endfacet
facet normal 0.0 0.0 -1.0
  outer loop
    vertex 24.514140851328676 40.85092381649472 0.0
    vertex 23.49875068591946 41.125863680404954 0.0
    vertex 24.411775449643436 41.241173102665975 0.0
  endloop
endfacet
facet normal 0.0 0.0 -1.0
  outer loop
    vertex 24.514140851328676 40.85092381649472 0.0
    vertex 24.411775449643436 41.241173102665975 0.0
    vertex 25.26384537440498 41.58886164914436 0.0
  endloop
endfacet
facet normal 0.0 0.0 -1.0
  outer loop
    vertex 24.514140851328676 40.85092381649472 0.0
    vertex 25.26384537440498 41.58886164914436 0.0
    vertex 25.46372670720999 41.238403900456376 0.0
  endloop
endfacet
facet normal 0.0 0.0 -1.0
  outer loop
    vertex 25.46372670720999 41.238403900456376 0.0
    vertex 25.26384537440498 41.58886164914436 0.0
    vertex 25.996893302943718 42.145234919980105 0.0
  endloop
endfacet
facet normal 0.0 0.0 -1.0
  outer loop
    vertex 25.46372670720999 41.238403900456376 0.0
    vertex 25.996893302943718 42.145234919980105 0.0
    vertex 26.280668984357362 41.85845182518966 0.0
  endloop
endfacet
facet normal 0.0 0.0 -1.0
  outer loop
    vertex 26.280668984357362 41.85845182518966 0.0
    vertex 25.996893302943718 42.145234919980105 0.0
    vertex 26.560963230348715 42.87237699621605 0.0
  endloop
endfacet
facet normal 0.0 0.0 -1.0
  outer loop
    vertex 26.280668984357362 41.85845182518966 0.0
    vertex 26.560963230348715 42.87237699621605 0.0
    vertex 26.90929441664415 42.66881234930167 0.0
  endloop
endfacet
facet normal 0.0 0.0 -1.0
  outer loop
    vertex 26.90929441664415 42.66881234930167 0.0
    vertex 26.560963230348715 42.87237699621605 0.0
    vertex 26.917614723236948 43.72073434701581 0.0
  endloop
endfacet
facet normal 0.0 0.0 -1.0
  outer loop
    vertex 26.90929441664415 42.66881234930167 0.0
    vertex 26.917614723236948 43.72073434701581 0.0
    vertex 27.03422900474617 42.96599090679815 0.0
  endloop
endfacet
facet normal 0.0 0.0 -1.0
  outer loop
    vertex 27.03422900474617 42.96599090679815 0.0
    vertex 26.917614723236948 43.72073434701581 0.0
    vertex 27.04254257176255 44.632492820899195 0.0
  endloop
endfacet
facet normal 0.0 0.0 -1.0
  outer loop
    vertex 19.575850010823103 121.2413120179606 0.0
    vertex 19.66828247570753 22.396839964073386 0.0
    vertex 18.8042570983881 23.522859758574764 0.0
  endloop
endfacet
facet normal 0.0 0.0 -1.0
  outer loop
    vertex 19.66828247570753 22.396839964073386 0.0
    vertex 19.575850010823103 121.2413120179606 0.0
    vertex 19.99212154542522 44.66965556624804 0.0
  endloop
endfacet
facet normal 0.0 0.0 -1.0
  outer loop
    vertex 19.66828247570753 22.396839964073386 0.0
    vertex 19.99212154542522 44.66965556624804 0.0
    vertex 20.054057968712726 30.381800018931596 0.0
  endloop
endfacet
facet normal 0.0 0.0 -1.0
  outer loop
    vertex 19.66828247570753 22.396839964073386 0.0
    vertex 20.054057968712726 30.381800018931596 0.0
    vertex 20.794302270208938 21.532814586753926 0.0
  endloop
endfacet
facet normal 0.0 0.0 -1.0
  outer loop
    vertex 20.054057968712726 30.381800018931596 0.0
    vertex 19.99212154542522 44.66965556624804 0.0
    vertex 19.999522583152512 42.962340995355575 0.0
  endloop
endfacet
facet normal 0.0 0.0 -1.0
  outer loop
    vertex 20.794302270208938 21.532814586753926 0.0
    vertex 20.054057968712726 30.381800018931596 0.0
    vertex 20.794302270208917 30.949809449167248 0.0
  endloop
endfacet
facet normal 0.0 0.0 -1.0
  outer loop
    vertex 20.794302270208938 21.532814586753926 0.0
    vertex 20.794302270208917 30.949809449167248 0.0
    vertex 21.01275452959476 26.241312017960595 0.0
  endloop
endfacet
facet normal 0.0 0.0 -1.0
  outer loop
    vertex 21.01275452959476 26.241312017960595 0.0
    vertex 20.794302270208917 30.949809449167248 0.0
    vertex 21.097939963872086 26.888359630716895 0.0
  endloop
endfacet
facet normal 0.0 0.0 -1.0
  outer loop
    vertex 21.097939963872086 26.888359630716895 0.0
    vertex 20.794302270208917 30.949809449167248 0.0
    vertex 22.10558009373271 31.492958507709886 0.0
  endloop
endfacet
facet normal 0.0 0.0 -1.0
  outer loop
    vertex 21.097939963872086 26.888359630716895 0.0
    vertex 22.10558009373271 31.492958507709886 0.0
    vertex 21.347691020133663 27.4913120179606 0.0
  endloop
endfacet
facet normal 0.0 0.0 -1.0
  outer loop
    vertex 21.347691020133663 27.4913120179606 0.0
    vertex 22.10558009373271 31.492958507709886 0.0
    vertex 21.74498757662839 28.009078970926964 0.0
  endloop
endfacet
facet normal 0.0 0.0 -1.0
  outer loop
    vertex 21.74498757662839 28.009078970926964 0.0
    vertex 22.10558009373271 31.492958507709886 0.0
    vertex 22.26275452959476 28.40637552742169 0.0
  endloop
endfacet
facet normal 0.0 0.0 -1.0
  outer loop
    vertex 22.26275452959476 28.40637552742169 0.0
    vertex 22.10558009373271 31.492958507709886 0.0
    vertex 23.512754529594762 31.678216536732243 0.0
  endloop
endfacet
facet normal 0.0 0.0 -1.0
  outer loop
    vertex 22.26275452959476 28.40637552742169 0.0
    vertex 23.512754529594762 31.678216536732243 0.0
    vertex 22.86570691683846 28.65612658368327 0.0
  endloop
endfacet
facet normal 0.0 0.0 -1.0
  outer loop
    vertex 22.86570691683846 28.65612658368327 0.0
    vertex 23.512754529594762 31.678216536732243 0.0
    vertex 23.51275452959476 28.741312017960595 0.0
  endloop
endfacet
facet normal 0.0 0.0 -1.0
  outer loop
    vertex 23.51275452959476 28.741312017960595 0.0
    vertex 23.512754529594762 31.678216536732243 0.0
    vertex 24.15980214235106 28.65612658368327 0.0
  endloop
endfacet
facet normal 0.0 0.0 -1.0
  outer loop
    vertex 24.15980214235106 28.65612658368327 0.0
    vertex 23.512754529594762 31.678216536732243 0.0
    vertex 24.919928965456812 31.492958507709886 0.0
  endloop
endfacet
facet normal 0.0 0.0 -1.0
  outer loop
    vertex 24.15980214235106 28.65612658368327 0.0
    vertex 24.919928965456812 31.492958507709886 0.0
    vertex 24.762754529594762 28.40637552742169 0.0
  endloop
endfacet
facet normal 0.0 0.0 -1.0
  outer loop
    vertex 24.762754529594762 28.40637552742169 0.0
    vertex 24.919928965456812 31.492958507709886 0.0
    vertex 25.28052148256113 28.009078970926964 0.0
  endloop
endfacet
facet normal 0.0 0.0 -1.0
  outer loop
    vertex 25.28052148256113 28.009078970926964 0.0
    vertex 24.919928965456812 31.492958507709886 0.0
    vertex 26.2312067889806 30.94980944916725 0.0
  endloop
endfacet
facet normal 0.0 0.0 -1.0
  outer loop
    vertex 25.28052148256113 28.009078970926964 0.0
    vertex 26.2312067889806 30.94980944916725 0.0
    vertex 25.677818039055854 27.491312017960592 0.0
  endloop
endfacet
facet normal 0.0 0.0 -1.0
  outer loop
    vertex 25.677818039055854 27.491312017960592 0.0
    vertex 26.2312067889806 30.94980944916725 0.0
    vertex 25.927569095317434 26.888359630716895 0.0
  endloop
endfacet
facet normal 0.0 0.0 -1.0
  outer loop
    vertex 25.927569095317434 26.888359630716895 0.0
    vertex 26.2312067889806 30.94980944916725 0.0
    vertex 26.012754529594762 26.241312017960595 0.0
  endloop
endfacet
facet normal 0.0 0.0 -1.0
  outer loop
    vertex 26.012754529594762 26.241312017960595 0.0
    vertex 26.2312067889806 30.94980944916725 0.0
    vertex 26.231206788980582 21.532814586753926 0.0
  endloop
endfacet
facet normal 0.0 0.0 -1.0
  outer loop
    vertex 26.231206788980582 21.532814586753926 0.0
    vertex 26.2312067889806 30.94980944916725 0.0
    vertex 27.357226583481992 22.396839964073383 0.0
  endloop
endfacet
facet normal 0.0 0.0 -1.0
  outer loop
    vertex 27.357226583481992 22.396839964073383 0.0
    vertex 26.2312067889806 30.94980944916725 0.0
    vertex 26.97145109047679 30.381800018931596 0.0
  endloop
endfacet
facet normal 0.0 0.0 -1.0
  outer loop
    vertex 27.357226583481992 22.396839964073383 0.0
    vertex 26.97145109047679 30.381800018931596 0.0
    vertex 27.03422900474617 42.96599090679815 0.0
  endloop
endfacet
facet normal 0.0 0.0 -1.0
  outer loop
    vertex 27.357226583481992 22.396839964073383 0.0
    vertex 27.03422900474617 42.96599090679815 0.0
    vertex 27.04254257176255 44.632492820899195 0.0
  endloop
endfacet
facet normal 0.0 0.0 -1.0
  outer loop
    vertex 27.357226583481992 22.396839964073383 0.0
    vertex 27.04254257176255 44.632492820899195 0.0
    vertex 27.449659048366417 126.2413120179606 0.0
  endloop
endfacet
facet normal 0.0 0.0 -1.0
  outer loop
    vertex 27.357226583481992 22.396839964073383 0.0
    vertex 27.449659048366417 126.2413120179606 0.0
    vertex 28.221251960801403 23.522859758574747 0.0
  endloop
endfacet
facet normal 0.0 0.0 -1.0
  outer loop
    vertex 28.221251960801403 23.522859758574747 0.0
    vertex 27.449659048366417 126.2413120179606 0.0
    vertex 28.949659048366414 121.24131201796058 0.0
  endloop
endfacet
facet normal 0.0 0.0 -1.0
  outer loop
    vertex 28.221251960801403 23.522859758574747 0.0
    vertex 28.949659048366414 121.24131201796058 0.0
    vertex 28.76440101934404 24.83413758209853 0.0
  endloop
endfacet
facet normal 0.0 0.0 -1.0
  outer loop
    vertex 28.76440101934404 24.83413758209853 0.0
    vertex 28.949659048366414 121.24131201796058 0.0
    vertex 28.949659048366414 26.24131201796059 0.0
  endloop
endfacet
facet normal 0.0 0.0 -1.0
  outer loop
    vertex 20.794302270208938 21.532814586753926 0.0
    vertex 21.097939963872086 25.594264405204292 0.0
    vertex 22.10558009373271 20.989665528211315 0.0
  endloop
endfacet
facet normal 0.0 0.0 -1.0
  outer loop
    vertex 21.097939963872086 25.594264405204292 0.0
    vertex 20.794302270208938 21.532814586753926 0.0
    vertex 21.01275452959476 26.241312017960595 0.0
  endloop
endfacet
facet normal 0.0 0.0 -1.0
  outer loop
    vertex 22.10558009373271 20.989665528211315 0.0
    vertex 21.097939963872086 25.594264405204292 0.0
    vertex 21.347691020133663 24.991312017960595 0.0
  endloop
endfacet
facet normal 0.0 0.0 -1.0
  outer loop
    vertex 22.10558009373271 20.989665528211315 0.0
    vertex 21.347691020133663 24.991312017960595 0.0
    vertex 21.74498757662839 24.473545064994227 0.0
  endloop
endfacet
facet normal 0.0 0.0 -1.0
  outer loop
    vertex 22.10558009373271 20.989665528211315 0.0
    vertex 21.74498757662839 24.473545064994227 0.0
    vertex 22.26275452959476 24.076248508499496 0.0
  endloop
endfacet
facet normal 0.0 0.0 -1.0
  outer loop
    vertex 22.10558009373271 20.989665528211315 0.0
    vertex 22.26275452959476 24.076248508499496 0.0
    vertex 23.512754529594762 20.804407499188937 0.0
  endloop
endfacet
facet normal 0.0 0.0 -1.0
  outer loop
    vertex 23.512754529594762 20.804407499188937 0.0
    vertex 22.26275452959476 24.076248508499496 0.0
    vertex 22.865706916838455 23.826497452237923 0.0
  endloop
endfacet
facet normal 0.0 0.0 -1.0
  outer loop
    vertex 23.512754529594762 20.804407499188937 0.0
    vertex 22.865706916838455 23.826497452237923 0.0
    vertex 23.51275452959476 23.741312017960595 0.0
  endloop
endfacet
facet normal 0.0 0.0 -1.0
  outer loop
    vertex 23.512754529594762 20.804407499188937 0.0
    vertex 23.51275452959476 23.741312017960595 0.0
    vertex 24.15980214235106 23.826497452237923 0.0
  endloop
endfacet
facet normal 0.0 0.0 -1.0
  outer loop
    vertex 23.512754529594762 20.804407499188937 0.0
    vertex 24.15980214235106 23.826497452237923 0.0
    vertex 24.919928965456815 20.98966552821131 0.0
  endloop
endfacet
facet normal 0.0 0.0 -1.0
  outer loop
    vertex 24.919928965456815 20.98966552821131 0.0
    vertex 24.15980214235106 23.826497452237923 0.0
    vertex 24.76275452959476 24.076248508499496 0.0
  endloop
endfacet
facet normal 0.0 0.0 -1.0
  outer loop
    vertex 24.919928965456815 20.98966552821131 0.0
    vertex 24.76275452959476 24.076248508499496 0.0
    vertex 25.280521482561127 24.473545064994223 0.0
  endloop
endfacet
facet normal 0.0 0.0 -1.0
  outer loop
    vertex 24.919928965456815 20.98966552821131 0.0
    vertex 25.280521482561127 24.473545064994223 0.0
    vertex 26.231206788980582 21.532814586753926 0.0
  endloop
endfacet
facet normal 0.0 0.0 -1.0
  outer loop
    vertex 26.231206788980582 21.532814586753926 0.0
    vertex 25.280521482561127 24.473545064994223 0.0
    vertex 25.677818039055854 24.991312017960595 0.0
  endloop
endfacet
facet normal 0.0 0.0 -1.0
  outer loop
    vertex 26.231206788980582 21.532814586753926 0.0
    vertex 25.677818039055854 24.991312017960595 0.0
    vertex 25.927569095317427 25.59426440520429 0.0
  endloop
endfacet
facet normal 0.0 0.0 -1.0
  outer loop
    vertex 26.231206788980582 21.532814586753926 0.0
    vertex 25.927569095317427 25.59426440520429 0.0
    vertex 26.012754529594762 26.241312017960595 0.0
  endloop
endfacet
facet normal 0.0 0.0 -1.0
  outer loop
    vertex 18.075850010823103 121.2413120179606 0.0
    vertex 19.575850010823103 121.2413120179606 0.0
    vertex 18.075850010823103 26.241312017960595 0.0
  endloop
endfacet
facet normal 0.0 0.0 -1.0
  outer loop
    vertex 19.575850010823103 121.2413120179606 0.0
    vertex 18.075850010823103 121.2413120179606 0.0
    vertex 19.668282475707542 126.2413120179606 0.0
  endloop
endfacet
facet normal 0.0 0.0 -1.0
  outer loop
    vertex 18.075850010823103 26.241312017960595 0.0
    vertex 19.575850010823103 121.2413120179606 0.0
    vertex 18.261108039845478 24.834137582098524 0.0
  endloop
endfacet
facet normal 0.0 0.0 -1.0
  outer loop
    vertex 18.261108039845478 24.834137582098524 0.0
    vertex 19.575850010823103 121.2413120179606 0.0
    vertex 18.8042570983881 23.522859758574764 0.0
  endloop
endfacet
facet normal -0.0 -0.0 1.0
  outer loop
    vertex 20.794302270208938 21.532814586753926 3.0
    vertex 21.097939963872086 25.594264405204292 3.0
    vertex 21.01275452959476 26.241312017960595 3.0
  endloop
endfacet
facet normal -0.0 -0.0 1.0
  outer loop
    vertex 21.097939963872086 25.594264405204292 3.0
    vertex 20.794302270208938 21.532814586753926 3.0
    vertex 22.10558009373271 20.989665528211315 3.0
  endloop
endfacet
facet normal -0.0 -0.0 1.0
  outer loop
    vertex 21.097939963872086 25.594264405204292 3.0
    vertex 22.10558009373271 20.989665528211315 3.0
    vertex 21.347691020133663 24.991312017960595 3.0
  endloop
endfacet
facet normal -0.0 -0.0 1.0
  outer loop
    vertex 21.347691020133663 24.991312017960595 3.0
    vertex 22.10558009373271 20.989665528211315 3.0
    vertex 21.74498757662839 24.473545064994227 3.0
  endloop
endfacet
facet normal -0.0 -0.0 1.0
  outer loop
    vertex 21.74498757662839 24.473545064994227 3.0
    vertex 22.10558009373271 20.989665528211315 3.0
    vertex 22.26275452959476 24.076248508499496 3.0
  endloop
endfacet
facet normal -0.0 -0.0 1.0
  outer loop
    vertex 22.26275452959476 24.076248508499496 3.0
    vertex 22.10558009373271 20.989665528211315 3.0
    vertex 23.512754529594762 20.804407499188937 3.0
  endloop
endfacet
facet normal -0.0 -0.0 1.0
  outer loop
    vertex 22.26275452959476 24.076248508499496 3.0
    vertex 23.512754529594762 20.804407499188937 3.0
    vertex 22.865706916838455 23.826497452237923 3.0
  endloop
endfacet
facet normal -0.0 -0.0 1.0
  outer loop
    vertex 22.865706916838455 23.826497452237923 3.0
    vertex 23.512754529594762 20.804407499188937 3.0
    vertex 23.51275452959476 23.741312017960595 3.0
  endloop
endfacet
facet normal -0.0 -0.0 1.0
  outer loop
    vertex 23.51275452959476 23.741312017960595 3.0
    vertex 23.512754529594762 20.804407499188937 3.0
    vertex 24.15980214235106 23.826497452237923 3.0
  endloop
endfacet
facet normal -0.0 -0.0 1.0
  outer loop
    vertex 24.15980214235106 23.826497452237923 3.0
    vertex 23.512754529594762 20.804407499188937 3.0
    vertex 24.919928965456815 20.98966552821131 3.0
  endloop
endfacet
facet normal -0.0 -0.0 1.0
  outer loop
    vertex 24.15980214235106 23.826497452237923 3.0
    vertex 24.919928965456815 20.98966552821131 3.0
    vertex 24.76275452959476 24.076248508499496 3.0
  endloop
endfacet
facet normal -0.0 -0.0 1.0
  outer loop
    vertex 24.76275452959476 24.076248508499496 3.0
    vertex 24.919928965456815 20.98966552821131 3.0
    vertex 25.280521482561127 24.473545064994223 3.0
  endloop
endfacet
facet normal -0.0 -0.0 1.0
  outer loop
    vertex 25.280521482561127 24.473545064994223 3.0
    vertex 24.919928965456815 20.98966552821131 3.0
    vertex 26.231206788980582 21.532814586753926 3.0
  endloop
endfacet
facet normal -0.0 -0.0 1.0
  outer loop
    vertex 25.280521482561127 24.473545064994223 3.0
    vertex 26.231206788980582 21.532814586753926 3.0
    vertex 25.677818039055854 24.991312017960595 3.0
  endloop
endfacet
facet normal -0.0 -0.0 1.0
  outer loop
    vertex 25.677818039055854 24.991312017960595 3.0
    vertex 26.231206788980582 21.532814586753926 3.0
    vertex 25.927569095317427 25.59426440520429 3.0
  endloop
endfacet
facet normal -0.0 -0.0 1.0
  outer loop
    vertex 25.927569095317427 25.59426440520429 3.0
    vertex 26.231206788980582 21.532814586753926 3.0
    vertex 26.012754529594762 26.241312017960595 3.0
  endloop
endfacet
facet normal -0.0 -0.0 1.0
  outer loop
    vertex 19.66828247570753 22.396839964073386 3.0
    vertex 19.575850010823103 121.2413120179606 3.0
    vertex 18.8042570983881 23.522859758574764 3.0
  endloop
endfacet
facet normal -0.0 -0.0 1.0
  outer loop
    vertex 19.575850010823103 121.2413120179606 3.0
    vertex 19.66828247570753 22.396839964073386 3.0
    vertex 19.99212154542522 44.66965556624804 3.0
  endloop
endfacet
facet normal -0.0 -0.0 1.0
  outer loop
    vertex 19.99212154542522 44.66965556624804 3.0
    vertex 19.66828247570753 22.396839964073386 3.0
    vertex 20.054057968712726 30.381800018931596 3.0
  endloop
endfacet
facet normal -0.0 -0.0 1.0
  outer loop
    vertex 20.054057968712726 30.381800018931596 3.0
    vertex 19.66828247570753 22.396839964073386 3.0
    vertex 20.794302270208938 21.532814586753926 3.0
  endloop
endfacet
facet normal -0.0 -0.0 1.0
  outer loop
    vertex 19.99212154542522 44.66965556624804 3.0
    vertex 20.054057968712726 30.381800018931596 3.0
    vertex 19.999522583152512 42.962340995355575 3.0
  endloop
endfacet
facet normal -0.0 -0.0 1.0
  outer loop
    vertex 20.054057968712726 30.381800018931596 3.0
    vertex 20.794302270208938 21.532814586753926 3.0
    vertex 20.794302270208917 30.949809449167248 3.0
  endloop
endfacet
facet normal -0.0 -0.0 1.0
  outer loop
    vertex 20.794302270208917 30.949809449167248 3.0
    vertex 20.794302270208938 21.532814586753926 3.0
    vertex 21.01275452959476 26.241312017960595 3.0
  endloop
endfacet
facet normal -0.0 -0.0 1.0
  outer loop
    vertex 20.794302270208917 30.949809449167248 3.0
    vertex 21.01275452959476 26.241312017960595 3.0
    vertex 21.097939963872086 26.888359630716895 3.0
  endloop
endfacet
facet normal -0.0 -0.0 1.0
  outer loop
    vertex 20.794302270208917 30.949809449167248 3.0
    vertex 21.097939963872086 26.888359630716895 3.0
    vertex 22.10558009373271 31.492958507709886 3.0
  endloop
endfacet
facet normal -0.0 -0.0 1.0
  outer loop
    vertex 22.10558009373271 31.492958507709886 3.0
    vertex 21.097939963872086 26.888359630716895 3.0
    vertex 21.347691020133663 27.4913120179606 3.0
  endloop
endfacet
facet normal -0.0 -0.0 1.0
  outer loop
    vertex 22.10558009373271 31.492958507709886 3.0
    vertex 21.347691020133663 27.4913120179606 3.0
    vertex 21.74498757662839 28.009078970926964 3.0
  endloop
endfacet
facet normal -0.0 -0.0 1.0
  outer loop
    vertex 22.10558009373271 31.492958507709886 3.0
    vertex 21.74498757662839 28.009078970926964 3.0
    vertex 22.26275452959476 28.40637552742169 3.0
  endloop
endfacet
facet normal -0.0 -0.0 1.0
  outer loop
    vertex 22.10558009373271 31.492958507709886 3.0
    vertex 22.26275452959476 28.40637552742169 3.0
    vertex 23.512754529594762 31.678216536732243 3.0
  endloop
endfacet
facet normal -0.0 -0.0 1.0
  outer loop
    vertex 23.512754529594762 31.678216536732243 3.0
    vertex 22.26275452959476 28.40637552742169 3.0
    vertex 22.86570691683846 28.65612658368327 3.0
  endloop
endfacet
facet normal -0.0 -0.0 1.0
  outer loop
    vertex 23.512754529594762 31.678216536732243 3.0
    vertex 22.86570691683846 28.65612658368327 3.0
    vertex 23.51275452959476 28.741312017960595 3.0
  endloop
endfacet
facet normal -0.0 -0.0 1.0
  outer loop
    vertex 23.512754529594762 31.678216536732243 3.0
    vertex 23.51275452959476 28.741312017960595 3.0
    vertex 24.15980214235106 28.65612658368327 3.0
  endloop
endfacet
facet normal -0.0 -0.0 1.0
  outer loop
    vertex 23.512754529594762 31.678216536732243 3.0
    vertex 24.15980214235106 28.65612658368327 3.0
    vertex 24.919928965456812 31.492958507709886 3.0
  endloop
endfacet
facet normal -0.0 -0.0 1.0
  outer loop
    vertex 24.919928965456812 31.492958507709886 3.0
    vertex 24.15980214235106 28.65612658368327 3.0
    vertex 24.762754529594762 28.40637552742169 3.0
  endloop
endfacet
facet normal -0.0 -0.0 1.0
  outer loop
    vertex 24.919928965456812 31.492958507709886 3.0
    vertex 24.762754529594762 28.40637552742169 3.0
    vertex 25.28052148256113 28.009078970926964 3.0
  endloop
endfacet
facet normal -0.0 -0.0 1.0
  outer loop
    vertex 24.919928965456812 31.492958507709886 3.0
    vertex 25.28052148256113 28.009078970926964 3.0
    vertex 26.2312067889806 30.94980944916725 3.0
  endloop
endfacet
facet normal -0.0 -0.0 1.0
  outer loop
    vertex 26.2312067889806 30.94980944916725 3.0
    vertex 25.28052148256113 28.009078970926964 3.0
    vertex 25.677818039055854 27.491312017960592 3.0
  endloop
endfacet
facet normal -0.0 -0.0 1.0
  outer loop
    vertex 26.2312067889806 30.94980944916725 3.0
    vertex 25.677818039055854 27.491312017960592 3.0
    vertex 25.927569095317434 26.888359630716895 3.0
  endloop
endfacet
facet normal -0.0 -0.0 1.0
  outer loop
    vertex 26.2312067889806 30.94980944916725 3.0
    vertex 25.927569095317434 26.888359630716895 3.0
    vertex 26.012754529594762 26.241312017960595 3.0
  endloop
endfacet
facet normal -0.0 -0.0 1.0
  outer loop
    vertex 26.2312067889806 30.94980944916725 3.0
    vertex 26.012754529594762 26.241312017960595 3.0
    vertex 26.231206788980582 21.532814586753926 3.0
  endloop
endfacet
facet normal -0.0 -0.0 1.0
  outer loop
    vertex 26.2312067889806 30.94980944916725 3.0
    vertex 26.231206788980582 21.532814586753926 3.0
    vertex 27.357226583481992 22.396839964073383 3.0
  endloop
endfacet
facet normal -0.0 -0.0 1.0
  outer loop
    vertex 26.2312067889806 30.94980944916725 3.0
    vertex 27.357226583481992 22.396839964073383 3.0
    vertex 26.97145109047679 30.381800018931596 3.0
  endloop
endfacet
facet normal -0.0 -0.0 1.0
  outer loop
    vertex 26.97145109047679 30.381800018931596 3.0
    vertex 27.357226583481992 22.396839964073383 3.0
    vertex 27.03422900474617 42.96599090679815 3.0
  endloop
endfacet
facet normal -0.0 -0.0 1.0
  outer loop
    vertex 27.03422900474617 42.96599090679815 3.0
    vertex 27.357226583481992 22.396839964073383 3.0
    vertex 27.04254257176255 44.632492820899195 3.0
  endloop
endfacet
facet normal -0.0 -0.0 1.0
  outer loop
    vertex 27.04254257176255 44.632492820899195 3.0
    vertex 27.357226583481992 22.396839964073383 3.0
    vertex 27.449659048366417 126.2413120179606 3.0
  endloop
endfacet
facet normal -0.0 -0.0 1.0
  outer loop
    vertex 27.449659048366417 126.2413120179606 3.0
    vertex 27.357226583481992 22.396839964073383 3.0
    vertex 28.221251960801403 23.522859758574747 3.0
  endloop
endfacet
facet normal -0.0 -0.0 1.0
  outer loop
    vertex 27.449659048366417 126.2413120179606 3.0
    vertex 28.221251960801403 23.522859758574747 3.0
    vertex 28.949659048366414 121.24131201796058 3.0
  endloop
endfacet
facet normal -0.0 -0.0 1.0
  outer loop
    vertex 28.949659048366414 121.24131201796058 3.0
    vertex 28.221251960801403 23.522859758574747 3.0
    vertex 28.76440101934404 24.83413758209853 3.0
  endloop
endfacet
facet normal -0.0 -0.0 1.0
  outer loop
    vertex 28.949659048366414 121.24131201796058 3.0
    vertex 28.76440101934404 24.83413758209853 3.0
    vertex 28.949659048366414 26.24131201796059 3.0
  endloop
endfacet
facet normal -0.0 -0.0 1.0
  outer loop
    vertex 19.999522583152512 42.962340995355575 3.0
    vertex 20.107430967686245 43.756630802524064 3.0
    vertex 19.99212154542522 44.66965556624804 3.0
  endloop
endfacet
facet normal -0.0 -0.0 1.0
  outer loop
    vertex 20.107430967686245 43.756630802524064 3.0
    vertex 19.999522583152512 42.962340995355575 3.0
    vertex 20.104661765476642 42.704679544957514 3.0
  endloop
endfacet
facet normal -0.0 -0.0 1.0
  outer loop
    vertex 20.107430967686245 43.756630802524064 3.0
    vertex 20.104661765476642 42.704679544957514 3.0
    vertex 20.724709690209938 41.88773726781014 3.0
  endloop
endfacet
facet normal -0.0 -0.0 1.0
  outer loop
    vertex 20.107430967686245 43.756630802524064 3.0
    vertex 20.724709690209938 41.88773726781014 3.0
    vertex 20.455119514164632 42.90456087776252 3.0
  endloop
endfacet
facet normal -0.0 -0.0 1.0
  outer loop
    vertex 20.455119514164632 42.90456087776252 3.0
    vertex 20.724709690209938 41.88773726781014 3.0
    vertex 21.011492785000375 42.17151294922378 3.0
  endloop
endfacet
facet normal -0.0 -0.0 1.0
  outer loop
    vertex 21.011492785000375 42.17151294922378 3.0
    vertex 20.724709690209938 41.88773726781014 3.0
    vertex 21.535070214321927 41.259111835523356 3.0
  endloop
endfacet
facet normal -0.0 -0.0 1.0
  outer loop
    vertex 21.011492785000375 42.17151294922378 3.0
    vertex 21.535070214321927 41.259111835523356 3.0
    vertex 21.738634861236314 41.60744302181879 3.0
  endloop
endfacet
facet normal -0.0 -0.0 1.0
  outer loop
    vertex 21.738634861236314 41.60744302181879 3.0
    vertex 21.535070214321927 41.259111835523356 3.0
    vertex 22.480518607278448 40.86164303245488 3.0
  endloop
endfacet
facet normal -0.0 -0.0 1.0
  outer loop
    vertex 21.738634861236314 41.60744302181879 3.0
    vertex 22.480518607278448 40.86164303245488 3.0
    vertex 22.586992212036076 41.25079152893055 3.0
  endloop
endfacet
facet normal -0.0 -0.0 1.0
  outer loop
    vertex 22.586992212036076 41.25079152893055 3.0
    vertex 22.480518607278448 40.86164303245488 3.0
    vertex 23.496624123526896 40.722417700685554 3.0
  endloop
endfacet
facet normal -0.0 -0.0 1.0
  outer loop
    vertex 22.586992212036076 41.25079152893055 3.0
    vertex 23.496624123526896 40.722417700685554 3.0
    vertex 23.49875068591946 41.125863680404954 3.0
  endloop
endfacet
facet normal -0.0 -0.0 1.0
  outer loop
    vertex 23.49875068591946 41.125863680404954 3.0
    vertex 23.496624123526896 40.722417700685554 3.0
    vertex 24.514140851328676 40.85092381649472 3.0
  endloop
endfacet
facet normal -0.0 -0.0 1.0
  outer loop
    vertex 23.49875068591946 41.125863680404954 3.0
    vertex 24.514140851328676 40.85092381649472 3.0
    vertex 24.411775449643436 41.241173102665975 3.0
  endloop
endfacet
facet normal -0.0 -0.0 1.0
  outer loop
    vertex 24.411775449643436 41.241173102665975 3.0
    vertex 24.514140851328676 40.85092381649472 3.0
    vertex 25.26384537440498 41.58886164914436 3.0
  endloop
endfacet
facet normal -0.0 -0.0 1.0
  outer loop
    vertex 25.26384537440498 41.58886164914436 3.0
    vertex 24.514140851328676 40.85092381649472 3.0
    vertex 25.46372670720999 41.238403900456376 3.0
  endloop
endfacet
facet normal -0.0 -0.0 1.0
  outer loop
    vertex 25.26384537440498 41.58886164914436 3.0
    vertex 25.46372670720999 41.238403900456376 3.0
    vertex 25.996893302943718 42.145234919980105 3.0
  endloop
endfacet
facet normal -0.0 -0.0 1.0
  outer loop
    vertex 25.996893302943718 42.145234919980105 3.0
    vertex 25.46372670720999 41.238403900456376 3.0
    vertex 26.280668984357362 41.85845182518966 3.0
  endloop
endfacet
facet normal -0.0 -0.0 1.0
  outer loop
    vertex 25.996893302943718 42.145234919980105 3.0
    vertex 26.280668984357362 41.85845182518966 3.0
    vertex 26.560963230348715 42.87237699621605 3.0
  endloop
endfacet
facet normal -0.0 -0.0 1.0
  outer loop
    vertex 26.560963230348715 42.87237699621605 3.0
    vertex 26.280668984357362 41.85845182518966 3.0
    vertex 26.90929441664415 42.66881234930167 3.0
  endloop
endfacet
facet normal -0.0 -0.0 1.0
  outer loop
    vertex 26.560963230348715 42.87237699621605 3.0
    vertex 26.90929441664415 42.66881234930167 3.0
    vertex 26.917614723236948 43.72073434701581 3.0
  endloop
endfacet
facet normal -0.0 -0.0 1.0
  outer loop
    vertex 26.917614723236948 43.72073434701581 3.0
    vertex 26.90929441664415 42.66881234930167 3.0
    vertex 27.03422900474617 42.96599090679815 3.0
  endloop
endfacet
facet normal -0.0 -0.0 1.0
  outer loop
    vertex 26.917614723236948 43.72073434701581 3.0
    vertex 27.03422900474617 42.96599090679815 3.0
    vertex 27.04254257176255 44.632492820899195 3.0
  endloop
endfacet
facet normal -0.0 -0.0 1.0
  outer loop
    vertex 18.261108039845478 24.834137582098524 3.0
    vertex 18.075850010823103 121.2413120179606 3.0
    vertex 18.075850010823103 26.241312017960595 3.0
  endloop
endfacet
facet normal -0.0 -0.0 1.0
  outer loop
    vertex 18.075850010823103 121.2413120179606 3.0
    vertex 18.261108039845478 24.834137582098524 3.0
    vertex 19.575850010823103 121.2413120179606 3.0
  endloop
endfacet
facet normal -0.0 -0.0 1.0
  outer loop
    vertex 18.075850010823103 121.2413120179606 3.0
    vertex 19.575850010823103 121.2413120179606 3.0
    vertex 19.668282475707542 126.2413120179606 3.0
  endloop
endfacet
facet normal -0.0 -0.0 1.0
  outer loop
    vertex 19.575850010823103 121.2413120179606 3.0
    vertex 18.261108039845478 24.834137582098524 3.0
    vertex 18.8042570983881 23.522859758574764 3.0
  endloop
endfacet
facet normal 0.999985223290962 0.0054362854712602035 0.0
  outer loop
    vertex 19.575850010823103 121.2413120179606 0.0
    vertex 19.99212154542522 44.66965556624804 3.0
    vertex 19.99212154542522 44.66965556624804 0.0
  endloop
endfacet
facet normal 0.999985223290962 0.0054362854712602035 0.0
  outer loop
    vertex 19.99212154542522 44.66965556624804 3.0
    vertex 19.575850010823103 121.2413120179606 0.0
    vertex 19.575850010823103 121.2413120179606 3.0
  endloop
endfacet
facet normal 0.9921190823633341 0.12529854911584606 0.0
  outer loop
    vertex 19.99212154542522 44.66965556624804 0.0
    vertex 20.107430967686245 43.756630802524064 3.0
    vertex 20.107430967686245 43.756630802524064 0.0
  endloop
endfacet
facet normal 0.9672766235732392 0.2537241287082372 0.0
  outer loop
    vertex 20.107430967686245 43.756630802524064 3.0
    vertex 19.99212154542522 44.66965556624804 0.0
    vertex 19.99212154542522 44.66965556624804 3.0
  endloop
endfacet
facet normal 0.9672766235732392 0.2537241287082372 0.0
  outer loop
    vertex 20.107430967686245 43.756630802524064 0.0
    vertex 20.455119514164632 42.90456087776252 3.0
    vertex 20.455119514164632 42.90456087776252 0.0
  endloop
endfacet
facet normal 0.8686488351633458 0.4954283007351946 0.0
  outer loop
    vertex 20.455119514164632 42.90456087776252 3.0
    vertex 20.107430967686245 43.756630802524064 0.0
    vertex 20.107430967686245 43.756630802524064 3.0
  endloop
endfacet
facet normal 0.8686488351633458 0.4954283007351946 0.0
  outer loop
    vertex 20.455119514164632 42.90456087776252 0.0
    vertex 21.011492785000375 42.17151294922378 3.0
    vertex 21.011492785000375 42.17151294922378 0.0
  endloop
endfacet
facet normal 0.7108240641471445 0.7033698528010255 0.0
  outer loop
    vertex 21.011492785000375 42.17151294922378 3.0
    vertex 20.455119514164632 42.90456087776252 0.0
    vertex 20.455119514164632 42.90456087776252 3.0
  endloop
endfacet
facet normal 0.7108240641471445 0.7033698528010255 0.0
  outer loop
    vertex 21.011492785000375 42.17151294922378 3.0
    vertex 21.738634861236314 41.60744302181879 0.0
    vertex 21.011492785000375 42.17151294922378 0.0
  endloop
endfacet
facet normal 0.5045578078516236 0.8633779117721069 0.0
  outer loop
    vertex 21.738634861236314 41.60744302181879 0.0
    vertex 21.011492785000375 42.17151294922378 3.0
    vertex 21.738634861236314 41.60744302181879 3.0
  endloop
endfacet
facet normal 0.5045578078516236 0.8633779117721069 0.0
  outer loop
    vertex 21.738634861236314 41.60744302181879 3.0
    vertex 22.586992212036076 41.25079152893055 0.0
    vertex 21.738634861236314 41.60744302181879 0.0
  endloop
endfacet
facet normal 0.2639067707722119 0.9645481928553821 0.0
  outer loop
    vertex 22.586992212036076 41.25079152893055 0.0
    vertex 21.738634861236314 41.60744302181879 3.0
    vertex 22.586992212036076 41.25079152893055 3.0
  endloop
endfacet
facet normal 0.2639067707722119 0.9645481928553821 0.0
  outer loop
    vertex 22.586992212036076 41.25079152893055 3.0
    vertex 23.49875068591946 41.125863680404954 0.0
    vertex 22.586992212036076 41.25079152893055 0.0
  endloop
endfacet
facet normal 0.005270923391235398 0.9999861085868164 0.0
  outer loop
    vertex 23.49875068591946 41.125863680404954 0.0
    vertex 22.586992212036076 41.25079152893055 3.0
    vertex 23.49875068591946 41.125863680404954 3.0
  endloop
endfacet
facet normal 0.005270923391235398 0.9999861085868164 0.0
  outer loop
    vertex 23.49875068591946 41.125863680404954 3.0
    vertex 24.411775449643436 41.241173102665975 0.0
    vertex 23.49875068591946 41.125863680404954 0.0
  endloop
endfacet
facet normal -0.2537241287082372 0.9672766235732392 0.0
  outer loop
    vertex 24.411775449643436 41.241173102665975 0.0
    vertex 23.49875068591946 41.125863680404954 3.0
    vertex 24.411775449643436 41.241173102665975 3.0
  endloop
endfacet
facet normal -0.2537241287082372 0.9672766235732392 0.0
  outer loop
    vertex 24.411775449643436 41.241173102665975 3.0
    vertex 25.26384537440498 41.58886164914436 0.0
    vertex 24.411775449643436 41.241173102665975 0.0
  endloop
endfacet
facet normal -0.49542830073519173 0.8686488351633476 0.0
  outer loop
    vertex 25.26384537440498 41.58886164914436 0.0
    vertex 24.411775449643436 41.241173102665975 3.0
    vertex 25.26384537440498 41.58886164914436 3.0
  endloop
endfacet
facet normal -0.49542830073519173 0.8686488351633476 0.0
  outer loop
    vertex 25.26384537440498 41.58886164914436 3.0
    vertex 25.996893302943718 42.145234919980105 0.0
    vertex 25.26384537440498 41.58886164914436 0.0
  endloop
endfacet
facet normal -0.7033698528010244 0.7108240641471455 0.0
  outer loop
    vertex 25.996893302943718 42.145234919980105 0.0
    vertex 25.26384537440498 41.58886164914436 3.0
    vertex 25.996893302943718 42.145234919980105 3.0
  endloop
endfacet
facet normal -0.8633779117721093 0.5045578078516196 0.0
  outer loop
    vertex 26.560963230348715 42.87237699621605 3.0
    vertex 25.996893302943718 42.145234919980105 0.0
    vertex 25.996893302943718 42.145234919980105 3.0
  endloop
endfacet
facet normal -0.7033698528010244 0.7108240641471455 0.0
  outer loop
    vertex 25.996893302943718 42.145234919980105 0.0
    vertex 26.560963230348715 42.87237699621605 3.0
    vertex 26.560963230348715 42.87237699621605 0.0
  endloop
endfacet
facet normal -0.964548192855382 0.26390677077221236 0.0
  outer loop
    vertex 26.917614723236948 43.72073434701581 3.0
    vertex 26.560963230348715 42.87237699621605 0.0
    vertex 26.560963230348715 42.87237699621605 3.0
  endloop
endfacet
facet normal -0.8633779117721093 0.5045578078516196 0.0
  outer loop
    vertex 26.560963230348715 42.87237699621605 0.0
    vertex 26.917614723236948 43.72073434701581 3.0
    vertex 26.917614723236948 43.72073434701581 0.0
  endloop
endfacet
facet normal -0.9907430952438501 0.13575020893772322 0.0
  outer loop
    vertex 27.04254257176255 44.632492820899195 3.0
    vertex 26.917614723236948 43.72073434701581 0.0
    vertex 26.917614723236948 43.72073434701581 3.0
  endloop
endfacet
facet normal -0.964548192855382 0.26390677077221236 0.0
  outer loop
    vertex 26.917614723236948 43.72073434701581 0.0
    vertex 27.04254257176255 44.632492820899195 3.0
    vertex 27.04254257176255 44.632492820899195 0.0
  endloop
endfacet
facet normal -0.9999875570009261 0.004988571270353417 0.0
  outer loop
    vertex 27.449659048366417 126.2413120179606 3.0
    vertex 27.04254257176255 44.632492820899195 0.0
    vertex 27.04254257176255 44.632492820899195 3.0
  endloop
endfacet
facet normal -0.9999875570009261 0.004988571270353417 0.0
  outer loop
    vertex 27.04254257176255 44.632492820899195 0.0
    vertex 27.449659048366417 126.2413120179606 3.0
    vertex 27.449659048366417 126.2413120179606 0.0
  endloop
endfacet
facet normal 0.9578262852211518 0.2873478855663442 0.0
  outer loop
    vertex 27.449659048366417 126.2413120179606 0.0
    vertex 28.949659048366414 121.24131201796058 3.0
    vertex 28.949659048366414 121.24131201796058 0.0
  endloop
endfacet
facet normal 0.9578262852211518 0.2873478855663442 0.0
  outer loop
    vertex 28.949659048366414 121.24131201796058 3.0
    vertex 27.449659048366417 126.2413120179606 0.0
    vertex 27.449659048366417 126.2413120179606 3.0
  endloop
endfacet
facet normal 0.9999999999999999 0.0 0.0
  outer loop
    vertex 28.949659048366414 121.24131201796058 0.0
    vertex 28.949659048366414 26.24131201796059 3.0
    vertex 28.949659048366414 26.24131201796059 0.0
  endloop
endfacet
facet normal 0.9999999999999999 0.0 0.0
  outer loop
    vertex 28.949659048366414 26.24131201796059 3.0
    vertex 28.949659048366414 121.24131201796058 0.0
    vertex 28.949659048366414 121.24131201796058 3.0
  endloop
endfacet
facet normal 0.9914448613738104 -0.1305261922200515 0.0
  outer loop
    vertex 28.949659048366414 26.24131201796059 0.0
    vertex 28.76440101934404 24.83413758209853 3.0
    vertex 28.76440101934404 24.83413758209853 0.0
  endloop
endfacet
facet normal 0.9659258262890676 -0.2588190451025236 0.0
  outer loop
    vertex 28.76440101934404 24.83413758209853 3.0
    vertex 28.949659048366414 26.24131201796059 0.0
    vertex 28.949659048366414 26.24131201796059 3.0
  endloop
endfacet
facet normal 0.9659258262890676 -0.2588190451025236 0.0
  outer loop
    vertex 28.76440101934404 24.83413758209853 0.0
    vertex 28.221251960801403 23.522859758574747 3.0
    vertex 28.221251960801403 23.522859758574747 0.0
  endloop
endfacet
facet normal 0.8660254037844379 -0.5000000000000012 0.0
  outer loop
    vertex 28.221251960801403 23.522859758574747 3.0
    vertex 28.76440101934404 24.83413758209853 0.0
    vertex 28.76440101934404 24.83413758209853 3.0
  endloop
endfacet
facet normal 0.8660254037844379 -0.5000000000000012 0.0
  outer loop
    vertex 28.221251960801403 23.522859758574747 0.0
    vertex 27.357226583481992 22.396839964073383 3.0
    vertex 27.357226583481992 22.396839964073383 0.0
  endloop
endfacet
facet normal 0.7071067811865487 -0.7071067811865462 0.0
  outer loop
    vertex 27.357226583481992 22.396839964073383 3.0
    vertex 28.221251960801403 23.522859758574747 0.0
    vertex 28.221251960801403 23.522859758574747 3.0
  endloop
endfacet
facet normal 0.7071067811865487 -0.7071067811865462 0.0
  outer loop
    vertex 27.357226583481992 22.396839964073383 3.0
    vertex 26.231206788980582 21.532814586753926 0.0
    vertex 27.357226583481992 22.396839964073383 0.0
  endloop
endfacet
facet normal 0.49999999999999944 -0.866025403784439 0.0
  outer loop
    vertex 26.231206788980582 21.532814586753926 0.0
    vertex 27.357226583481992 22.396839964073383 3.0
    vertex 26.231206788980582 21.532814586753926 3.0
  endloop
endfacet
facet normal 0.49999999999999944 -0.866025403784439 0.0
  outer loop
    vertex 26.231206788980582 21.532814586753926 3.0
    vertex 24.919928965456815 20.98966552821131 0.0
    vertex 26.231206788980582 21.532814586753926 0.0
  endloop
endfacet
facet normal 0.25881904510252024 -0.9659258262890685 0.0
  outer loop
    vertex 24.919928965456815 20.98966552821131 0.0
    vertex 26.231206788980582 21.532814586753926 3.0
    vertex 24.919928965456815 20.98966552821131 3.0
  endloop
endfacet
facet normal 0.25881904510252024 -0.9659258262890685 0.0
  outer loop
    vertex 24.919928965456815 20.98966552821131 3.0
    vertex 23.512754529594762 20.804407499188937 0.0
    vertex 24.919928965456815 20.98966552821131 0.0
  endloop
endfacet
facet normal -8.554665499821029e-16 -1.0 0.0
  outer loop
    vertex 23.512754529594762 20.804407499188937 0.0
    vertex 24.919928965456815 20.98966552821131 3.0
    vertex 23.512754529594762 20.804407499188937 3.0
  endloop
endfacet
facet normal -8.554665499821029e-16 -1.0 0.0
  outer loop
    vertex 23.512754529594762 20.804407499188937 3.0
    vertex 22.10558009373271 20.989665528211315 0.0
    vertex 23.512754529594762 20.804407499188937 0.0
  endloop
endfacet
facet normal -0.25881904510251885 -0.9659258262890689 0.0
  outer loop
    vertex 22.10558009373271 20.989665528211315 0.0
    vertex 23.512754529594762 20.804407499188937 3.0
    vertex 22.10558009373271 20.989665528211315 3.0
  endloop
endfacet
facet normal -0.25881904510251885 -0.9659258262890689 0.0
  outer loop
    vertex 22.10558009373271 20.989665528211315 3.0
    vertex 20.794302270208938 21.532814586753926 0.0
    vertex 22.10558009373271 20.989665528211315 0.0
  endloop
endfacet
facet normal -0.4999999999999999 -0.8660254037844387 0.0
  outer loop
    vertex 20.794302270208938 21.532814586753926 0.0
    vertex 22.10558009373271 20.989665528211315 3.0
    vertex 20.794302270208938 21.532814586753926 3.0
  endloop
endfacet
facet normal -0.4999999999999999 -0.8660254037844387 0.0
  outer loop
    vertex 20.794302270208938 21.532814586753926 3.0
    vertex 19.66828247570753 22.396839964073386 0.0
    vertex 20.794302270208938 21.532814586753926 0.0
  endloop
endfacet
facet normal -0.7071067811865488 -0.7071067811865462 0.0
  outer loop
    vertex 19.66828247570753 22.396839964073386 0.0
    vertex 20.794302270208938 21.532814586753926 3.0
    vertex 19.66828247570753 22.396839964073386 3.0
  endloop
endfacet
facet normal -0.8660254037844375 -0.5000000000000021 0.0
  outer loop
    vertex 18.8042570983881 23.522859758574764 3.0
    vertex 19.66828247570753 22.396839964073386 0.0
    vertex 19.66828247570753 22.396839964073386 3.0
  endloop
endfacet
facet normal -0.7071067811865488 -0.7071067811865462 0.0
  outer loop
    vertex 19.66828247570753 22.396839964073386 0.0
    vertex 18.8042570983881 23.522859758574764 3.0
    vertex 18.8042570983881 23.522859758574764 0.0
  endloop
endfacet
facet normal -0.9659258262890679 -0.2588190451025223 0.0
  outer loop
    vertex 18.261108039845478 24.834137582098524 3.0
    vertex 18.8042570983881 23.522859758574764 0.0
    vertex 18.8042570983881 23.522859758574764 3.0
  endloop
endfacet
facet normal -0.8660254037844375 -0.5000000000000021 0.0
  outer loop
    vertex 18.8042570983881 23.522859758574764 0.0
    vertex 18.261108039845478 24.834137582098524 3.0
    vertex 18.261108039845478 24.834137582098524 0.0
  endloop
endfacet
facet normal -0.9914448613738103 -0.13052619222005216 -0.0
  outer loop
    vertex 18.075850010823103 26.241312017960595 3.0
    vertex 18.261108039845478 24.834137582098524 0.0
    vertex 18.261108039845478 24.834137582098524 3.0
  endloop
endfacet
facet normal -0.9659258262890679 -0.2588190451025223 0.0
  outer loop
    vertex 18.261108039845478 24.834137582098524 0.0
    vertex 18.075850010823103 26.241312017960595 3.0
    vertex 18.075850010823103 26.241312017960595 0.0
  endloop
endfacet
facet normal -1.0 0.0 0.0
  outer loop
    vertex 18.075850010823103 121.2413120179606 3.0
    vertex 18.075850010823103 26.241312017960595 0.0
    vertex 18.075850010823103 26.241312017960595 3.0
  endloop
endfacet
facet normal -1.0 0.0 0.0
  outer loop
    vertex 18.075850010823103 26.241312017960595 0.0
    vertex 18.075850010823103 121.2413120179606 3.0
    vertex 18.075850010823103 121.2413120179606 0.0
  endloop
endfacet
facet normal -0.9528418650080086 0.30346726394795875 0.0
  outer loop
    vertex 19.668282475707542 126.2413120179606 3.0
    vertex 18.075850010823103 121.2413120179606 0.0
    vertex 18.075850010823103 121.2413120179606 3.0
  endloop
endfacet
facet normal -0.9528418650080086 0.30346726394795875 0.0
  outer loop
    vertex 18.075850010823103 121.2413120179606 0.0
    vertex 19.668282475707542 126.2413120179606 3.0
    vertex 19.668282475707542 126.2413120179606 0.0
  endloop
endfacet
facet normal 0.9998291685737449 -0.018483334902926557 0.0
  outer loop
    vertex 19.668282475707542 126.2413120179606 0.0
    vertex 19.575850010823103 121.2413120179606 3.0
    vertex 19.575850010823103 121.2413120179606 0.0
  endloop
endfacet
facet normal 0.9998291685737449 -0.018483334902926557 0.0
  outer loop
    vertex 19.575850010823103 121.2413120179606 3.0
    vertex 19.668282475707542 126.2413120179606 0.0
    vertex 19.668282475707542 126.2413120179606 3.0
  endloop
endfacet
facet normal -0.8660254037844378 -0.5000000000000016 0.0
  outer loop
    vertex 25.677818039055854 27.491312017960592 3.0
    vertex 25.927569095317434 26.888359630716895 0.0
    vertex 25.927569095317434 26.888359630716895 3.0
  endloop
endfacet
facet normal -0.9659258262890678 -0.25881904510252296 0.0
  outer loop
    vertex 25.927569095317434 26.888359630716895 0.0
    vertex 25.677818039055854 27.491312017960592 3.0
    vertex 25.677818039055854 27.491312017960592 0.0
  endloop
endfacet
facet normal -0.7071067811865488 -0.7071067811865462 0.0
  outer loop
    vertex 25.28052148256113 28.009078970926964 3.0
    vertex 25.677818039055854 27.491312017960592 0.0
    vertex 25.677818039055854 27.491312017960592 3.0
  endloop
endfacet
facet normal -0.8660254037844378 -0.5000000000000016 0.0
  outer loop
    vertex 25.677818039055854 27.491312017960592 0.0
    vertex 25.28052148256113 28.009078970926964 3.0
    vertex 25.28052148256113 28.009078970926964 0.0
  endloop
endfacet
facet normal -0.7071067811865488 -0.7071067811865462 0.0
  outer loop
    vertex 25.28052148256113 28.009078970926964 3.0
    vertex 24.762754529594762 28.40637552742169 0.0
    vertex 25.28052148256113 28.009078970926964 0.0
  endloop
endfacet
facet normal -0.5000000000000024 -0.8660254037844373 0.0
  outer loop
    vertex 24.762754529594762 28.40637552742169 0.0
    vertex 25.28052148256113 28.009078970926964 3.0
    vertex 24.762754529594762 28.40637552742169 3.0
  endloop
endfacet
facet normal -0.5000000000000024 -0.8660254037844373 0.0
  outer loop
    vertex 24.762754529594762 28.40637552742169 3.0
    vertex 24.15980214235106 28.65612658368327 0.0
    vertex 24.762754529594762 28.40637552742169 0.0
  endloop
endfacet
facet normal -0.2588190451025221 -0.9659258262890679 0.0
  outer loop
    vertex 24.15980214235106 28.65612658368327 0.0
    vertex 24.762754529594762 28.40637552742169 3.0
    vertex 24.15980214235106 28.65612658368327 3.0
  endloop
endfacet
facet normal -0.2588190451025221 -0.9659258262890679 0.0
  outer loop
    vertex 24.15980214235106 28.65612658368327 3.0
    vertex 23.51275452959476 28.741312017960595 0.0
    vertex 24.15980214235106 28.65612658368327 0.0
  endloop
endfacet
facet normal 0.0 -1.0 0.0
  outer loop
    vertex 23.51275452959476 28.741312017960595 0.0
    vertex 24.15980214235106 28.65612658368327 3.0
    vertex 23.51275452959476 28.741312017960595 3.0
  endloop
endfacet
facet normal 0.0 -1.0 0.0
  outer loop
    vertex 23.51275452959476 28.741312017960595 3.0
    vertex 22.86570691683846 28.65612658368327 0.0
    vertex 23.51275452959476 28.741312017960595 0.0
  endloop
endfacet
facet normal 0.2588190451025221 -0.9659258262890679 0.0
  outer loop
    vertex 22.86570691683846 28.65612658368327 0.0
    vertex 23.51275452959476 28.741312017960595 3.0
    vertex 22.86570691683846 28.65612658368327 3.0
  endloop
endfacet
facet normal 0.2588190451025221 -0.9659258262890679 0.0
  outer loop
    vertex 22.86570691683846 28.65612658368327 3.0
    vertex 22.26275452959476 28.40637552742169 0.0
    vertex 22.86570691683846 28.65612658368327 0.0
  endloop
endfacet
facet normal 0.5000000000000024 -0.8660254037844373 0.0
  outer loop
    vertex 22.26275452959476 28.40637552742169 0.0
    vertex 22.86570691683846 28.65612658368327 3.0
    vertex 22.26275452959476 28.40637552742169 3.0
  endloop
endfacet
facet normal 0.5000000000000024 -0.8660254037844373 0.0
  outer loop
    vertex 22.26275452959476 28.40637552742169 3.0
    vertex 21.74498757662839 28.009078970926964 0.0
    vertex 22.26275452959476 28.40637552742169 0.0
  endloop
endfacet
facet normal 0.7071067811865457 -0.7071067811865493 0.0
  outer loop
    vertex 21.74498757662839 28.009078970926964 0.0
    vertex 22.26275452959476 28.40637552742169 3.0
    vertex 21.74498757662839 28.009078970926964 3.0
  endloop
endfacet
facet normal 0.7071067811865457 -0.7071067811865493 0.0
  outer loop
    vertex 21.74498757662839 28.009078970926964 0.0
    vertex 21.347691020133663 27.4913120179606 3.0
    vertex 21.347691020133663 27.4913120179606 0.0
  endloop
endfacet
facet normal 0.8660254037844384 -0.5000000000000003 0.0
  outer loop
    vertex 21.347691020133663 27.4913120179606 3.0
    vertex 21.74498757662839 28.009078970926964 0.0
    vertex 21.74498757662839 28.009078970926964 3.0
  endloop
endfacet
facet normal 0.8660254037844384 -0.5000000000000003 0.0
  outer loop
    vertex 21.347691020133663 27.4913120179606 0.0
    vertex 21.097939963872086 26.888359630716895 3.0
    vertex 21.097939963872086 26.888359630716895 0.0
  endloop
endfacet
facet normal 0.9659258262890685 -0.2588190451025195 0.0
  outer loop
    vertex 21.097939963872086 26.888359630716895 3.0
    vertex 21.347691020133663 27.4913120179606 0.0
    vertex 21.347691020133663 27.4913120179606 3.0
  endloop
endfacet
facet normal 0.9659258262890685 -0.2588190451025195 0.0
  outer loop
    vertex 21.097939963872086 26.888359630716895 0.0
    vertex 21.01275452959476 26.241312017960595 3.0
    vertex 21.01275452959476 26.241312017960595 0.0
  endloop
endfacet
facet normal 1.0 0.0 0.0
  outer loop
    vertex 21.01275452959476 26.241312017960595 3.0
    vertex 21.097939963872086 26.888359630716895 0.0
    vertex 21.097939963872086 26.888359630716895 3.0
  endloop
endfacet
facet normal 1.0 0.0 0.0
  outer loop
    vertex 21.01275452959476 26.241312017960595 0.0
    vertex 21.097939963872086 25.594264405204292 3.0
    vertex 21.097939963872086 25.594264405204292 0.0
  endloop
endfacet
facet normal 0.9659258262890684 0.25881904510252035 0.0
  outer loop
    vertex 21.097939963872086 25.594264405204292 3.0
    vertex 21.01275452959476 26.241312017960595 0.0
    vertex 21.01275452959476 26.241312017960595 3.0
  endloop
endfacet
facet normal 0.9659258262890684 0.25881904510252035 0.0
  outer loop
    vertex 21.097939963872086 25.594264405204292 0.0
    vertex 21.347691020133663 24.991312017960595 3.0
    vertex 21.347691020133663 24.991312017960595 0.0
  endloop
endfacet
facet normal 0.8660254037844387 0.5 0.0
  outer loop
    vertex 21.347691020133663 24.991312017960595 3.0
    vertex 21.097939963872086 25.594264405204292 0.0
    vertex 21.097939963872086 25.594264405204292 3.0
  endloop
endfacet
facet normal 0.8660254037844387 0.5 0.0
  outer loop
    vertex 21.347691020133663 24.991312017960595 0.0
    vertex 21.74498757662839 24.473545064994227 3.0
    vertex 21.74498757662839 24.473545064994227 0.0
  endloop
endfacet
facet normal 0.7071067811865478 0.7071067811865472 0.0
  outer loop
    vertex 21.74498757662839 24.473545064994227 3.0
    vertex 21.347691020133663 24.991312017960595 0.0
    vertex 21.347691020133663 24.991312017960595 3.0
  endloop
endfacet
facet normal 0.7071067811865478 0.7071067811865472 0.0
  outer loop
    vertex 21.74498757662839 24.473545064994227 3.0
    vertex 22.26275452959476 24.076248508499496 0.0
    vertex 21.74498757662839 24.473545064994227 0.0
  endloop
endfacet
facet normal 0.5000000000000011 0.8660254037844379 0.0
  outer loop
    vertex 22.26275452959476 24.076248508499496 0.0
    vertex 21.74498757662839 24.473545064994227 3.0
    vertex 22.26275452959476 24.076248508499496 3.0
  endloop
endfacet
facet normal 0.5000000000000011 0.8660254037844379 0.0
  outer loop
    vertex 22.26275452959476 24.076248508499496 3.0
    vertex 22.865706916838455 23.826497452237923 0.0
    vertex 22.26275452959476 24.076248508499496 0.0
  endloop
endfacet
facet normal 0.2588190451025208 0.9659258262890682 0.0
  outer loop
    vertex 22.865706916838455 23.826497452237923 0.0
    vertex 22.26275452959476 24.076248508499496 3.0
    vertex 22.865706916838455 23.826497452237923 3.0
  endloop
endfacet
facet normal 0.2588190451025208 0.9659258262890682 0.0
  outer loop
    vertex 22.865706916838455 23.826497452237923 3.0
    vertex 23.51275452959476 23.741312017960595 0.0
    vertex 22.865706916838455 23.826497452237923 0.0
  endloop
endfacet
facet normal -2.940666265563479e-16 1.0 0.0
  outer loop
    vertex 23.51275452959476 23.741312017960595 0.0
    vertex 22.865706916838455 23.826497452237923 3.0
    vertex 23.51275452959476 23.741312017960595 3.0
  endloop
endfacet
facet normal -2.940666265563479e-16 1.0 0.0
  outer loop
    vertex 23.51275452959476 23.741312017960595 3.0
    vertex 24.15980214235106 23.826497452237923 0.0
    vertex 23.51275452959476 23.741312017960595 0.0
  endloop
endfacet
facet normal -0.25881904510252113 0.9659258262890682 0.0
  outer loop
    vertex 24.15980214235106 23.826497452237923 0.0
    vertex 23.51275452959476 23.741312017960595 3.0
    vertex 24.15980214235106 23.826497452237923 3.0
  endloop
endfacet
facet normal -0.25881904510252113 0.9659258262890682 0.0
  outer loop
    vertex 24.15980214235106 23.826497452237923 3.0
    vertex 24.76275452959476 24.076248508499496 0.0
    vertex 24.15980214235106 23.826497452237923 0.0
  endloop
endfacet
facet normal -0.4999999999999997 0.8660254037844389 0.0
  outer loop
    vertex 24.76275452959476 24.076248508499496 0.0
    vertex 24.15980214235106 23.826497452237923 3.0
    vertex 24.76275452959476 24.076248508499496 3.0
  endloop
endfacet
facet normal -0.4999999999999997 0.8660254037844389 0.0
  outer loop
    vertex 24.76275452959476 24.076248508499496 3.0
    vertex 25.280521482561127 24.473545064994223 0.0
    vertex 24.76275452959476 24.076248508499496 0.0
  endloop
endfacet
facet normal -0.7071067811865475 0.7071067811865475 0.0
  outer loop
    vertex 25.280521482561127 24.473545064994223 0.0
    vertex 24.76275452959476 24.076248508499496 3.0
    vertex 25.280521482561127 24.473545064994223 3.0
  endloop
endfacet
facet normal -0.8660254037844384 0.5000000000000003 0.0
  outer loop
    vertex 25.677818039055854 24.991312017960595 3.0
    vertex 25.280521482561127 24.473545064994223 0.0
    vertex 25.280521482561127 24.473545064994223 3.0
  endloop
endfacet
facet normal -0.7071067811865475 0.7071067811865475 0.0
  outer loop
    vertex 25.280521482561127 24.473545064994223 0.0
    vertex 25.677818039055854 24.991312017960595 3.0
    vertex 25.677818039055854 24.991312017960595 0.0
  endloop
endfacet
facet normal -0.9659258262890676 0.2588190451025235 0.0
  outer loop
    vertex 25.927569095317427 25.59426440520429 3.0
    vertex 25.677818039055854 24.991312017960595 0.0
    vertex 25.677818039055854 24.991312017960595 3.0
  endloop
endfacet
facet normal -0.8660254037844384 0.5000000000000003 0.0
  outer loop
    vertex 25.677818039055854 24.991312017960595 0.0
    vertex 25.927569095317427 25.59426440520429 3.0
    vertex 25.927569095317427 25.59426440520429 0.0
  endloop
endfacet
facet normal -1.0 3.707021716589113e-15 0.0
  outer loop
    vertex 26.012754529594762 26.241312017960595 3.0
    vertex 25.927569095317427 25.59426440520429 0.0
    vertex 25.927569095317427 25.59426440520429 3.0
  endloop
endfacet
facet normal -0.9659258262890676 0.2588190451025235 0.0
  outer loop
    vertex 25.927569095317427 25.59426440520429 0.0
    vertex 26.012754529594762 26.241312017960595 3.0
    vertex 26.012754529594762 26.241312017960595 0.0
  endloop
endfacet
facet normal -0.9659258262890678 -0.25881904510252296 0.0
  outer loop
    vertex 25.927569095317434 26.888359630716895 3.0
    vertex 26.012754529594762 26.241312017960595 0.0
    vertex 26.012754529594762 26.241312017960595 3.0
  endloop
endfacet
facet normal -1.0 3.707021716589113e-15 0.0
  outer loop
    vertex 26.012754529594762 26.241312017960595 0.0
    vertex 25.927569095317434 26.888359630716895 3.0
    vertex 25.927569095317434 26.888359630716895 0.0
  endloop
endfacet
facet normal -0.9258837935740616 -0.3778084181128112 -0.0
  outer loop
    vertex 19.999522583152512 42.962340995355575 3.0
    vertex 20.104661765476642 42.704679544957514 0.0
    vertex 20.104661765476642 42.704679544957514 3.0
  endloop
endfacet
facet normal -0.8686488351633463 -0.49542830073519345 0.0
  outer loop
    vertex 20.104661765476642 42.704679544957514 0.0
    vertex 19.999522583152512 42.962340995355575 3.0
    vertex 19.999522583152512 42.962340995355575 0.0
  endloop
endfacet
facet normal 0.9999906044539343 0.004334859150547574 0.0
  outer loop
    vertex 19.999522583152512 42.962340995355575 0.0
    vertex 20.054057968712726 30.381800018931596 3.0
    vertex 20.054057968712726 30.381800018931596 0.0
  endloop
endfacet
facet normal 0.9999906044539343 0.004334859150547574 0.0
  outer loop
    vertex 20.054057968712726 30.381800018931596 3.0
    vertex 19.999522583152512 42.962340995355575 0.0
    vertex 19.999522583152512 42.962340995355575 3.0
  endloop
endfacet
facet normal -0.6087614290087133 0.7933533402912409 0.0
  outer loop
    vertex 20.054057968712726 30.381800018931596 3.0
    vertex 20.794302270208917 30.949809449167248 0.0
    vertex 20.054057968712726 30.381800018931596 0.0
  endloop
endfacet
facet normal -0.49999999999999983 0.8660254037844388 0.0
  outer loop
    vertex 20.794302270208917 30.949809449167248 0.0
    vertex 20.054057968712726 30.381800018931596 3.0
    vertex 20.794302270208917 30.949809449167248 3.0
  endloop
endfacet
facet normal -0.49999999999999983 0.8660254037844388 0.0
  outer loop
    vertex 20.794302270208917 30.949809449167248 3.0
    vertex 22.10558009373271 31.492958507709886 0.0
    vertex 20.794302270208917 30.949809449167248 0.0
  endloop
endfacet
facet normal -0.25881904510251935 0.9659258262890686 0.0
  outer loop
    vertex 22.10558009373271 31.492958507709886 0.0
    vertex 20.794302270208917 30.949809449167248 3.0
    vertex 22.10558009373271 31.492958507709886 3.0
  endloop
endfacet
facet normal -0.25881904510251935 0.9659258262890686 0.0
  outer loop
    vertex 22.10558009373271 31.492958507709886 3.0
    vertex 23.512754529594762 31.678216536732243 0.0
    vertex 22.10558009373271 31.492958507709886 0.0
  endloop
endfacet
facet normal 2.6733329686940677e-16 1.0 0.0
  outer loop
    vertex 23.512754529594762 31.678216536732243 0.0
    vertex 22.10558009373271 31.492958507709886 3.0
    vertex 23.512754529594762 31.678216536732243 3.0
  endloop
endfacet
facet normal 2.6733329686940677e-16 1.0 0.0
  outer loop
    vertex 23.512754529594762 31.678216536732243 3.0
    vertex 24.919928965456812 31.492958507709886 0.0
    vertex 23.512754529594762 31.678216536732243 0.0
  endloop
endfacet
facet normal 0.25881904510251824 0.965925826289069 0.0
  outer loop
    vertex 24.919928965456812 31.492958507709886 0.0
    vertex 23.512754529594762 31.678216536732243 3.0
    vertex 24.919928965456812 31.492958507709886 3.0
  endloop
endfacet
facet normal 0.25881904510251824 0.965925826289069 0.0
  outer loop
    vertex 24.919928965456812 31.492958507709886 3.0
    vertex 26.2312067889806 30.94980944916725 0.0
    vertex 24.919928965456812 31.492958507709886 0.0
  endloop
endfacet
facet normal 0.5000000000000007 0.8660254037844384 0.0
  outer loop
    vertex 26.2312067889806 30.94980944916725 0.0
    vertex 24.919928965456812 31.492958507709886 3.0
    vertex 26.2312067889806 30.94980944916725 3.0
  endloop
endfacet
facet normal 0.5000000000000007 0.8660254037844384 0.0
  outer loop
    vertex 26.2312067889806 30.94980944916725 3.0
    vertex 26.97145109047679 30.381800018931596 0.0
    vertex 26.2312067889806 30.94980944916725 0.0
  endloop
endfacet
facet normal 0.6087614290087171 0.793353340291238 0.0
  outer loop
    vertex 26.97145109047679 30.381800018931596 0.0
    vertex 26.2312067889806 30.94980944916725 3.0
    vertex 26.97145109047679 30.381800018931596 3.0
  endloop
endfacet
facet normal -0.9999875570009261 0.004988571270353293 0.0
  outer loop
    vertex 27.03422900474617 42.96599090679815 3.0
    vertex 26.97145109047679 30.381800018931596 0.0
    vertex 26.97145109047679 30.381800018931596 3.0
  endloop
endfacet
facet normal -0.9999875570009261 0.004988571270353293 0.0
  outer loop
    vertex 26.97145109047679 30.381800018931596 0.0
    vertex 27.03422900474617 42.96599090679815 3.0
    vertex 27.03422900474617 42.96599090679815 0.0
  endloop
endfacet
facet normal 0.9218496034638783 -0.3875478145900064 0.0
  outer loop
    vertex 27.03422900474617 42.96599090679815 0.0
    vertex 26.90929441664415 42.66881234930167 3.0
    vertex 26.90929441664415 42.66881234930167 0.0
  endloop
endfacet
facet normal 0.8633779117721097 -0.5045578078516189 0.0
  outer loop
    vertex 26.90929441664415 42.66881234930167 3.0
    vertex 27.03422900474617 42.96599090679815 0.0
    vertex 27.03422900474617 42.96599090679815 3.0
  endloop
endfacet
facet normal 0.8633779117721097 -0.5045578078516189 0.0
  outer loop
    vertex 26.90929441664415 42.66881234930167 0.0
    vertex 26.280668984357362 41.85845182518966 3.0
    vertex 26.280668984357362 41.85845182518966 0.0
  endloop
endfacet
facet normal 0.7033698528010242 -0.7108240641471459 0.0
  outer loop
    vertex 26.280668984357362 41.85845182518966 3.0
    vertex 26.90929441664415 42.66881234930167 0.0
    vertex 26.90929441664415 42.66881234930167 3.0
  endloop
endfacet
facet normal 0.7033698528010242 -0.7108240641471459 0.0
  outer loop
    vertex 26.280668984357362 41.85845182518966 3.0
    vertex 25.46372670720999 41.238403900456376 0.0
    vertex 26.280668984357362 41.85845182518966 0.0
  endloop
endfacet
facet normal 0.4954283007351913 -0.8686488351633479 0.0
  outer loop
    vertex 25.46372670720999 41.238403900456376 0.0
    vertex 26.280668984357362 41.85845182518966 3.0
    vertex 25.46372670720999 41.238403900456376 3.0
  endloop
endfacet
facet normal 0.4954283007351913 -0.8686488351633479 0.0
  outer loop
    vertex 25.46372670720999 41.238403900456376 3.0
    vertex 24.514140851328676 40.85092381649472 0.0
    vertex 25.46372670720999 41.238403900456376 0.0
  endloop
endfacet
facet normal 0.25372412870823713 -0.9672766235732393 0.0
  outer loop
    vertex 24.514140851328676 40.85092381649472 0.0
    vertex 25.46372670720999 41.238403900456376 3.0
    vertex 24.514140851328676 40.85092381649472 3.0
  endloop
endfacet
facet normal 0.25372412870823713 -0.9672766235732393 0.0
  outer loop
    vertex 24.514140851328676 40.85092381649472 3.0
    vertex 23.496624123526896 40.722417700685554 0.0
    vertex 24.514140851328676 40.85092381649472 0.0
  endloop
endfacet
facet normal -0.005270923391234685 -0.9999861085868162 0.0
  outer loop
    vertex 23.496624123526896 40.722417700685554 0.0
    vertex 24.514140851328676 40.85092381649472 3.0
    vertex 23.496624123526896 40.722417700685554 3.0
  endloop
endfacet
facet normal -0.005270923391234685 -0.9999861085868162 0.0
  outer loop
    vertex 23.496624123526896 40.722417700685554 3.0
    vertex 22.480518607278448 40.86164303245488 0.0
    vertex 23.496624123526896 40.722417700685554 0.0
  endloop
endfacet
facet normal -0.26390677077221264 -0.9645481928553818 0.0
  outer loop
    vertex 22.480518607278448 40.86164303245488 0.0
    vertex 23.496624123526896 40.722417700685554 3.0
    vertex 22.480518607278448 40.86164303245488 3.0
  endloop
endfacet
facet normal -0.26390677077221264 -0.9645481928553818 0.0
  outer loop
    vertex 22.480518607278448 40.86164303245488 3.0
    vertex 21.535070214321927 41.259111835523356 0.0
    vertex 22.480518607278448 40.86164303245488 0.0
  endloop
endfacet
facet normal -0.504557807851624 -0.8633779117721069 0.0
  outer loop
    vertex 21.535070214321927 41.259111835523356 0.0
    vertex 22.480518607278448 40.86164303245488 3.0
    vertex 21.535070214321927 41.259111835523356 3.0
  endloop
endfacet
facet normal -0.504557807851624 -0.8633779117721069 0.0
  outer loop
    vertex 21.535070214321927 41.259111835523356 3.0
    vertex 20.724709690209938 41.88773726781014 0.0
    vertex 21.535070214321927 41.259111835523356 0.0
  endloop
endfacet
facet normal -0.7108240641471445 -0.7033698528010255 0.0
  outer loop
    vertex 20.724709690209938 41.88773726781014 0.0
    vertex 21.535070214321927 41.259111835523356 3.0
    vertex 20.724709690209938 41.88773726781014 3.0
  endloop
endfacet
facet normal -0.8686488351633463 -0.49542830073519345 0.0
  outer loop
    vertex 20.104661765476642 42.704679544957514 3.0
    vertex 20.724709690209938 41.88773726781014 0.0
    vertex 20.724709690209938 41.88773726781014 3.0
  endloop
endfacet
facet normal -0.7108240641471445 -0.7033698528010255 0.0
  outer loop
    vertex 20.724709690209938 41.88773726781014 0.0
    vertex 20.104661765476642 42.704679544957514 3.0
    vertex 20.104661765476642 42.704679544957514 0.0
  endloop
endfacet
endsolid Pinze
