solid 
 facet normal  0.000000e+00  0.000000e+00 -1.000000e+00
   outer loop
     vertex -3.500000e+01 -2.750000e+01  2.700000e+01
     vertex -3.600000e+01 -3.000000e+01  2.700000e+01
     vertex -3.750000e+01 -2.850000e+01  2.700000e+01
   endloop
 endfacet
 facet normal  0.000000e+00 -0.000000e+00 -1.000000e+00
   outer loop
     vertex -3.500000e+01 -2.625000e+01  2.700000e+01
     vertex -3.500000e+01 -2.750000e+01  2.700000e+01
     vertex -3.750000e+01 -2.850000e+01  2.700000e+01
   endloop
 endfacet
 facet normal  0.000000e+00 -0.000000e+00 -1.000000e+00
   outer loop
     vertex -3.500000e+01 -2.525000e+01  2.700000e+01
     vertex -3.500000e+01 -2.625000e+01  2.700000e+01
     vertex -3.750000e+01 -2.850000e+01  2.700000e+01
   endloop
 endfacet
 facet normal  0.000000e+00  0.000000e+00 -1.000000e+00
   outer loop
     vertex -3.750000e+01  1.250000e+01  2.700000e+01
     vertex -3.500000e+01 -2.525000e+01  2.700000e+01
     vertex -3.750000e+01 -2.850000e+01  2.700000e+01
   endloop
 endfacet
 facet normal -0.000000e+00 -0.000000e+00 -1.000000e+00
   outer loop
     vertex -3.550000e+01  1.250000e+01  2.700000e+01
     vertex -3.500000e+01 -2.525000e+01  2.700000e+01
     vertex -3.750000e+01  1.250000e+01  2.700000e+01
   endloop
 endfacet
 facet normal  0.000000e+00  0.000000e+00 -1.000000e+00
   outer loop
     vertex -3.500000e+01  2.525000e+01  2.700000e+01
     vertex -3.550000e+01  1.750000e+01  2.700000e+01
     vertex -3.750000e+01  1.750000e+01  2.700000e+01
   endloop
 endfacet
 facet normal  0.000000e+00  0.000000e+00 -1.000000e+00
   outer loop
     vertex -3.750000e+01  2.850000e+01  2.700000e+01
     vertex -3.500000e+01  2.525000e+01  2.700000e+01
     vertex -3.750000e+01  1.750000e+01  2.700000e+01
   endloop
 endfacet
 facet normal -0.000000e+00 -0.000000e+00 -1.000000e+00
   outer loop
     vertex -3.500000e+01  2.625000e+01  2.700000e+01
     vertex -3.500000e+01  2.525000e+01  2.700000e+01
     vertex -3.750000e+01  2.850000e+01  2.700000e+01
   endloop
 endfacet
 facet normal -0.000000e+00 -0.000000e+00 -1.000000e+00
   outer loop
     vertex -3.500000e+01  2.750000e+01  2.700000e+01
     vertex -3.500000e+01  2.625000e+01  2.700000e+01
     vertex -3.750000e+01  2.850000e+01  2.700000e+01
   endloop
 endfacet
 facet normal  0.000000e+00 -0.000000e+00 -1.000000e+00
   outer loop
     vertex -3.600000e+01  3.000000e+01  2.700000e+01
     vertex -3.500000e+01  2.750000e+01  2.700000e+01
     vertex -3.750000e+01  2.850000e+01  2.700000e+01
   endloop
 endfacet
 facet normal  0.000000e+00 -0.000000e+00 -1.000000e+00
   outer loop
     vertex  3.500000e+01 -2.750000e+01  2.700000e+01
     vertex  3.600000e+01 -3.000000e+01  2.700000e+01
     vertex -3.600000e+01 -3.000000e+01  2.700000e+01
   endloop
 endfacet
 facet normal -0.000000e+00  0.000000e+00 -1.000000e+00
   outer loop
     vertex  3.500000e+01 -2.750000e+01  2.700000e+01
     vertex -3.600000e+01 -3.000000e+01  2.700000e+01
     vertex -3.500000e+01 -2.750000e+01  2.700000e+01
   endloop
 endfacet
 facet normal  0.000000e+00  0.000000e+00 -1.000000e+00
   outer loop
     vertex  3.750000e+01 -2.850000e+01  2.700000e+01
     vertex  3.500000e+01 -2.750000e+01  2.700000e+01
     vertex  3.500000e+01 -2.625000e+01  2.700000e+01
   endloop
 endfacet
 facet normal -0.000000e+00  0.000000e+00 -1.000000e+00
   outer loop
     vertex  3.750000e+01 -2.850000e+01  2.700000e+01
     vertex  3.600000e+01 -3.000000e+01  2.700000e+01
     vertex  3.500000e+01 -2.750000e+01  2.700000e+01
   endloop
 endfacet
 facet normal  0.000000e+00  0.000000e+00 -1.000000e+00
   outer loop
     vertex  3.500000e+01 -2.525000e+01  2.700000e+01
     vertex -3.500000e+01 -2.525000e+01  2.700000e+01
     vertex -3.550000e+01  1.250000e+01  2.700000e+01
   endloop
 endfacet
 facet normal  0.000000e+00  0.000000e+00 -1.000000e+00
   outer loop
     vertex  3.500000e+01 -2.525000e+01  2.700000e+01
     vertex  3.750000e+01 -2.850000e+01  2.700000e+01
     vertex  3.500000e+01 -2.625000e+01  2.700000e+01
   endloop
 endfacet
 facet normal  0.000000e+00  0.000000e+00 -1.000000e+00
   outer loop
     vertex  3.500000e+01  2.525000e+01  2.700000e+01
     vertex -3.550000e+01  1.250000e+01  2.700000e+01
     vertex -3.550000e+01  1.750000e+01  2.700000e+01
   endloop
 endfacet
 facet normal -0.000000e+00  0.000000e+00 -1.000000e+00
   outer loop
     vertex  3.500000e+01  2.525000e+01  2.700000e+01
     vertex -3.550000e+01  1.750000e+01  2.700000e+01
     vertex -3.500000e+01  2.525000e+01  2.700000e+01
   endloop
 endfacet
 facet normal  0.000000e+00 -0.000000e+00 -1.000000e+00
   outer loop
     vertex  3.500000e+01  2.525000e+01  2.700000e+01
     vertex  3.500000e+01 -2.525000e+01  2.700000e+01
     vertex -3.550000e+01  1.250000e+01  2.700000e+01
   endloop
 endfacet
 facet normal  0.000000e+00  0.000000e+00 -1.000000e+00
   outer loop
     vertex  3.600000e+01  3.000000e+01  2.700000e+01
     vertex  3.500000e+01  2.750000e+01  2.700000e+01
     vertex -3.500000e+01  2.750000e+01  2.700000e+01
   endloop
 endfacet
 facet normal -0.000000e+00  0.000000e+00 -1.000000e+00
   outer loop
     vertex  3.600000e+01  3.000000e+01  2.700000e+01
     vertex -3.500000e+01  2.750000e+01  2.700000e+01
     vertex -3.600000e+01  3.000000e+01  2.700000e+01
   endloop
 endfacet
 facet normal  0.000000e+00  0.000000e+00 -1.000000e+00
   outer loop
     vertex  3.750000e+01  2.850000e+01  2.700000e+01
     vertex  3.500000e+01  2.525000e+01  2.700000e+01
     vertex  3.500000e+01  2.625000e+01  2.700000e+01
   endloop
 endfacet
 facet normal  0.000000e+00  0.000000e+00 -1.000000e+00
   outer loop
     vertex  3.750000e+01  2.850000e+01  2.700000e+01
     vertex  3.500000e+01  2.625000e+01  2.700000e+01
     vertex  3.500000e+01  2.750000e+01  2.700000e+01
   endloop
 endfacet
 facet normal -0.000000e+00  0.000000e+00 -1.000000e+00
   outer loop
     vertex  3.750000e+01  2.850000e+01  2.700000e+01
     vertex  3.500000e+01  2.750000e+01  2.700000e+01
     vertex  3.600000e+01  3.000000e+01  2.700000e+01
   endloop
 endfacet
 facet normal  0.000000e+00 -0.000000e+00 -1.000000e+00
   outer loop
     vertex  3.750000e+01  2.850000e+01  2.700000e+01
     vertex  3.750000e+01 -2.850000e+01  2.700000e+01
     vertex  3.500000e+01 -2.525000e+01  2.700000e+01
   endloop
 endfacet
 facet normal  0.000000e+00  0.000000e+00 -1.000000e+00
   outer loop
     vertex  3.750000e+01  2.850000e+01  2.700000e+01
     vertex  3.500000e+01 -2.525000e+01  2.700000e+01
     vertex  3.500000e+01  2.525000e+01  2.700000e+01
   endloop
 endfacet
 facet normal -1.000000e+00 -0.000000e+00  0.000000e+00
   outer loop
     vertex -3.500000e+01 -2.625000e+01  2.600000e+01
     vertex -3.500000e+01 -2.750000e+01  2.300000e+01
     vertex -3.500000e+01 -2.750000e+01  2.700000e+01
   endloop
 endfacet
 facet normal -1.000000e+00  0.000000e+00 -0.000000e+00
   outer loop
     vertex -3.500000e+01 -2.625000e+01  2.600000e+01
     vertex -3.500000e+01 -2.625000e+01  2.300000e+01
     vertex -3.500000e+01 -2.750000e+01  2.300000e+01
   endloop
 endfacet
 facet normal -1.000000e+00 -0.000000e+00 -0.000000e+00
   outer loop
     vertex -3.500000e+01 -2.625000e+01  2.700000e+01
     vertex -3.500000e+01 -2.625000e+01  2.600000e+01
     vertex -3.500000e+01 -2.750000e+01  2.700000e+01
   endloop
 endfacet
 facet normal -1.000000e+00 -0.000000e+00  0.000000e+00
   outer loop
     vertex -3.500000e+01 -2.525000e+01  2.700000e+01
     vertex -3.500000e+01 -2.625000e+01  2.600000e+01
     vertex -3.500000e+01 -2.625000e+01  2.700000e+01
   endloop
 endfacet
 facet normal  0.000000e+00  7.071068e-01 -7.071068e-01
   outer loop
     vertex  3.500000e+01 -2.525000e+01  2.700000e+01
     vertex -3.500000e+01 -2.625000e+01  2.600000e+01
     vertex -3.500000e+01 -2.525000e+01  2.700000e+01
   endloop
 endfacet
 facet normal  0.000000e+00  7.071068e-01 -7.071068e-01
   outer loop
     vertex  3.500000e+01 -2.625000e+01  2.600000e+01
     vertex -3.500000e+01 -2.625000e+01  2.600000e+01
     vertex  3.500000e+01 -2.525000e+01  2.700000e+01
   endloop
 endfacet
 facet normal  0.000000e+00 -1.000000e+00  0.000000e+00
   outer loop
     vertex  2.200000e+01 -2.750000e+01  2.475000e+01
     vertex  3.500000e+01 -2.750000e+01  2.300000e+01
     vertex  3.500000e+01 -2.750000e+01  2.700000e+01
   endloop
 endfacet
 facet normal  0.000000e+00 -1.000000e+00  0.000000e+00
   outer loop
     vertex  2.200000e+01 -2.750000e+01  2.475000e+01
     vertex  2.200000e+01 -2.750000e+01  2.375000e+01
     vertex  3.500000e+01 -2.750000e+01  2.300000e+01
   endloop
 endfacet
 facet normal  0.000000e+00 -1.000000e+00  0.000000e+00
   outer loop
     vertex  1.500000e+01 -2.750000e+01  2.375000e+01
     vertex  3.500000e+01 -2.750000e+01  2.300000e+01
     vertex  2.200000e+01 -2.750000e+01  2.375000e+01
   endloop
 endfacet
 facet normal  0.000000e+00 -1.000000e+00  0.000000e+00
   outer loop
     vertex -1.500000e+01 -2.750000e+01  2.475000e+01
     vertex  1.500000e+01 -2.750000e+01  2.375000e+01
     vertex  1.500000e+01 -2.750000e+01  2.475000e+01
   endloop
 endfacet
 facet normal  0.000000e+00 -1.000000e+00  0.000000e+00
   outer loop
     vertex -1.500000e+01 -2.750000e+01  2.475000e+01
     vertex -1.500000e+01 -2.750000e+01  2.375000e+01
     vertex  1.500000e+01 -2.750000e+01  2.375000e+01
   endloop
 endfacet
 facet normal  0.000000e+00 -1.000000e+00  0.000000e+00
   outer loop
     vertex -3.500000e+01 -2.750000e+01  2.300000e+01
     vertex -2.200000e+01 -2.750000e+01  2.375000e+01
     vertex -2.200000e+01 -2.750000e+01  2.475000e+01
   endloop
 endfacet
 facet normal  0.000000e+00 -1.000000e+00  0.000000e+00
   outer loop
     vertex -3.500000e+01 -2.750000e+01  2.300000e+01
     vertex -1.500000e+01 -2.750000e+01  2.375000e+01
     vertex -2.200000e+01 -2.750000e+01  2.375000e+01
   endloop
 endfacet
 facet normal  0.000000e+00 -1.000000e+00  0.000000e+00
   outer loop
     vertex -3.500000e+01 -2.750000e+01  2.300000e+01
     vertex  1.500000e+01 -2.750000e+01  2.375000e+01
     vertex -1.500000e+01 -2.750000e+01  2.375000e+01
   endloop
 endfacet
 facet normal  0.000000e+00 -1.000000e+00  0.000000e+00
   outer loop
     vertex -3.500000e+01 -2.750000e+01  2.300000e+01
     vertex  3.500000e+01 -2.750000e+01  2.300000e+01
     vertex  1.500000e+01 -2.750000e+01  2.375000e+01
   endloop
 endfacet
 facet normal  0.000000e+00 -1.000000e+00  0.000000e+00
   outer loop
     vertex -3.500000e+01 -2.750000e+01  2.700000e+01
     vertex -3.500000e+01 -2.750000e+01  2.300000e+01
     vertex -2.200000e+01 -2.750000e+01  2.475000e+01
   endloop
 endfacet
 facet normal  0.000000e+00 -1.000000e+00  0.000000e+00
   outer loop
     vertex -3.500000e+01 -2.750000e+01  2.700000e+01
     vertex  2.200000e+01 -2.750000e+01  2.475000e+01
     vertex  3.500000e+01 -2.750000e+01  2.700000e+01
   endloop
 endfacet
 facet normal  0.000000e+00 -1.000000e+00  0.000000e+00
   outer loop
     vertex -3.500000e+01 -2.750000e+01  2.700000e+01
     vertex  1.500000e+01 -2.750000e+01  2.475000e+01
     vertex  2.200000e+01 -2.750000e+01  2.475000e+01
   endloop
 endfacet
 facet normal  0.000000e+00 -1.000000e+00  0.000000e+00
   outer loop
     vertex -3.500000e+01 -2.750000e+01  2.700000e+01
     vertex -1.500000e+01 -2.750000e+01  2.475000e+01
     vertex  1.500000e+01 -2.750000e+01  2.475000e+01
   endloop
 endfacet
 facet normal  0.000000e+00 -1.000000e+00  0.000000e+00
   outer loop
     vertex -3.500000e+01 -2.750000e+01  2.700000e+01
     vertex -2.200000e+01 -2.750000e+01  2.475000e+01
     vertex -1.500000e+01 -2.750000e+01  2.475000e+01
   endloop
 endfacet
 facet normal  1.000000e+00  0.000000e+00  0.000000e+00
   outer loop
     vertex  3.500000e+01 -2.625000e+01  2.600000e+01
     vertex  3.500000e+01 -2.750000e+01  2.300000e+01
     vertex  3.500000e+01 -2.625000e+01  2.300000e+01
   endloop
 endfacet
 facet normal  1.000000e+00 -0.000000e+00  0.000000e+00
   outer loop
     vertex  3.500000e+01 -2.625000e+01  2.700000e+01
     vertex  3.500000e+01 -2.625000e+01  2.600000e+01
     vertex  3.500000e+01 -2.525000e+01  2.700000e+01
   endloop
 endfacet
 facet normal  1.000000e+00  0.000000e+00  0.000000e+00
   outer loop
     vertex  3.500000e+01 -2.750000e+01  2.700000e+01
     vertex  3.500000e+01 -2.750000e+01  2.300000e+01
     vertex  3.500000e+01 -2.625000e+01  2.600000e+01
   endloop
 endfacet
 facet normal  1.000000e+00 -0.000000e+00  0.000000e+00
   outer loop
     vertex  3.500000e+01 -2.750000e+01  2.700000e+01
     vertex  3.500000e+01 -2.625000e+01  2.600000e+01
     vertex  3.500000e+01 -2.625000e+01  2.700000e+01
   endloop
 endfacet
 facet normal  7.071068e-01  7.071068e-01  0.000000e+00
   outer loop
     vertex  3.750000e+01  2.850000e+01  2.900000e+01
     vertex  3.750000e+01  2.850000e+01  2.700000e+01
     vertex  3.600000e+01  3.000000e+01  2.700000e+01
   endloop
 endfacet
 facet normal  7.071068e-01  7.071068e-01  0.000000e+00
   outer loop
     vertex  3.750000e+01  2.850000e+01  2.900000e+01
     vertex  3.600000e+01  3.000000e+01  2.700000e+01
     vertex  3.600000e+01  3.000000e+01  2.900000e+01
   endloop
 endfacet
 facet normal  0.000000e+00  1.000000e+00  0.000000e+00
   outer loop
     vertex -3.600000e+01  3.000000e+01  2.700000e+01
     vertex  3.600000e+01  3.000000e+01  2.900000e+01
     vertex  3.600000e+01  3.000000e+01  2.700000e+01
   endloop
 endfacet
 facet normal  0.000000e+00  1.000000e+00  0.000000e+00
   outer loop
     vertex -3.600000e+01  3.000000e+01  2.700000e+01
     vertex -3.600000e+01  3.000000e+01  2.900000e+01
     vertex  3.600000e+01  3.000000e+01  2.900000e+01
   endloop
 endfacet
 facet normal  1.000000e+00  0.000000e+00  0.000000e+00
   outer loop
     vertex  3.750000e+01  2.850000e+01  2.700000e+01
     vertex  3.750000e+01 -2.850000e+01  2.900000e+01
     vertex  3.750000e+01 -2.850000e+01  2.700000e+01
   endloop
 endfacet
 facet normal  1.000000e+00  0.000000e+00 -0.000000e+00
   outer loop
     vertex  3.750000e+01  2.850000e+01  2.700000e+01
     vertex  3.750000e+01  2.850000e+01  2.900000e+01
     vertex  3.750000e+01 -2.850000e+01  2.900000e+01
   endloop
 endfacet
 facet normal -7.071068e-01  7.071068e-01  0.000000e+00
   outer loop
     vertex -3.750000e+01  2.850000e+01  2.900000e+01
     vertex -3.600000e+01  3.000000e+01  2.700000e+01
     vertex -3.750000e+01  2.850000e+01  2.700000e+01
   endloop
 endfacet
 facet normal -7.071068e-01  7.071068e-01  0.000000e+00
   outer loop
     vertex -3.750000e+01  2.850000e+01  2.900000e+01
     vertex -3.600000e+01  3.000000e+01  2.900000e+01
     vertex -3.600000e+01  3.000000e+01  2.700000e+01
   endloop
 endfacet
 facet normal  7.071068e-01 -7.071068e-01  0.000000e+00
   outer loop
     vertex  3.750000e+01 -2.850000e+01  2.900000e+01
     vertex  3.600000e+01 -3.000000e+01  2.700000e+01
     vertex  3.750000e+01 -2.850000e+01  2.700000e+01
   endloop
 endfacet
 facet normal  7.071068e-01 -7.071068e-01  0.000000e+00
   outer loop
     vertex  3.750000e+01 -2.850000e+01  2.900000e+01
     vertex  3.600000e+01 -3.000000e+01  2.900000e+01
     vertex  3.600000e+01 -3.000000e+01  2.700000e+01
   endloop
 endfacet
 facet normal -1.000000e+00  0.000000e+00  0.000000e+00
   outer loop
     vertex -3.750000e+01  1.750000e+01  2.700000e+01
     vertex -3.750000e+01  2.850000e+01  2.900000e+01
     vertex -3.750000e+01  2.850000e+01  2.700000e+01
   endloop
 endfacet
 facet normal -1.000000e+00  0.000000e+00  0.000000e+00
   outer loop
     vertex -3.750000e+01  1.250000e+01  2.700000e+01
     vertex -3.750000e+01  2.850000e+01  2.900000e+01
     vertex -3.750000e+01  1.750000e+01  2.700000e+01
   endloop
 endfacet
 facet normal -1.000000e+00  0.000000e+00  0.000000e+00
   outer loop
     vertex -3.750000e+01 -2.850000e+01  2.900000e+01
     vertex -3.750000e+01  2.850000e+01  2.900000e+01
     vertex -3.750000e+01  1.250000e+01  2.700000e+01
   endloop
 endfacet
 facet normal -1.000000e+00  0.000000e+00  0.000000e+00
   outer loop
     vertex -3.750000e+01 -2.850000e+01  2.700000e+01
     vertex -3.750000e+01 -2.850000e+01  2.900000e+01
     vertex -3.750000e+01  1.250000e+01  2.700000e+01
   endloop
 endfacet
 facet normal  0.000000e+00 -1.000000e+00  0.000000e+00
   outer loop
     vertex  3.600000e+01 -3.000000e+01  2.700000e+01
     vertex -3.600000e+01 -3.000000e+01  2.900000e+01
     vertex -3.600000e+01 -3.000000e+01  2.700000e+01
   endloop
 endfacet
 facet normal  0.000000e+00 -1.000000e+00  0.000000e+00
   outer loop
     vertex  3.600000e+01 -3.000000e+01  2.700000e+01
     vertex  3.600000e+01 -3.000000e+01  2.900000e+01
     vertex -3.600000e+01 -3.000000e+01  2.900000e+01
   endloop
 endfacet
 facet normal -0.000000e+00  1.000000e+00  0.000000e+00
   outer loop
     vertex -3.750000e+01  1.750000e+01  2.700000e+01
     vertex -3.550000e+01  1.750000e+01  2.700000e+01
     vertex -3.550000e+01  1.750000e+01  2.650000e+01
   endloop
 endfacet
 facet normal  0.000000e+00  1.000000e+00  0.000000e+00
   outer loop
     vertex -3.750000e+01  1.750000e+01  2.650000e+01
     vertex -3.750000e+01  1.750000e+01  2.700000e+01
     vertex -3.550000e+01  1.750000e+01  2.650000e+01
   endloop
 endfacet
 facet normal -7.071068e-01 -7.071068e-01 -0.000000e+00
   outer loop
     vertex -3.600000e+01 -3.000000e+01  2.900000e+01
     vertex -3.750000e+01 -2.850000e+01  2.700000e+01
     vertex -3.600000e+01 -3.000000e+01  2.700000e+01
   endloop
 endfacet
 facet normal -7.071068e-01 -7.071068e-01  0.000000e+00
   outer loop
     vertex -3.600000e+01 -3.000000e+01  2.900000e+01
     vertex -3.750000e+01 -2.850000e+01  2.900000e+01
     vertex -3.750000e+01 -2.850000e+01  2.700000e+01
   endloop
 endfacet
 facet normal  1.000000e+00  0.000000e+00  0.000000e+00
   outer loop
     vertex -3.550000e+01  1.250000e+01  2.650000e+01
     vertex -3.550000e+01  1.750000e+01  2.700000e+01
     vertex -3.550000e+01  1.250000e+01  2.700000e+01
   endloop
 endfacet
 facet normal  1.000000e+00  0.000000e+00  0.000000e+00
   outer loop
     vertex -3.550000e+01  1.250000e+01  2.650000e+01
     vertex -3.550000e+01  1.750000e+01  2.650000e+01
     vertex -3.550000e+01  1.750000e+01  2.700000e+01
   endloop
 endfacet
 facet normal  0.000000e+00 -1.000000e+00  0.000000e+00
   outer loop
     vertex -3.750000e+01  1.250000e+01  2.650000e+01
     vertex -3.550000e+01  1.250000e+01  2.650000e+01
     vertex -3.550000e+01  1.250000e+01  2.700000e+01
   endloop
 endfacet
 facet normal  0.000000e+00 -1.000000e+00  0.000000e+00
   outer loop
     vertex -3.750000e+01  1.250000e+01  2.700000e+01
     vertex -3.750000e+01  1.250000e+01  2.650000e+01
     vertex -3.550000e+01  1.250000e+01  2.700000e+01
   endloop
 endfacet
 facet normal  1.000000e+00 -0.000000e+00  0.000000e+00
   outer loop
     vertex  3.500000e+01  2.625000e+01  2.600000e+01
     vertex  3.500000e+01  2.750000e+01  2.300000e+01
     vertex  3.500000e+01  2.750000e+01  2.700000e+01
   endloop
 endfacet
 facet normal  1.000000e+00  0.000000e+00  0.000000e+00
   outer loop
     vertex  3.500000e+01  2.625000e+01  2.600000e+01
     vertex  3.500000e+01  2.625000e+01  2.300000e+01
     vertex  3.500000e+01  2.750000e+01  2.300000e+01
   endloop
 endfacet
 facet normal  1.000000e+00 -0.000000e+00  0.000000e+00
   outer loop
     vertex  3.500000e+01  2.625000e+01  2.700000e+01
     vertex  3.500000e+01  2.625000e+01  2.600000e+01
     vertex  3.500000e+01  2.750000e+01  2.700000e+01
   endloop
 endfacet
 facet normal  1.000000e+00 -0.000000e+00  0.000000e+00
   outer loop
     vertex  3.500000e+01  2.525000e+01  2.700000e+01
     vertex  3.500000e+01  2.625000e+01  2.600000e+01
     vertex  3.500000e+01  2.625000e+01  2.700000e+01
   endloop
 endfacet
 facet normal  0.000000e+00 -7.071068e-01 -7.071068e-01
   outer loop
     vertex -3.500000e+01  2.525000e+01  2.700000e+01
     vertex  3.500000e+01  2.625000e+01  2.600000e+01
     vertex  3.500000e+01  2.525000e+01  2.700000e+01
   endloop
 endfacet
 facet normal  0.000000e+00 -7.071068e-01 -7.071068e-01
   outer loop
     vertex -3.500000e+01  2.625000e+01  2.600000e+01
     vertex  3.500000e+01  2.625000e+01  2.600000e+01
     vertex -3.500000e+01  2.525000e+01  2.700000e+01
   endloop
 endfacet
 facet normal  0.000000e+00  1.000000e+00  0.000000e+00
   outer loop
     vertex -2.200000e+01  2.750000e+01  2.475000e+01
     vertex -3.500000e+01  2.750000e+01  2.300000e+01
     vertex -3.500000e+01  2.750000e+01  2.700000e+01
   endloop
 endfacet
 facet normal  0.000000e+00  1.000000e+00  0.000000e+00
   outer loop
     vertex -2.200000e+01  2.750000e+01  2.475000e+01
     vertex -2.200000e+01  2.750000e+01  2.375000e+01
     vertex -3.500000e+01  2.750000e+01  2.300000e+01
   endloop
 endfacet
 facet normal  0.000000e+00  1.000000e+00  0.000000e+00
   outer loop
     vertex -1.500000e+01  2.750000e+01  2.375000e+01
     vertex -3.500000e+01  2.750000e+01  2.300000e+01
     vertex -2.200000e+01  2.750000e+01  2.375000e+01
   endloop
 endfacet
 facet normal  0.000000e+00  1.000000e+00  0.000000e+00
   outer loop
     vertex  1.500000e+01  2.750000e+01  2.475000e+01
     vertex -1.500000e+01  2.750000e+01  2.375000e+01
     vertex -1.500000e+01  2.750000e+01  2.475000e+01
   endloop
 endfacet
 facet normal  0.000000e+00  1.000000e+00  0.000000e+00
   outer loop
     vertex  1.500000e+01  2.750000e+01  2.475000e+01
     vertex  1.500000e+01  2.750000e+01  2.375000e+01
     vertex -1.500000e+01  2.750000e+01  2.375000e+01
   endloop
 endfacet
 facet normal  0.000000e+00  1.000000e+00  0.000000e+00
   outer loop
     vertex  3.500000e+01  2.750000e+01  2.300000e+01
     vertex  2.200000e+01  2.750000e+01  2.375000e+01
     vertex  2.200000e+01  2.750000e+01  2.475000e+01
   endloop
 endfacet
 facet normal  0.000000e+00  1.000000e+00  0.000000e+00
   outer loop
     vertex  3.500000e+01  2.750000e+01  2.300000e+01
     vertex  1.500000e+01  2.750000e+01  2.375000e+01
     vertex  2.200000e+01  2.750000e+01  2.375000e+01
   endloop
 endfacet
 facet normal  0.000000e+00  1.000000e+00  0.000000e+00
   outer loop
     vertex  3.500000e+01  2.750000e+01  2.300000e+01
     vertex -1.500000e+01  2.750000e+01  2.375000e+01
     vertex  1.500000e+01  2.750000e+01  2.375000e+01
   endloop
 endfacet
 facet normal  0.000000e+00  1.000000e+00  0.000000e+00
   outer loop
     vertex  3.500000e+01  2.750000e+01  2.300000e+01
     vertex -3.500000e+01  2.750000e+01  2.300000e+01
     vertex -1.500000e+01  2.750000e+01  2.375000e+01
   endloop
 endfacet
 facet normal  0.000000e+00  1.000000e+00  0.000000e+00
   outer loop
     vertex  3.500000e+01  2.750000e+01  2.700000e+01
     vertex  3.500000e+01  2.750000e+01  2.300000e+01
     vertex  2.200000e+01  2.750000e+01  2.475000e+01
   endloop
 endfacet
 facet normal  0.000000e+00  1.000000e+00  0.000000e+00
   outer loop
     vertex  3.500000e+01  2.750000e+01  2.700000e+01
     vertex -2.200000e+01  2.750000e+01  2.475000e+01
     vertex -3.500000e+01  2.750000e+01  2.700000e+01
   endloop
 endfacet
 facet normal  0.000000e+00  1.000000e+00  0.000000e+00
   outer loop
     vertex  3.500000e+01  2.750000e+01  2.700000e+01
     vertex -1.500000e+01  2.750000e+01  2.475000e+01
     vertex -2.200000e+01  2.750000e+01  2.475000e+01
   endloop
 endfacet
 facet normal  0.000000e+00  1.000000e+00  0.000000e+00
   outer loop
     vertex  3.500000e+01  2.750000e+01  2.700000e+01
     vertex  1.500000e+01  2.750000e+01  2.475000e+01
     vertex -1.500000e+01  2.750000e+01  2.475000e+01
   endloop
 endfacet
 facet normal  0.000000e+00  1.000000e+00  0.000000e+00
   outer loop
     vertex  3.500000e+01  2.750000e+01  2.700000e+01
     vertex  2.200000e+01  2.750000e+01  2.475000e+01
     vertex  1.500000e+01  2.750000e+01  2.475000e+01
   endloop
 endfacet
 facet normal -1.000000e+00  0.000000e+00  0.000000e+00
   outer loop
     vertex -3.500000e+01  2.625000e+01  2.600000e+01
     vertex -3.500000e+01  2.750000e+01  2.300000e+01
     vertex -3.500000e+01  2.625000e+01  2.300000e+01
   endloop
 endfacet
 facet normal -1.000000e+00 -0.000000e+00 -0.000000e+00
   outer loop
     vertex -3.500000e+01  2.625000e+01  2.700000e+01
     vertex -3.500000e+01  2.625000e+01  2.600000e+01
     vertex -3.500000e+01  2.525000e+01  2.700000e+01
   endloop
 endfacet
 facet normal -1.000000e+00  0.000000e+00 -0.000000e+00
   outer loop
     vertex -3.500000e+01  2.750000e+01  2.700000e+01
     vertex -3.500000e+01  2.750000e+01  2.300000e+01
     vertex -3.500000e+01  2.625000e+01  2.600000e+01
   endloop
 endfacet
 facet normal -1.000000e+00 -0.000000e+00  0.000000e+00
   outer loop
     vertex -3.500000e+01  2.750000e+01  2.700000e+01
     vertex -3.500000e+01  2.625000e+01  2.600000e+01
     vertex -3.500000e+01  2.625000e+01  2.700000e+01
   endloop
 endfacet
 facet normal  0.000000e+00  1.000000e+00  0.000000e+00
   outer loop
     vertex  3.500000e+01 -2.625000e+01  2.600000e+01
     vertex -3.500000e+01 -2.625000e+01  2.300000e+01
     vertex -3.500000e+01 -2.625000e+01  2.600000e+01
   endloop
 endfacet
 facet normal  0.000000e+00  1.000000e+00  0.000000e+00
   outer loop
     vertex  3.500000e+01 -2.625000e+01  2.600000e+01
     vertex  3.500000e+01 -2.625000e+01  2.300000e+01
     vertex -3.500000e+01 -2.625000e+01  2.300000e+01
   endloop
 endfacet
 facet normal  0.000000e+00  0.000000e+00 -1.000000e+00
   outer loop
     vertex -3.500000e+01 -2.625000e+01  2.300000e+01
     vertex  3.500000e+01 -2.625000e+01  2.300000e+01
     vertex  3.500000e+01 -2.750000e+01  2.300000e+01
   endloop
 endfacet
 facet normal  0.000000e+00  0.000000e+00 -1.000000e+00
   outer loop
     vertex -3.500000e+01 -2.625000e+01  2.300000e+01
     vertex  3.500000e+01 -2.750000e+01  2.300000e+01
     vertex -3.500000e+01 -2.750000e+01  2.300000e+01
   endloop
 endfacet
 facet normal  1.000000e+00  0.000000e+00  0.000000e+00
   outer loop
     vertex  2.200000e+01 -2.750000e+01  2.475000e+01
     vertex  2.200000e+01 -2.925000e+01  2.375000e+01
     vertex  2.200000e+01 -2.750000e+01  2.375000e+01
   endloop
 endfacet
 facet normal  1.000000e+00  0.000000e+00  0.000000e+00
   outer loop
     vertex  2.200000e+01 -2.750000e+01  2.475000e+01
     vertex  2.200000e+01 -2.925000e+01  2.475000e+01
     vertex  2.200000e+01 -2.925000e+01  2.375000e+01
   endloop
 endfacet
 facet normal -0.000000e+00  0.000000e+00 -1.000000e+00
   outer loop
     vertex  2.200000e+01 -2.750000e+01  2.375000e+01
     vertex  1.500000e+01 -2.925000e+01  2.375000e+01
     vertex  1.500000e+01 -2.750000e+01  2.375000e+01
   endloop
 endfacet
 facet normal  0.000000e+00 -0.000000e+00 -1.000000e+00
   outer loop
     vertex  2.200000e+01 -2.750000e+01  2.375000e+01
     vertex  2.200000e+01 -2.925000e+01  2.375000e+01
     vertex  1.500000e+01 -2.925000e+01  2.375000e+01
   endloop
 endfacet
 facet normal -1.000000e+00  0.000000e+00  0.000000e+00
   outer loop
     vertex  1.500000e+01 -2.750000e+01  2.375000e+01
     vertex  1.500000e+01 -2.925000e+01  2.475000e+01
     vertex  1.500000e+01 -2.750000e+01  2.475000e+01
   endloop
 endfacet
 facet normal -1.000000e+00  0.000000e+00  0.000000e+00
   outer loop
     vertex  1.500000e+01 -2.750000e+01  2.375000e+01
     vertex  1.500000e+01 -2.925000e+01  2.375000e+01
     vertex  1.500000e+01 -2.925000e+01  2.475000e+01
   endloop
 endfacet
 facet normal -0.000000e+00  0.000000e+00  1.000000e+00
   outer loop
     vertex  1.500000e+01 -2.750000e+01  2.475000e+01
     vertex  2.200000e+01 -2.925000e+01  2.475000e+01
     vertex  2.200000e+01 -2.750000e+01  2.475000e+01
   endloop
 endfacet
 facet normal  0.000000e+00  0.000000e+00  1.000000e+00
   outer loop
     vertex  1.500000e+01 -2.750000e+01  2.475000e+01
     vertex  1.500000e+01 -2.925000e+01  2.475000e+01
     vertex  2.200000e+01 -2.925000e+01  2.475000e+01
   endloop
 endfacet
 facet normal -0.000000e+00  0.000000e+00  1.000000e+00
   outer loop
     vertex -2.200000e+01 -2.750000e+01  2.475000e+01
     vertex -1.500000e+01 -2.925000e+01  2.475000e+01
     vertex -1.500000e+01 -2.750000e+01  2.475000e+01
   endloop
 endfacet
 facet normal  0.000000e+00  0.000000e+00  1.000000e+00
   outer loop
     vertex -2.200000e+01 -2.750000e+01  2.475000e+01
     vertex -2.200000e+01 -2.925000e+01  2.475000e+01
     vertex -1.500000e+01 -2.925000e+01  2.475000e+01
   endloop
 endfacet
 facet normal  1.000000e+00  0.000000e+00  0.000000e+00
   outer loop
     vertex -1.500000e+01 -2.750000e+01  2.475000e+01
     vertex -1.500000e+01 -2.925000e+01  2.375000e+01
     vertex -1.500000e+01 -2.750000e+01  2.375000e+01
   endloop
 endfacet
 facet normal  1.000000e+00  0.000000e+00  0.000000e+00
   outer loop
     vertex -1.500000e+01 -2.750000e+01  2.475000e+01
     vertex -1.500000e+01 -2.925000e+01  2.475000e+01
     vertex -1.500000e+01 -2.925000e+01  2.375000e+01
   endloop
 endfacet
 facet normal -0.000000e+00  0.000000e+00 -1.000000e+00
   outer loop
     vertex -1.500000e+01 -2.750000e+01  2.375000e+01
     vertex -2.200000e+01 -2.925000e+01  2.375000e+01
     vertex -2.200000e+01 -2.750000e+01  2.375000e+01
   endloop
 endfacet
 facet normal  0.000000e+00 -0.000000e+00 -1.000000e+00
   outer loop
     vertex -1.500000e+01 -2.750000e+01  2.375000e+01
     vertex -1.500000e+01 -2.925000e+01  2.375000e+01
     vertex -2.200000e+01 -2.925000e+01  2.375000e+01
   endloop
 endfacet
 facet normal -1.000000e+00  0.000000e+00  0.000000e+00
   outer loop
     vertex -2.200000e+01 -2.750000e+01  2.375000e+01
     vertex -2.200000e+01 -2.925000e+01  2.475000e+01
     vertex -2.200000e+01 -2.750000e+01  2.475000e+01
   endloop
 endfacet
 facet normal -1.000000e+00  0.000000e+00  0.000000e+00
   outer loop
     vertex -2.200000e+01 -2.750000e+01  2.375000e+01
     vertex -2.200000e+01 -2.925000e+01  2.375000e+01
     vertex -2.200000e+01 -2.925000e+01  2.475000e+01
   endloop
 endfacet
 facet normal  0.000000e+00  0.000000e+00  1.000000e+00
   outer loop
     vertex -3.600000e+01  3.000000e+01  2.900000e+01
     vertex -3.750000e+01  2.850000e+01  2.900000e+01
     vertex -3.750000e+01 -2.850000e+01  2.900000e+01
   endloop
 endfacet
 facet normal  0.000000e+00  0.000000e+00  1.000000e+00
   outer loop
     vertex -3.600000e+01  3.000000e+01  2.900000e+01
     vertex -3.750000e+01 -2.850000e+01  2.900000e+01
     vertex -3.600000e+01 -3.000000e+01  2.900000e+01
   endloop
 endfacet
 facet normal  0.000000e+00  0.000000e+00  1.000000e+00
   outer loop
     vertex  3.600000e+01 -3.000000e+01  2.900000e+01
     vertex -3.600000e+01  3.000000e+01  2.900000e+01
     vertex -3.600000e+01 -3.000000e+01  2.900000e+01
   endloop
 endfacet
 facet normal  0.000000e+00  0.000000e+00  1.000000e+00
   outer loop
     vertex  3.600000e+01  3.000000e+01  2.900000e+01
     vertex -3.600000e+01  3.000000e+01  2.900000e+01
     vertex  3.600000e+01 -3.000000e+01  2.900000e+01
   endloop
 endfacet
 facet normal  0.000000e+00  0.000000e+00  1.000000e+00
   outer loop
     vertex  3.750000e+01  2.850000e+01  2.900000e+01
     vertex  3.600000e+01 -3.000000e+01  2.900000e+01
     vertex  3.750000e+01 -2.850000e+01  2.900000e+01
   endloop
 endfacet
 facet normal  0.000000e+00  0.000000e+00  1.000000e+00
   outer loop
     vertex  3.750000e+01  2.850000e+01  2.900000e+01
     vertex  3.600000e+01  3.000000e+01  2.900000e+01
     vertex  3.600000e+01 -3.000000e+01  2.900000e+01
   endloop
 endfacet
 facet normal -1.000000e+00  0.000000e+00  0.000000e+00
   outer loop
     vertex -3.750000e+01  1.250000e+01  2.650000e+01
     vertex -3.750000e+01  1.250000e+01  2.700000e+01
     vertex -3.750000e+01  1.750000e+01  2.700000e+01
   endloop
 endfacet
 facet normal -1.000000e+00  0.000000e+00  0.000000e+00
   outer loop
     vertex -3.750000e+01  1.250000e+01  2.650000e+01
     vertex -3.750000e+01  1.750000e+01  2.700000e+01
     vertex -3.750000e+01  1.750000e+01  2.650000e+01
   endloop
 endfacet
 facet normal  0.000000e+00  0.000000e+00 -1.000000e+00
   outer loop
     vertex -3.750000e+01  1.250000e+01  2.650000e+01
     vertex -3.750000e+01  1.750000e+01  2.650000e+01
     vertex -3.550000e+01  1.750000e+01  2.650000e+01
   endloop
 endfacet
 facet normal  0.000000e+00  0.000000e+00 -1.000000e+00
   outer loop
     vertex -3.750000e+01  1.250000e+01  2.650000e+01
     vertex -3.550000e+01  1.750000e+01  2.650000e+01
     vertex -3.550000e+01  1.250000e+01  2.650000e+01
   endloop
 endfacet
 facet normal  0.000000e+00 -1.000000e+00  0.000000e+00
   outer loop
     vertex -3.500000e+01  2.625000e+01  2.600000e+01
     vertex  3.500000e+01  2.625000e+01  2.300000e+01
     vertex  3.500000e+01  2.625000e+01  2.600000e+01
   endloop
 endfacet
 facet normal  0.000000e+00 -1.000000e+00  0.000000e+00
   outer loop
     vertex -3.500000e+01  2.625000e+01  2.600000e+01
     vertex -3.500000e+01  2.625000e+01  2.300000e+01
     vertex  3.500000e+01  2.625000e+01  2.300000e+01
   endloop
 endfacet
 facet normal  0.000000e+00  0.000000e+00 -1.000000e+00
   outer loop
     vertex -3.500000e+01  2.750000e+01  2.300000e+01
     vertex  3.500000e+01  2.750000e+01  2.300000e+01
     vertex  3.500000e+01  2.625000e+01  2.300000e+01
   endloop
 endfacet
 facet normal  0.000000e+00  0.000000e+00 -1.000000e+00
   outer loop
     vertex -3.500000e+01  2.750000e+01  2.300000e+01
     vertex  3.500000e+01  2.625000e+01  2.300000e+01
     vertex -3.500000e+01  2.625000e+01  2.300000e+01
   endloop
 endfacet
 facet normal  1.000000e+00  0.000000e+00  0.000000e+00
   outer loop
     vertex -1.500000e+01  2.750000e+01  2.375000e+01
     vertex -1.500000e+01  2.925000e+01  2.475000e+01
     vertex -1.500000e+01  2.750000e+01  2.475000e+01
   endloop
 endfacet
 facet normal  1.000000e+00  0.000000e+00  0.000000e+00
   outer loop
     vertex -1.500000e+01  2.750000e+01  2.375000e+01
     vertex -1.500000e+01  2.925000e+01  2.375000e+01
     vertex -1.500000e+01  2.925000e+01  2.475000e+01
   endloop
 endfacet
 facet normal  0.000000e+00  0.000000e+00  1.000000e+00
   outer loop
     vertex -1.500000e+01  2.750000e+01  2.475000e+01
     vertex -2.200000e+01  2.925000e+01  2.475000e+01
     vertex -2.200000e+01  2.750000e+01  2.475000e+01
   endloop
 endfacet
 facet normal  0.000000e+00 -0.000000e+00  1.000000e+00
   outer loop
     vertex -1.500000e+01  2.750000e+01  2.475000e+01
     vertex -1.500000e+01  2.925000e+01  2.475000e+01
     vertex -2.200000e+01  2.925000e+01  2.475000e+01
   endloop
 endfacet
 facet normal -1.000000e+00  0.000000e+00  0.000000e+00
   outer loop
     vertex -2.200000e+01  2.750000e+01  2.475000e+01
     vertex -2.200000e+01  2.925000e+01  2.375000e+01
     vertex -2.200000e+01  2.750000e+01  2.375000e+01
   endloop
 endfacet
 facet normal -1.000000e+00  0.000000e+00  0.000000e+00
   outer loop
     vertex -2.200000e+01  2.750000e+01  2.475000e+01
     vertex -2.200000e+01  2.925000e+01  2.475000e+01
     vertex -2.200000e+01  2.925000e+01  2.375000e+01
   endloop
 endfacet
 facet normal  0.000000e+00  0.000000e+00 -1.000000e+00
   outer loop
     vertex -2.200000e+01  2.750000e+01  2.375000e+01
     vertex -1.500000e+01  2.925000e+01  2.375000e+01
     vertex -1.500000e+01  2.750000e+01  2.375000e+01
   endloop
 endfacet
 facet normal  0.000000e+00  0.000000e+00 -1.000000e+00
   outer loop
     vertex -2.200000e+01  2.750000e+01  2.375000e+01
     vertex -2.200000e+01  2.925000e+01  2.375000e+01
     vertex -1.500000e+01  2.925000e+01  2.375000e+01
   endloop
 endfacet
 facet normal -1.000000e+00  0.000000e+00  0.000000e+00
   outer loop
     vertex  1.500000e+01  2.750000e+01  2.475000e+01
     vertex  1.500000e+01  2.925000e+01  2.375000e+01
     vertex  1.500000e+01  2.750000e+01  2.375000e+01
   endloop
 endfacet
 facet normal -1.000000e+00  0.000000e+00  0.000000e+00
   outer loop
     vertex  1.500000e+01  2.750000e+01  2.475000e+01
     vertex  1.500000e+01  2.925000e+01  2.475000e+01
     vertex  1.500000e+01  2.925000e+01  2.375000e+01
   endloop
 endfacet
 facet normal  0.000000e+00  0.000000e+00 -1.000000e+00
   outer loop
     vertex  1.500000e+01  2.750000e+01  2.375000e+01
     vertex  2.200000e+01  2.925000e+01  2.375000e+01
     vertex  2.200000e+01  2.750000e+01  2.375000e+01
   endloop
 endfacet
 facet normal  0.000000e+00  0.000000e+00 -1.000000e+00
   outer loop
     vertex  1.500000e+01  2.750000e+01  2.375000e+01
     vertex  1.500000e+01  2.925000e+01  2.375000e+01
     vertex  2.200000e+01  2.925000e+01  2.375000e+01
   endloop
 endfacet
 facet normal  1.000000e+00  0.000000e+00  0.000000e+00
   outer loop
     vertex  2.200000e+01  2.750000e+01  2.375000e+01
     vertex  2.200000e+01  2.925000e+01  2.475000e+01
     vertex  2.200000e+01  2.750000e+01  2.475000e+01
   endloop
 endfacet
 facet normal  1.000000e+00  0.000000e+00  0.000000e+00
   outer loop
     vertex  2.200000e+01  2.750000e+01  2.375000e+01
     vertex  2.200000e+01  2.925000e+01  2.375000e+01
     vertex  2.200000e+01  2.925000e+01  2.475000e+01
   endloop
 endfacet
 facet normal  0.000000e+00  0.000000e+00  1.000000e+00
   outer loop
     vertex  2.200000e+01  2.750000e+01  2.475000e+01
     vertex  1.500000e+01  2.925000e+01  2.475000e+01
     vertex  1.500000e+01  2.750000e+01  2.475000e+01
   endloop
 endfacet
 facet normal  0.000000e+00 -0.000000e+00  1.000000e+00
   outer loop
     vertex  2.200000e+01  2.750000e+01  2.475000e+01
     vertex  2.200000e+01  2.925000e+01  2.475000e+01
     vertex  1.500000e+01  2.925000e+01  2.475000e+01
   endloop
 endfacet
 facet normal  0.000000e+00 -1.000000e+00  0.000000e+00
   outer loop
     vertex  2.200000e+01 -2.925000e+01  2.375000e+01
     vertex  2.200000e+01 -2.925000e+01  2.475000e+01
     vertex  1.500000e+01 -2.925000e+01  2.475000e+01
   endloop
 endfacet
 facet normal  0.000000e+00 -1.000000e+00  0.000000e+00
   outer loop
     vertex  2.200000e+01 -2.925000e+01  2.375000e+01
     vertex  1.500000e+01 -2.925000e+01  2.475000e+01
     vertex  1.500000e+01 -2.925000e+01  2.375000e+01
   endloop
 endfacet
 facet normal  0.000000e+00 -1.000000e+00  0.000000e+00
   outer loop
     vertex -1.500000e+01 -2.925000e+01  2.375000e+01
     vertex -2.200000e+01 -2.925000e+01  2.475000e+01
     vertex -2.200000e+01 -2.925000e+01  2.375000e+01
   endloop
 endfacet
 facet normal  0.000000e+00 -1.000000e+00  0.000000e+00
   outer loop
     vertex -1.500000e+01 -2.925000e+01  2.375000e+01
     vertex -1.500000e+01 -2.925000e+01  2.475000e+01
     vertex -2.200000e+01 -2.925000e+01  2.475000e+01
   endloop
 endfacet
 facet normal  0.000000e+00  1.000000e+00  0.000000e+00
   outer loop
     vertex -1.500000e+01  2.925000e+01  2.475000e+01
     vertex -1.500000e+01  2.925000e+01  2.375000e+01
     vertex -2.200000e+01  2.925000e+01  2.375000e+01
   endloop
 endfacet
 facet normal  0.000000e+00  1.000000e+00  0.000000e+00
   outer loop
     vertex -1.500000e+01  2.925000e+01  2.475000e+01
     vertex -2.200000e+01  2.925000e+01  2.375000e+01
     vertex -2.200000e+01  2.925000e+01  2.475000e+01
   endloop
 endfacet
 facet normal  0.000000e+00  1.000000e+00  0.000000e+00
   outer loop
     vertex  2.200000e+01  2.925000e+01  2.475000e+01
     vertex  2.200000e+01  2.925000e+01  2.375000e+01
     vertex  1.500000e+01  2.925000e+01  2.375000e+01
   endloop
 endfacet
 facet normal  0.000000e+00  1.000000e+00  0.000000e+00
   outer loop
     vertex  2.200000e+01  2.925000e+01  2.475000e+01
     vertex  1.500000e+01  2.925000e+01  2.375000e+01
     vertex  1.500000e+01  2.925000e+01  2.475000e+01
   endloop
 endfacet
endsolid
