solid 
 facet normal -1.000000e+00  0.000000e+00  0.000000e+00
   outer loop
     vertex -3.750000e+01  1.800000e+01  2.500000e+01
     vertex -3.750000e+01  1.800000e+01  2.700000e+01
     vertex -3.750000e+01  2.850000e+01  2.700000e+01
   endloop
 endfacet
 facet normal -1.000000e+00  0.000000e+00  0.000000e+00
   outer loop
     vertex -3.750000e+01  1.799803e+01  2.493721e+01
     vertex -3.750000e+01  1.800000e+01  2.500000e+01
     vertex -3.750000e+01  2.850000e+01  2.700000e+01
   endloop
 endfacet
 facet normal -1.000000e+00  0.000000e+00  0.000000e+00
   outer loop
     vertex -3.750000e+01  1.799211e+01  2.487467e+01
     vertex -3.750000e+01  1.799803e+01  2.493721e+01
     vertex -3.750000e+01  2.850000e+01  2.700000e+01
   endloop
 endfacet
 facet normal -1.000000e+00  0.000000e+00  0.000000e+00
   outer loop
     vertex -3.750000e+01  1.798229e+01  2.481262e+01
     vertex -3.750000e+01  1.799211e+01  2.487467e+01
     vertex -3.750000e+01  2.850000e+01  2.700000e+01
   endloop
 endfacet
 facet normal -1.000000e+00  0.000000e+00  0.000000e+00
   outer loop
     vertex -3.750000e+01  1.796858e+01  2.475131e+01
     vertex -3.750000e+01  1.798229e+01  2.481262e+01
     vertex -3.750000e+01  2.850000e+01  2.700000e+01
   endloop
 endfacet
 facet normal -1.000000e+00  0.000000e+00  0.000000e+00
   outer loop
     vertex -3.750000e+01  1.795106e+01  2.469098e+01
     vertex -3.750000e+01  1.796858e+01  2.475131e+01
     vertex -3.750000e+01  2.850000e+01  2.700000e+01
   endloop
 endfacet
 facet normal -1.000000e+00  0.000000e+00  0.000000e+00
   outer loop
     vertex -3.750000e+01  1.792978e+01  2.463188e+01
     vertex -3.750000e+01  1.795106e+01  2.469098e+01
     vertex -3.750000e+01  2.850000e+01  2.700000e+01
   endloop
 endfacet
 facet normal -1.000000e+00  0.000000e+00  0.000000e+00
   outer loop
     vertex -3.750000e+01  1.790483e+01  2.457422e+01
     vertex -3.750000e+01  1.792978e+01  2.463188e+01
     vertex -3.750000e+01  2.850000e+01  2.700000e+01
   endloop
 endfacet
 facet normal -1.000000e+00  0.000000e+00  0.000000e+00
   outer loop
     vertex -3.750000e+01  1.787631e+01  2.451825e+01
     vertex -3.750000e+01  1.790483e+01  2.457422e+01
     vertex -3.750000e+01  2.850000e+01  2.700000e+01
   endloop
 endfacet
 facet normal -1.000000e+00  0.000000e+00  0.000000e+00
   outer loop
     vertex -3.750000e+01  1.784433e+01  2.446417e+01
     vertex -3.750000e+01  1.787631e+01  2.451825e+01
     vertex -3.750000e+01  2.850000e+01  2.700000e+01
   endloop
 endfacet
 facet normal -1.000000e+00  0.000000e+00  0.000000e+00
   outer loop
     vertex -3.750000e+01  1.780902e+01  2.441221e+01
     vertex -3.750000e+01  1.784433e+01  2.446417e+01
     vertex -3.750000e+01  2.850000e+01  2.700000e+01
   endloop
 endfacet
 facet normal -1.000000e+00  0.000000e+00  0.000000e+00
   outer loop
     vertex -3.750000e+01  1.777051e+01  2.436258e+01
     vertex -3.750000e+01  1.780902e+01  2.441221e+01
     vertex -3.750000e+01  2.850000e+01  2.700000e+01
   endloop
 endfacet
 facet normal -1.000000e+00  0.000000e+00  0.000000e+00
   outer loop
     vertex -3.750000e+01  1.772897e+01  2.431545e+01
     vertex -3.750000e+01  1.777051e+01  2.436258e+01
     vertex -3.750000e+01  2.850000e+01  2.700000e+01
   endloop
 endfacet
 facet normal -1.000000e+00  0.000000e+00  0.000000e+00
   outer loop
     vertex -3.750000e+01  1.768455e+01  2.427103e+01
     vertex -3.750000e+01  1.772897e+01  2.431545e+01
     vertex -3.750000e+01  2.850000e+01  2.700000e+01
   endloop
 endfacet
 facet normal -1.000000e+00  0.000000e+00  0.000000e+00
   outer loop
     vertex -3.750000e+01  1.763742e+01  2.422949e+01
     vertex -3.750000e+01  1.768455e+01  2.427103e+01
     vertex -3.750000e+01  2.850000e+01  2.700000e+01
   endloop
 endfacet
 facet normal -1.000000e+00  0.000000e+00  0.000000e+00
   outer loop
     vertex -3.750000e+01  2.850000e+01 -3.919261e-199
     vertex -3.750000e+01  1.758779e+01  2.419098e+01
     vertex -3.750000e+01  1.763742e+01  2.422949e+01
   endloop
 endfacet
 facet normal -1.000000e+00  0.000000e+00  0.000000e+00
   outer loop
     vertex -3.750000e+01  2.850000e+01 -3.919261e-199
     vertex -3.750000e+01  1.753583e+01  2.415567e+01
     vertex -3.750000e+01  1.758779e+01  2.419098e+01
   endloop
 endfacet
 facet normal -1.000000e+00  0.000000e+00  0.000000e+00
   outer loop
     vertex -3.750000e+01  2.850000e+01 -3.919261e-199
     vertex -3.750000e+01  1.748175e+01  2.412369e+01
     vertex -3.750000e+01  1.753583e+01  2.415567e+01
   endloop
 endfacet
 facet normal -1.000000e+00  0.000000e+00  0.000000e+00
   outer loop
     vertex -3.750000e+01  2.850000e+01 -3.919261e-199
     vertex -3.750000e+01  1.742578e+01  2.409517e+01
     vertex -3.750000e+01  1.748175e+01  2.412369e+01
   endloop
 endfacet
 facet normal -1.000000e+00  0.000000e+00  0.000000e+00
   outer loop
     vertex -3.750000e+01  2.850000e+01 -3.919261e-199
     vertex -3.750000e+01  1.736812e+01  2.407022e+01
     vertex -3.750000e+01  1.742578e+01  2.409517e+01
   endloop
 endfacet
 facet normal -1.000000e+00  0.000000e+00  0.000000e+00
   outer loop
     vertex -3.750000e+01  2.850000e+01 -3.919261e-199
     vertex -3.750000e+01  1.730902e+01  2.404894e+01
     vertex -3.750000e+01  1.736812e+01  2.407022e+01
   endloop
 endfacet
 facet normal -1.000000e+00  0.000000e+00  0.000000e+00
   outer loop
     vertex -3.750000e+01  2.850000e+01 -3.919261e-199
     vertex -3.750000e+01  1.724869e+01  2.403142e+01
     vertex -3.750000e+01  1.730902e+01  2.404894e+01
   endloop
 endfacet
 facet normal -1.000000e+00  0.000000e+00  0.000000e+00
   outer loop
     vertex -3.750000e+01  2.850000e+01 -3.919261e-199
     vertex -3.750000e+01  1.718738e+01  2.401771e+01
     vertex -3.750000e+01  1.724869e+01  2.403142e+01
   endloop
 endfacet
 facet normal -1.000000e+00  0.000000e+00  0.000000e+00
   outer loop
     vertex -3.750000e+01  2.850000e+01 -3.919261e-199
     vertex -3.750000e+01  1.712533e+01  2.400789e+01
     vertex -3.750000e+01  1.718738e+01  2.401771e+01
   endloop
 endfacet
 facet normal -1.000000e+00  0.000000e+00  0.000000e+00
   outer loop
     vertex -3.750000e+01  2.850000e+01 -3.919261e-199
     vertex -3.750000e+01  1.706279e+01  2.400197e+01
     vertex -3.750000e+01  1.712533e+01  2.400789e+01
   endloop
 endfacet
 facet normal -1.000000e+00  0.000000e+00  0.000000e+00
   outer loop
     vertex -3.750000e+01  2.850000e+01 -3.919261e-199
     vertex -3.750000e+01  1.700000e+01  2.400000e+01
     vertex -3.750000e+01  1.706279e+01  2.400197e+01
   endloop
 endfacet
 facet normal -1.000000e+00  0.000000e+00  0.000000e+00
   outer loop
     vertex -3.750000e+01  2.850000e+01 -3.919261e-199
     vertex -3.750000e+01  1.300000e+01  2.400000e+01
     vertex -3.750000e+01  1.700000e+01  2.400000e+01
   endloop
 endfacet
 facet normal -1.000000e+00  0.000000e+00  0.000000e+00
   outer loop
     vertex -3.750000e+01  2.850000e+01 -3.919261e-199
     vertex -3.750000e+01  1.257422e+01  2.409517e+01
     vertex -3.750000e+01  1.263188e+01  2.407022e+01
   endloop
 endfacet
 facet normal -1.000000e+00  0.000000e+00  0.000000e+00
   outer loop
     vertex -3.750000e+01  2.850000e+01 -3.919261e-199
     vertex -3.750000e+01  1.263188e+01  2.407022e+01
     vertex -3.750000e+01  1.269098e+01  2.404894e+01
   endloop
 endfacet
 facet normal -1.000000e+00  0.000000e+00  0.000000e+00
   outer loop
     vertex -3.750000e+01  2.850000e+01 -3.919261e-199
     vertex -3.750000e+01  1.269098e+01  2.404894e+01
     vertex -3.750000e+01  1.275131e+01  2.403142e+01
   endloop
 endfacet
 facet normal -1.000000e+00  0.000000e+00  0.000000e+00
   outer loop
     vertex -3.750000e+01  2.850000e+01 -3.919261e-199
     vertex -3.750000e+01  1.275131e+01  2.403142e+01
     vertex -3.750000e+01  1.281262e+01  2.401771e+01
   endloop
 endfacet
 facet normal -1.000000e+00  0.000000e+00  0.000000e+00
   outer loop
     vertex -3.750000e+01  2.850000e+01 -3.919261e-199
     vertex -3.750000e+01  1.281262e+01  2.401771e+01
     vertex -3.750000e+01  1.287467e+01  2.400789e+01
   endloop
 endfacet
 facet normal -1.000000e+00  0.000000e+00  0.000000e+00
   outer loop
     vertex -3.750000e+01  2.850000e+01 -3.919261e-199
     vertex -3.750000e+01  1.287467e+01  2.400789e+01
     vertex -3.750000e+01  1.293721e+01  2.400197e+01
   endloop
 endfacet
 facet normal -1.000000e+00  0.000000e+00  0.000000e+00
   outer loop
     vertex -3.750000e+01  2.850000e+01 -3.919261e-199
     vertex -3.750000e+01  1.293721e+01  2.400197e+01
     vertex -3.750000e+01  1.300000e+01  2.400000e+01
   endloop
 endfacet
 facet normal -1.000000e+00  0.000000e+00  0.000000e+00
   outer loop
     vertex -3.750000e+01  2.850000e+01 -3.919261e-199
     vertex -3.750000e+01  1.763742e+01  2.422949e+01
     vertex -3.750000e+01  2.850000e+01  2.700000e+01
   endloop
 endfacet
 facet normal -1.000000e+00  0.000000e+00  0.000000e+00
   outer loop
     vertex -3.750000e+01 -2.850000e+01  2.700000e+01
     vertex -3.750000e+01  1.200000e+01  2.700000e+01
     vertex -3.750000e+01  1.200000e+01  2.500000e+01
   endloop
 endfacet
 facet normal -1.000000e+00  0.000000e+00  0.000000e+00
   outer loop
     vertex -3.750000e+01 -2.850000e+01  2.700000e+01
     vertex -3.750000e+01  1.200000e+01  2.500000e+01
     vertex -3.750000e+01  1.200197e+01  2.493721e+01
   endloop
 endfacet
 facet normal -1.000000e+00  0.000000e+00  0.000000e+00
   outer loop
     vertex -3.750000e+01 -2.850000e+01  2.700000e+01
     vertex -3.750000e+01  1.200197e+01  2.493721e+01
     vertex -3.750000e+01  1.200789e+01  2.487467e+01
   endloop
 endfacet
 facet normal -1.000000e+00  0.000000e+00  0.000000e+00
   outer loop
     vertex -3.750000e+01 -2.850000e+01  2.700000e+01
     vertex -3.750000e+01  1.200789e+01  2.487467e+01
     vertex -3.750000e+01  1.201771e+01  2.481262e+01
   endloop
 endfacet
 facet normal -1.000000e+00  0.000000e+00  0.000000e+00
   outer loop
     vertex -3.750000e+01 -2.850000e+01  2.700000e+01
     vertex -3.750000e+01  1.201771e+01  2.481262e+01
     vertex -3.750000e+01  1.203142e+01  2.475131e+01
   endloop
 endfacet
 facet normal -1.000000e+00  0.000000e+00  0.000000e+00
   outer loop
     vertex -3.750000e+01 -2.850000e+01  2.700000e+01
     vertex -3.750000e+01  1.203142e+01  2.475131e+01
     vertex -3.750000e+01  1.204894e+01  2.469098e+01
   endloop
 endfacet
 facet normal -1.000000e+00  0.000000e+00  0.000000e+00
   outer loop
     vertex -3.750000e+01 -2.850000e+01  2.700000e+01
     vertex -3.750000e+01  1.204894e+01  2.469098e+01
     vertex -3.750000e+01  1.207022e+01  2.463188e+01
   endloop
 endfacet
 facet normal -1.000000e+00  0.000000e+00  0.000000e+00
   outer loop
     vertex -3.750000e+01 -2.850000e+01  2.700000e+01
     vertex -3.750000e+01  1.207022e+01  2.463188e+01
     vertex -3.750000e+01  1.209517e+01  2.457422e+01
   endloop
 endfacet
 facet normal -1.000000e+00  0.000000e+00  0.000000e+00
   outer loop
     vertex -3.750000e+01 -2.850000e+01  2.700000e+01
     vertex -3.750000e+01  1.209517e+01  2.457422e+01
     vertex -3.750000e+01  1.212369e+01  2.451825e+01
   endloop
 endfacet
 facet normal -1.000000e+00  0.000000e+00  0.000000e+00
   outer loop
     vertex -3.750000e+01 -2.850000e+01 -7.838521e-200
     vertex -3.750000e+01 -2.850000e+01  2.700000e+01
     vertex -3.750000e+01  1.212369e+01  2.451825e+01
   endloop
 endfacet
 facet normal -1.000000e+00  0.000000e+00  0.000000e+00
   outer loop
     vertex -3.750000e+01 -2.850000e+01 -7.838521e-200
     vertex -3.750000e+01  1.212369e+01  2.451825e+01
     vertex -3.750000e+01  1.215567e+01  2.446417e+01
   endloop
 endfacet
 facet normal -1.000000e+00  0.000000e+00  0.000000e+00
   outer loop
     vertex -3.750000e+01 -2.850000e+01 -7.838521e-200
     vertex -3.750000e+01  1.215567e+01  2.446417e+01
     vertex -3.750000e+01  1.219098e+01  2.441221e+01
   endloop
 endfacet
 facet normal -1.000000e+00  0.000000e+00  0.000000e+00
   outer loop
     vertex -3.750000e+01 -2.850000e+01 -7.838521e-200
     vertex -3.750000e+01  1.219098e+01  2.441221e+01
     vertex -3.750000e+01  1.222949e+01  2.436258e+01
   endloop
 endfacet
 facet normal -1.000000e+00  0.000000e+00  0.000000e+00
   outer loop
     vertex -3.750000e+01 -2.850000e+01 -7.838521e-200
     vertex -3.750000e+01  1.222949e+01  2.436258e+01
     vertex -3.750000e+01  1.227103e+01  2.431545e+01
   endloop
 endfacet
 facet normal -1.000000e+00  0.000000e+00  0.000000e+00
   outer loop
     vertex -3.750000e+01 -2.850000e+01 -7.838521e-200
     vertex -3.750000e+01  1.227103e+01  2.431545e+01
     vertex -3.750000e+01  1.231545e+01  2.427103e+01
   endloop
 endfacet
 facet normal -1.000000e+00  0.000000e+00  0.000000e+00
   outer loop
     vertex -3.750000e+01 -2.850000e+01 -7.838521e-200
     vertex -3.750000e+01  1.231545e+01  2.427103e+01
     vertex -3.750000e+01  1.236258e+01  2.422949e+01
   endloop
 endfacet
 facet normal -1.000000e+00  0.000000e+00  0.000000e+00
   outer loop
     vertex -3.750000e+01 -2.850000e+01 -7.838521e-200
     vertex -3.750000e+01  1.236258e+01  2.422949e+01
     vertex -3.750000e+01  1.241221e+01  2.419098e+01
   endloop
 endfacet
 facet normal -1.000000e+00  0.000000e+00  0.000000e+00
   outer loop
     vertex -3.750000e+01 -2.850000e+01 -7.838521e-200
     vertex -3.750000e+01  1.241221e+01  2.419098e+01
     vertex -3.750000e+01  1.246417e+01  2.415567e+01
   endloop
 endfacet
 facet normal -1.000000e+00  0.000000e+00  0.000000e+00
   outer loop
     vertex -3.750000e+01 -2.850000e+01 -7.838521e-200
     vertex -3.750000e+01  1.246417e+01  2.415567e+01
     vertex -3.750000e+01  1.251825e+01  2.412369e+01
   endloop
 endfacet
 facet normal -1.000000e+00  0.000000e+00  0.000000e+00
   outer loop
     vertex -3.750000e+01 -2.850000e+01 -7.838521e-200
     vertex -3.750000e+01  1.251825e+01  2.412369e+01
     vertex -3.750000e+01  1.257422e+01  2.409517e+01
   endloop
 endfacet
 facet normal -1.000000e+00  0.000000e+00  0.000000e+00
   outer loop
     vertex -3.750000e+01 -2.850000e+01 -7.838521e-200
     vertex -3.750000e+01  1.257422e+01  2.409517e+01
     vertex -3.750000e+01  2.850000e+01 -3.919261e-199
   endloop
 endfacet
 facet normal  0.000000e+00  1.000000e+00  0.000000e+00
   outer loop
     vertex -3.750000e+01  1.200000e+01  2.700000e+01
     vertex -3.500000e+01  1.200000e+01  2.500000e+01
     vertex -3.750000e+01  1.200000e+01  2.500000e+01
   endloop
 endfacet
 facet normal -0.000000e+00  1.000000e+00  0.000000e+00
   outer loop
     vertex -3.750000e+01  1.200000e+01  2.700000e+01
     vertex -3.500000e+01  1.200000e+01  2.700000e+01
     vertex -3.500000e+01  1.200000e+01  2.500000e+01
   endloop
 endfacet
 facet normal  0.000000e+00  9.995066e-01  3.141076e-02
   outer loop
     vertex -3.500000e+01  1.200197e+01  2.493721e+01
     vertex -3.750000e+01  1.200197e+01  2.493721e+01
     vertex -3.750000e+01  1.200000e+01  2.500000e+01
   endloop
 endfacet
 facet normal  0.000000e+00  9.995066e-01  3.141076e-02
   outer loop
     vertex -3.500000e+01  1.200197e+01  2.493721e+01
     vertex -3.750000e+01  1.200000e+01  2.500000e+01
     vertex -3.500000e+01  1.200000e+01  2.500000e+01
   endloop
 endfacet
 facet normal  0.000000e+00  9.955620e-01  9.410831e-02
   outer loop
     vertex -3.500000e+01  1.200789e+01  2.487467e+01
     vertex -3.750000e+01  1.200789e+01  2.487467e+01
     vertex -3.750000e+01  1.200197e+01  2.493721e+01
   endloop
 endfacet
 facet normal  0.000000e+00  9.955620e-01  9.410831e-02
   outer loop
     vertex -3.500000e+01  1.200789e+01  2.487467e+01
     vertex -3.750000e+01  1.200197e+01  2.493721e+01
     vertex -3.500000e+01  1.200197e+01  2.493721e+01
   endloop
 endfacet
 facet normal  0.000000e+00  9.876883e-01  1.564345e-01
   outer loop
     vertex -3.500000e+01  1.201771e+01  2.481262e+01
     vertex -3.750000e+01  1.201771e+01  2.481262e+01
     vertex -3.750000e+01  1.200789e+01  2.487467e+01
   endloop
 endfacet
 facet normal  0.000000e+00  9.759168e-01  2.181432e-01
   outer loop
     vertex -3.500000e+01  1.201771e+01  2.481262e+01
     vertex -3.750000e+01  1.203142e+01  2.475131e+01
     vertex -3.750000e+01  1.201771e+01  2.481262e+01
   endloop
 endfacet
 facet normal  0.000000e+00  9.876883e-01  1.564345e-01
   outer loop
     vertex -3.500000e+01  1.201771e+01  2.481262e+01
     vertex -3.750000e+01  1.200789e+01  2.487467e+01
     vertex -3.500000e+01  1.200789e+01  2.487467e+01
   endloop
 endfacet
 facet normal  0.000000e+00  9.759168e-01  2.181432e-01
   outer loop
     vertex -3.500000e+01  1.203142e+01  2.475131e+01
     vertex -3.750000e+01  1.203142e+01  2.475131e+01
     vertex -3.500000e+01  1.201771e+01  2.481262e+01
   endloop
 endfacet
 facet normal  0.000000e+00  9.602937e-01  2.789911e-01
   outer loop
     vertex -3.500000e+01  1.204894e+01  2.469098e+01
     vertex -3.750000e+01  1.204894e+01  2.469098e+01
     vertex -3.750000e+01  1.203142e+01  2.475131e+01
   endloop
 endfacet
 facet normal  0.000000e+00  9.602937e-01  2.789911e-01
   outer loop
     vertex -3.500000e+01  1.204894e+01  2.469098e+01
     vertex -3.750000e+01  1.203142e+01  2.475131e+01
     vertex -3.500000e+01  1.203142e+01  2.475131e+01
   endloop
 endfacet
 facet normal  0.000000e+00  9.408808e-01  3.387379e-01
   outer loop
     vertex -3.500000e+01  1.207022e+01  2.463188e+01
     vertex -3.750000e+01  1.207022e+01  2.463188e+01
     vertex -3.750000e+01  1.204894e+01  2.469098e+01
   endloop
 endfacet
 facet normal  0.000000e+00  9.177546e-01  3.971479e-01
   outer loop
     vertex -3.500000e+01  1.207022e+01  2.463188e+01
     vertex -3.750000e+01  1.209517e+01  2.457422e+01
     vertex -3.750000e+01  1.207022e+01  2.463188e+01
   endloop
 endfacet
 facet normal  0.000000e+00  9.408808e-01  3.387379e-01
   outer loop
     vertex -3.500000e+01  1.207022e+01  2.463188e+01
     vertex -3.750000e+01  1.204894e+01  2.469098e+01
     vertex -3.500000e+01  1.204894e+01  2.469098e+01
   endloop
 endfacet
 facet normal  0.000000e+00  8.910065e-01  4.539905e-01
   outer loop
     vertex -3.500000e+01  1.209517e+01  2.457422e+01
     vertex -3.750000e+01  1.212369e+01  2.451825e+01
     vertex -3.750000e+01  1.209517e+01  2.457422e+01
   endloop
 endfacet
 facet normal  0.000000e+00  9.177546e-01  3.971479e-01
   outer loop
     vertex -3.500000e+01  1.209517e+01  2.457422e+01
     vertex -3.750000e+01  1.209517e+01  2.457422e+01
     vertex -3.500000e+01  1.207022e+01  2.463188e+01
   endloop
 endfacet
 facet normal  0.000000e+00  8.910065e-01  4.539905e-01
   outer loop
     vertex -3.500000e+01  1.212369e+01  2.451825e+01
     vertex -3.750000e+01  1.212369e+01  2.451825e+01
     vertex -3.500000e+01  1.209517e+01  2.457422e+01
   endloop
 endfacet
 facet normal  0.000000e+00  8.607420e-01  5.090414e-01
   outer loop
     vertex -3.500000e+01  1.215567e+01  2.446417e+01
     vertex -3.750000e+01  1.215567e+01  2.446417e+01
     vertex -3.750000e+01  1.212369e+01  2.451825e+01
   endloop
 endfacet
 facet normal  0.000000e+00  8.607420e-01  5.090414e-01
   outer loop
     vertex -3.500000e+01  1.215567e+01  2.446417e+01
     vertex -3.750000e+01  1.212369e+01  2.451825e+01
     vertex -3.500000e+01  1.212369e+01  2.451825e+01
   endloop
 endfacet
 facet normal  0.000000e+00  8.270806e-01  5.620834e-01
   outer loop
     vertex -3.500000e+01  1.219098e+01  2.441221e+01
     vertex -3.750000e+01  1.219098e+01  2.441221e+01
     vertex -3.750000e+01  1.215567e+01  2.446417e+01
   endloop
 endfacet
 facet normal  0.000000e+00  8.270806e-01  5.620834e-01
   outer loop
     vertex -3.500000e+01  1.219098e+01  2.441221e+01
     vertex -3.750000e+01  1.215567e+01  2.446417e+01
     vertex -3.500000e+01  1.215567e+01  2.446417e+01
   endloop
 endfacet
 facet normal  0.000000e+00  7.901550e-01  6.129071e-01
   outer loop
     vertex -3.500000e+01  1.222949e+01  2.436258e+01
     vertex -3.750000e+01  1.222949e+01  2.436258e+01
     vertex -3.750000e+01  1.219098e+01  2.441221e+01
   endloop
 endfacet
 facet normal  0.000000e+00  7.901550e-01  6.129071e-01
   outer loop
     vertex -3.500000e+01  1.222949e+01  2.436258e+01
     vertex -3.750000e+01  1.219098e+01  2.441221e+01
     vertex -3.500000e+01  1.219098e+01  2.441221e+01
   endloop
 endfacet
 facet normal  0.000000e+00  7.501111e-01  6.613119e-01
   outer loop
     vertex -3.500000e+01  1.227103e+01  2.431545e+01
     vertex -3.750000e+01  1.222949e+01  2.436258e+01
     vertex -3.500000e+01  1.222949e+01  2.436258e+01
   endloop
 endfacet
 facet normal  0.000000e+00  7.501111e-01  6.613119e-01
   outer loop
     vertex -3.500000e+01  1.227103e+01  2.431545e+01
     vertex -3.750000e+01  1.227103e+01  2.431545e+01
     vertex -3.750000e+01  1.222949e+01  2.436258e+01
   endloop
 endfacet
 facet normal  0.000000e+00  7.071068e-01  7.071068e-01
   outer loop
     vertex -3.500000e+01  1.231545e+01  2.427103e+01
     vertex -3.750000e+01  1.227103e+01  2.431545e+01
     vertex -3.500000e+01  1.227103e+01  2.431545e+01
   endloop
 endfacet
 facet normal  0.000000e+00  7.071068e-01  7.071068e-01
   outer loop
     vertex -3.500000e+01  1.231545e+01  2.427103e+01
     vertex -3.750000e+01  1.231545e+01  2.427103e+01
     vertex -3.750000e+01  1.227103e+01  2.431545e+01
   endloop
 endfacet
 facet normal  0.000000e+00  6.613119e-01  7.501111e-01
   outer loop
     vertex -3.500000e+01  1.231545e+01  2.427103e+01
     vertex -3.750000e+01  1.236258e+01  2.422949e+01
     vertex -3.750000e+01  1.231545e+01  2.427103e+01
   endloop
 endfacet
 facet normal  0.000000e+00  6.613119e-01  7.501111e-01
   outer loop
     vertex -3.500000e+01  1.236258e+01  2.422949e+01
     vertex -3.750000e+01  1.236258e+01  2.422949e+01
     vertex -3.500000e+01  1.231545e+01  2.427103e+01
   endloop
 endfacet
 facet normal  0.000000e+00  6.129071e-01  7.901550e-01
   outer loop
     vertex -3.500000e+01  1.236258e+01  2.422949e+01
     vertex -3.750000e+01  1.241221e+01  2.419098e+01
     vertex -3.750000e+01  1.236258e+01  2.422949e+01
   endloop
 endfacet
 facet normal  0.000000e+00  6.129071e-01  7.901550e-01
   outer loop
     vertex -3.500000e+01  1.241221e+01  2.419098e+01
     vertex -3.750000e+01  1.241221e+01  2.419098e+01
     vertex -3.500000e+01  1.236258e+01  2.422949e+01
   endloop
 endfacet
 facet normal  0.000000e+00  5.620834e-01  8.270806e-01
   outer loop
     vertex -3.500000e+01  1.246417e+01  2.415567e+01
     vertex -3.750000e+01  1.246417e+01  2.415567e+01
     vertex -3.750000e+01  1.241221e+01  2.419098e+01
   endloop
 endfacet
 facet normal  0.000000e+00  5.620834e-01  8.270806e-01
   outer loop
     vertex -3.500000e+01  1.246417e+01  2.415567e+01
     vertex -3.750000e+01  1.241221e+01  2.419098e+01
     vertex -3.500000e+01  1.241221e+01  2.419098e+01
   endloop
 endfacet
 facet normal  0.000000e+00  5.090414e-01  8.607420e-01
   outer loop
     vertex -3.500000e+01  1.251825e+01  2.412369e+01
     vertex -3.750000e+01  1.251825e+01  2.412369e+01
     vertex -3.750000e+01  1.246417e+01  2.415567e+01
   endloop
 endfacet
 facet normal  0.000000e+00  5.090414e-01  8.607420e-01
   outer loop
     vertex -3.500000e+01  1.251825e+01  2.412369e+01
     vertex -3.750000e+01  1.246417e+01  2.415567e+01
     vertex -3.500000e+01  1.246417e+01  2.415567e+01
   endloop
 endfacet
 facet normal  0.000000e+00  4.539905e-01  8.910065e-01
   outer loop
     vertex -3.500000e+01  1.257422e+01  2.409517e+01
     vertex -3.750000e+01  1.257422e+01  2.409517e+01
     vertex -3.750000e+01  1.251825e+01  2.412369e+01
   endloop
 endfacet
 facet normal  0.000000e+00  4.539905e-01  8.910065e-01
   outer loop
     vertex -3.500000e+01  1.257422e+01  2.409517e+01
     vertex -3.750000e+01  1.251825e+01  2.412369e+01
     vertex -3.500000e+01  1.251825e+01  2.412369e+01
   endloop
 endfacet
 facet normal  0.000000e+00  3.971479e-01  9.177546e-01
   outer loop
     vertex -3.500000e+01  1.263188e+01  2.407022e+01
     vertex -3.750000e+01  1.263188e+01  2.407022e+01
     vertex -3.750000e+01  1.257422e+01  2.409517e+01
   endloop
 endfacet
 facet normal  0.000000e+00  3.971479e-01  9.177546e-01
   outer loop
     vertex -3.500000e+01  1.263188e+01  2.407022e+01
     vertex -3.750000e+01  1.257422e+01  2.409517e+01
     vertex -3.500000e+01  1.257422e+01  2.409517e+01
   endloop
 endfacet
 facet normal  0.000000e+00  3.387379e-01  9.408808e-01
   outer loop
     vertex -3.500000e+01  1.269098e+01  2.404894e+01
     vertex -3.750000e+01  1.269098e+01  2.404894e+01
     vertex -3.750000e+01  1.263188e+01  2.407022e+01
   endloop
 endfacet
 facet normal  0.000000e+00  2.789911e-01  9.602937e-01
   outer loop
     vertex -3.500000e+01  1.269098e+01  2.404894e+01
     vertex -3.750000e+01  1.275131e+01  2.403142e+01
     vertex -3.750000e+01  1.269098e+01  2.404894e+01
   endloop
 endfacet
 facet normal  0.000000e+00  3.387379e-01  9.408808e-01
   outer loop
     vertex -3.500000e+01  1.269098e+01  2.404894e+01
     vertex -3.750000e+01  1.263188e+01  2.407022e+01
     vertex -3.500000e+01  1.263188e+01  2.407022e+01
   endloop
 endfacet
 facet normal  0.000000e+00  2.789911e-01  9.602937e-01
   outer loop
     vertex -3.500000e+01  1.275131e+01  2.403142e+01
     vertex -3.750000e+01  1.275131e+01  2.403142e+01
     vertex -3.500000e+01  1.269098e+01  2.404894e+01
   endloop
 endfacet
 facet normal  0.000000e+00  2.181432e-01  9.759168e-01
   outer loop
     vertex -3.500000e+01  1.281262e+01  2.401771e+01
     vertex -3.750000e+01  1.281262e+01  2.401771e+01
     vertex -3.750000e+01  1.275131e+01  2.403142e+01
   endloop
 endfacet
 facet normal  0.000000e+00  1.564345e-01  9.876883e-01
   outer loop
     vertex -3.500000e+01  1.281262e+01  2.401771e+01
     vertex -3.750000e+01  1.287467e+01  2.400789e+01
     vertex -3.750000e+01  1.281262e+01  2.401771e+01
   endloop
 endfacet
 facet normal  0.000000e+00  2.181432e-01  9.759168e-01
   outer loop
     vertex -3.500000e+01  1.281262e+01  2.401771e+01
     vertex -3.750000e+01  1.275131e+01  2.403142e+01
     vertex -3.500000e+01  1.275131e+01  2.403142e+01
   endloop
 endfacet
 facet normal  0.000000e+00  1.564345e-01  9.876883e-01
   outer loop
     vertex -3.500000e+01  1.287467e+01  2.400789e+01
     vertex -3.750000e+01  1.287467e+01  2.400789e+01
     vertex -3.500000e+01  1.281262e+01  2.401771e+01
   endloop
 endfacet
 facet normal  0.000000e+00  9.410831e-02  9.955620e-01
   outer loop
     vertex -3.500000e+01  1.293721e+01  2.400197e+01
     vertex -3.750000e+01  1.293721e+01  2.400197e+01
     vertex -3.750000e+01  1.287467e+01  2.400789e+01
   endloop
 endfacet
 facet normal  0.000000e+00  9.410831e-02  9.955620e-01
   outer loop
     vertex -3.500000e+01  1.293721e+01  2.400197e+01
     vertex -3.750000e+01  1.287467e+01  2.400789e+01
     vertex -3.500000e+01  1.287467e+01  2.400789e+01
   endloop
 endfacet
 facet normal  0.000000e+00  3.141076e-02  9.995066e-01
   outer loop
     vertex -3.500000e+01  1.300000e+01  2.400000e+01
     vertex -3.750000e+01  1.300000e+01  2.400000e+01
     vertex -3.750000e+01  1.293721e+01  2.400197e+01
   endloop
 endfacet
 facet normal  0.000000e+00  3.141076e-02  9.995066e-01
   outer loop
     vertex -3.500000e+01  1.300000e+01  2.400000e+01
     vertex -3.750000e+01  1.293721e+01  2.400197e+01
     vertex -3.500000e+01  1.293721e+01  2.400197e+01
   endloop
 endfacet
 facet normal  0.000000e+00  0.000000e+00  1.000000e+00
   outer loop
     vertex -3.500000e+01 -2.750000e+01  2.700000e+01
     vertex -3.750000e+01 -2.850000e+01  2.700000e+01
     vertex -3.600000e+01 -3.000000e+01  2.700000e+01
   endloop
 endfacet
 facet normal  0.000000e+00  0.000000e+00  1.000000e+00
   outer loop
     vertex -3.750000e+01  1.200000e+01  2.700000e+01
     vertex -3.750000e+01 -2.850000e+01  2.700000e+01
     vertex -3.500000e+01 -2.750000e+01  2.700000e+01
   endloop
 endfacet
 facet normal  0.000000e+00  0.000000e+00  1.000000e+00
   outer loop
     vertex -3.500000e+01  1.200000e+01  2.700000e+01
     vertex -3.750000e+01  1.200000e+01  2.700000e+01
     vertex -3.500000e+01 -2.750000e+01  2.700000e+01
   endloop
 endfacet
 facet normal  0.000000e+00  0.000000e+00  1.000000e+00
   outer loop
     vertex -3.500000e+01  2.750000e+01  2.700000e+01
     vertex -3.750000e+01  2.850000e+01  2.700000e+01
     vertex -3.750000e+01  1.800000e+01  2.700000e+01
   endloop
 endfacet
 facet normal  0.000000e+00  0.000000e+00  1.000000e+00
   outer loop
     vertex -3.500000e+01  2.750000e+01  2.700000e+01
     vertex -3.750000e+01  1.800000e+01  2.700000e+01
     vertex -3.500000e+01  1.800000e+01  2.700000e+01
   endloop
 endfacet
 facet normal  0.000000e+00  0.000000e+00  1.000000e+00
   outer loop
     vertex -3.600000e+01  3.000000e+01  2.700000e+01
     vertex -3.750000e+01  2.850000e+01  2.700000e+01
     vertex -3.500000e+01  2.750000e+01  2.700000e+01
   endloop
 endfacet
 facet normal  0.000000e+00  0.000000e+00  1.000000e+00
   outer loop
     vertex  3.500000e+01 -2.750000e+01  2.700000e+01
     vertex -3.600000e+01 -3.000000e+01  2.700000e+01
     vertex  3.600000e+01 -3.000000e+01  2.700000e+01
   endloop
 endfacet
 facet normal  0.000000e+00  0.000000e+00  1.000000e+00
   outer loop
     vertex  3.500000e+01 -2.750000e+01  2.700000e+01
     vertex -3.500000e+01 -2.750000e+01  2.700000e+01
     vertex -3.600000e+01 -3.000000e+01  2.700000e+01
   endloop
 endfacet
 facet normal  0.000000e+00  0.000000e+00  1.000000e+00
   outer loop
     vertex  3.750000e+01 -2.850000e+01  2.700000e+01
     vertex  3.500000e+01 -2.750000e+01  2.700000e+01
     vertex  3.600000e+01 -3.000000e+01  2.700000e+01
   endloop
 endfacet
 facet normal  0.000000e+00  0.000000e+00  1.000000e+00
   outer loop
     vertex  3.750000e+01  2.850000e+01  2.700000e+01
     vertex  3.500000e+01  2.750000e+01  2.700000e+01
     vertex  3.500000e+01 -2.750000e+01  2.700000e+01
   endloop
 endfacet
 facet normal  0.000000e+00  0.000000e+00  1.000000e+00
   outer loop
     vertex  3.750000e+01  2.850000e+01  2.700000e+01
     vertex  3.500000e+01 -2.750000e+01  2.700000e+01
     vertex  3.750000e+01 -2.850000e+01  2.700000e+01
   endloop
 endfacet
 facet normal  0.000000e+00  0.000000e+00  1.000000e+00
   outer loop
     vertex  3.600000e+01  3.000000e+01  2.700000e+01
     vertex -3.500000e+01  2.750000e+01  2.700000e+01
     vertex  3.500000e+01  2.750000e+01  2.700000e+01
   endloop
 endfacet
 facet normal  0.000000e+00  0.000000e+00  1.000000e+00
   outer loop
     vertex  3.600000e+01  3.000000e+01  2.700000e+01
     vertex -3.600000e+01  3.000000e+01  2.700000e+01
     vertex -3.500000e+01  2.750000e+01  2.700000e+01
   endloop
 endfacet
 facet normal  0.000000e+00  0.000000e+00  1.000000e+00
   outer loop
     vertex  3.600000e+01  3.000000e+01  2.700000e+01
     vertex  3.500000e+01  2.750000e+01  2.700000e+01
     vertex  3.750000e+01  2.850000e+01  2.700000e+01
   endloop
 endfacet
 facet normal  0.000000e+00  0.000000e+00  1.000000e+00
   outer loop
     vertex -3.750000e+01  1.300000e+01  2.400000e+01
     vertex -3.500000e+01  1.700000e+01  2.400000e+01
     vertex -3.750000e+01  1.700000e+01  2.400000e+01
   endloop
 endfacet
 facet normal  0.000000e+00  0.000000e+00  1.000000e+00
   outer loop
     vertex -3.750000e+01  1.300000e+01  2.400000e+01
     vertex -3.500000e+01  1.300000e+01  2.400000e+01
     vertex -3.500000e+01  1.700000e+01  2.400000e+01
   endloop
 endfacet
 facet normal -7.071068e-01 -7.071068e-01 -0.000000e+00
   outer loop
     vertex -3.750000e+01 -2.850000e+01  2.700000e+01
     vertex -3.750000e+01 -2.850000e+01 -7.838521e-200
     vertex -3.600000e+01 -3.000000e+01 -9.667509e-199
   endloop
 endfacet
 facet normal -7.071068e-01 -7.071068e-01  0.000000e+00
   outer loop
     vertex -3.750000e+01 -2.850000e+01  2.700000e+01
     vertex -3.600000e+01 -3.000000e+01 -9.667509e-199
     vertex -3.600000e+01 -3.000000e+01  2.700000e+01
   endloop
 endfacet
 facet normal  0.000000e+00 -9.995066e-01  3.141076e-02
   outer loop
     vertex -3.500000e+01  1.799803e+01  2.493721e+01
     vertex -3.750000e+01  1.800000e+01  2.500000e+01
     vertex -3.750000e+01  1.799803e+01  2.493721e+01
   endloop
 endfacet
 facet normal  0.000000e+00 -9.995066e-01  3.141076e-02
   outer loop
     vertex -3.500000e+01  1.799803e+01  2.493721e+01
     vertex -3.500000e+01  1.800000e+01  2.500000e+01
     vertex -3.750000e+01  1.800000e+01  2.500000e+01
   endloop
 endfacet
 facet normal  0.000000e+00 -9.955620e-01  9.410831e-02
   outer loop
     vertex -3.500000e+01  1.799211e+01  2.487467e+01
     vertex -3.750000e+01  1.799803e+01  2.493721e+01
     vertex -3.750000e+01  1.799211e+01  2.487467e+01
   endloop
 endfacet
 facet normal  0.000000e+00 -9.955620e-01  9.410831e-02
   outer loop
     vertex -3.500000e+01  1.799211e+01  2.487467e+01
     vertex -3.500000e+01  1.799803e+01  2.493721e+01
     vertex -3.750000e+01  1.799803e+01  2.493721e+01
   endloop
 endfacet
 facet normal  0.000000e+00 -9.876883e-01  1.564345e-01
   outer loop
     vertex -3.500000e+01  1.798229e+01  2.481262e+01
     vertex -3.750000e+01  1.799211e+01  2.487467e+01
     vertex -3.750000e+01  1.798229e+01  2.481262e+01
   endloop
 endfacet
 facet normal  0.000000e+00 -9.759168e-01  2.181432e-01
   outer loop
     vertex -3.500000e+01  1.798229e+01  2.481262e+01
     vertex -3.750000e+01  1.798229e+01  2.481262e+01
     vertex -3.750000e+01  1.796858e+01  2.475131e+01
   endloop
 endfacet
 facet normal  0.000000e+00 -9.876883e-01  1.564345e-01
   outer loop
     vertex -3.500000e+01  1.798229e+01  2.481262e+01
     vertex -3.500000e+01  1.799211e+01  2.487467e+01
     vertex -3.750000e+01  1.799211e+01  2.487467e+01
   endloop
 endfacet
 facet normal  0.000000e+00 -9.759168e-01  2.181432e-01
   outer loop
     vertex -3.500000e+01  1.796858e+01  2.475131e+01
     vertex -3.500000e+01  1.798229e+01  2.481262e+01
     vertex -3.750000e+01  1.796858e+01  2.475131e+01
   endloop
 endfacet
 facet normal  0.000000e+00 -9.602937e-01  2.789911e-01
   outer loop
     vertex -3.500000e+01  1.795106e+01  2.469098e+01
     vertex -3.750000e+01  1.796858e+01  2.475131e+01
     vertex -3.750000e+01  1.795106e+01  2.469098e+01
   endloop
 endfacet
 facet normal  0.000000e+00 -9.602937e-01  2.789911e-01
   outer loop
     vertex -3.500000e+01  1.795106e+01  2.469098e+01
     vertex -3.500000e+01  1.796858e+01  2.475131e+01
     vertex -3.750000e+01  1.796858e+01  2.475131e+01
   endloop
 endfacet
 facet normal  0.000000e+00 -9.408808e-01  3.387379e-01
   outer loop
     vertex -3.500000e+01  1.792978e+01  2.463188e+01
     vertex -3.750000e+01  1.795106e+01  2.469098e+01
     vertex -3.750000e+01  1.792978e+01  2.463188e+01
   endloop
 endfacet
 facet normal  0.000000e+00 -9.177546e-01  3.971479e-01
   outer loop
     vertex -3.500000e+01  1.792978e+01  2.463188e+01
     vertex -3.750000e+01  1.792978e+01  2.463188e+01
     vertex -3.750000e+01  1.790483e+01  2.457422e+01
   endloop
 endfacet
 facet normal  0.000000e+00 -9.408808e-01  3.387379e-01
   outer loop
     vertex -3.500000e+01  1.792978e+01  2.463188e+01
     vertex -3.500000e+01  1.795106e+01  2.469098e+01
     vertex -3.750000e+01  1.795106e+01  2.469098e+01
   endloop
 endfacet
 facet normal  0.000000e+00 -8.910065e-01  4.539905e-01
   outer loop
     vertex -3.500000e+01  1.790483e+01  2.457422e+01
     vertex -3.750000e+01  1.790483e+01  2.457422e+01
     vertex -3.750000e+01  1.787631e+01  2.451825e+01
   endloop
 endfacet
 facet normal  0.000000e+00 -9.177546e-01  3.971479e-01
   outer loop
     vertex -3.500000e+01  1.790483e+01  2.457422e+01
     vertex -3.500000e+01  1.792978e+01  2.463188e+01
     vertex -3.750000e+01  1.790483e+01  2.457422e+01
   endloop
 endfacet
 facet normal  0.000000e+00 -8.910065e-01  4.539905e-01
   outer loop
     vertex -3.500000e+01  1.787631e+01  2.451825e+01
     vertex -3.500000e+01  1.790483e+01  2.457422e+01
     vertex -3.750000e+01  1.787631e+01  2.451825e+01
   endloop
 endfacet
 facet normal  0.000000e+00 -8.607420e-01  5.090414e-01
   outer loop
     vertex -3.500000e+01  1.784433e+01  2.446417e+01
     vertex -3.750000e+01  1.787631e+01  2.451825e+01
     vertex -3.750000e+01  1.784433e+01  2.446417e+01
   endloop
 endfacet
 facet normal  0.000000e+00 -8.607420e-01  5.090414e-01
   outer loop
     vertex -3.500000e+01  1.784433e+01  2.446417e+01
     vertex -3.500000e+01  1.787631e+01  2.451825e+01
     vertex -3.750000e+01  1.787631e+01  2.451825e+01
   endloop
 endfacet
 facet normal  0.000000e+00 -8.270806e-01  5.620834e-01
   outer loop
     vertex -3.500000e+01  1.780902e+01  2.441221e+01
     vertex -3.750000e+01  1.784433e+01  2.446417e+01
     vertex -3.750000e+01  1.780902e+01  2.441221e+01
   endloop
 endfacet
 facet normal  0.000000e+00 -8.270806e-01  5.620834e-01
   outer loop
     vertex -3.500000e+01  1.780902e+01  2.441221e+01
     vertex -3.500000e+01  1.784433e+01  2.446417e+01
     vertex -3.750000e+01  1.784433e+01  2.446417e+01
   endloop
 endfacet
 facet normal  0.000000e+00 -7.901550e-01  6.129071e-01
   outer loop
     vertex -3.500000e+01  1.777051e+01  2.436258e+01
     vertex -3.750000e+01  1.780902e+01  2.441221e+01
     vertex -3.750000e+01  1.777051e+01  2.436258e+01
   endloop
 endfacet
 facet normal  0.000000e+00 -7.901550e-01  6.129071e-01
   outer loop
     vertex -3.500000e+01  1.777051e+01  2.436258e+01
     vertex -3.500000e+01  1.780902e+01  2.441221e+01
     vertex -3.750000e+01  1.780902e+01  2.441221e+01
   endloop
 endfacet
 facet normal  0.000000e+00 -7.501111e-01  6.613119e-01
   outer loop
     vertex -3.500000e+01  1.772897e+01  2.431545e+01
     vertex -3.500000e+01  1.777051e+01  2.436258e+01
     vertex -3.750000e+01  1.777051e+01  2.436258e+01
   endloop
 endfacet
 facet normal  0.000000e+00 -7.501111e-01  6.613119e-01
   outer loop
     vertex -3.500000e+01  1.772897e+01  2.431545e+01
     vertex -3.750000e+01  1.777051e+01  2.436258e+01
     vertex -3.750000e+01  1.772897e+01  2.431545e+01
   endloop
 endfacet
 facet normal  0.000000e+00 -7.071068e-01  7.071068e-01
   outer loop
     vertex -3.500000e+01  1.768455e+01  2.427103e+01
     vertex -3.500000e+01  1.772897e+01  2.431545e+01
     vertex -3.750000e+01  1.772897e+01  2.431545e+01
   endloop
 endfacet
 facet normal  0.000000e+00 -7.071068e-01  7.071068e-01
   outer loop
     vertex -3.500000e+01  1.768455e+01  2.427103e+01
     vertex -3.750000e+01  1.772897e+01  2.431545e+01
     vertex -3.750000e+01  1.768455e+01  2.427103e+01
   endloop
 endfacet
 facet normal  0.000000e+00 -6.613119e-01  7.501111e-01
   outer loop
     vertex -3.500000e+01  1.768455e+01  2.427103e+01
     vertex -3.750000e+01  1.768455e+01  2.427103e+01
     vertex -3.750000e+01  1.763742e+01  2.422949e+01
   endloop
 endfacet
 facet normal  0.000000e+00 -6.613119e-01  7.501111e-01
   outer loop
     vertex -3.500000e+01  1.763742e+01  2.422949e+01
     vertex -3.500000e+01  1.768455e+01  2.427103e+01
     vertex -3.750000e+01  1.763742e+01  2.422949e+01
   endloop
 endfacet
 facet normal  0.000000e+00 -6.129071e-01  7.901550e-01
   outer loop
     vertex -3.500000e+01  1.763742e+01  2.422949e+01
     vertex -3.750000e+01  1.763742e+01  2.422949e+01
     vertex -3.750000e+01  1.758779e+01  2.419098e+01
   endloop
 endfacet
 facet normal  0.000000e+00 -6.129071e-01  7.901550e-01
   outer loop
     vertex -3.500000e+01  1.758779e+01  2.419098e+01
     vertex -3.500000e+01  1.763742e+01  2.422949e+01
     vertex -3.750000e+01  1.758779e+01  2.419098e+01
   endloop
 endfacet
 facet normal  0.000000e+00 -5.620834e-01  8.270806e-01
   outer loop
     vertex -3.500000e+01  1.753583e+01  2.415567e+01
     vertex -3.750000e+01  1.758779e+01  2.419098e+01
     vertex -3.750000e+01  1.753583e+01  2.415567e+01
   endloop
 endfacet
 facet normal  0.000000e+00 -5.620834e-01  8.270806e-01
   outer loop
     vertex -3.500000e+01  1.753583e+01  2.415567e+01
     vertex -3.500000e+01  1.758779e+01  2.419098e+01
     vertex -3.750000e+01  1.758779e+01  2.419098e+01
   endloop
 endfacet
 facet normal  0.000000e+00 -5.090414e-01  8.607420e-01
   outer loop
     vertex -3.500000e+01  1.748175e+01  2.412369e+01
     vertex -3.750000e+01  1.753583e+01  2.415567e+01
     vertex -3.750000e+01  1.748175e+01  2.412369e+01
   endloop
 endfacet
 facet normal  0.000000e+00 -5.090414e-01  8.607420e-01
   outer loop
     vertex -3.500000e+01  1.748175e+01  2.412369e+01
     vertex -3.500000e+01  1.753583e+01  2.415567e+01
     vertex -3.750000e+01  1.753583e+01  2.415567e+01
   endloop
 endfacet
 facet normal  0.000000e+00 -4.539905e-01  8.910065e-01
   outer loop
     vertex -3.500000e+01  1.742578e+01  2.409517e+01
     vertex -3.750000e+01  1.748175e+01  2.412369e+01
     vertex -3.750000e+01  1.742578e+01  2.409517e+01
   endloop
 endfacet
 facet normal  0.000000e+00 -4.539905e-01  8.910065e-01
   outer loop
     vertex -3.500000e+01  1.742578e+01  2.409517e+01
     vertex -3.500000e+01  1.748175e+01  2.412369e+01
     vertex -3.750000e+01  1.748175e+01  2.412369e+01
   endloop
 endfacet
 facet normal  0.000000e+00 -3.971479e-01  9.177546e-01
   outer loop
     vertex -3.500000e+01  1.736812e+01  2.407022e+01
     vertex -3.750000e+01  1.742578e+01  2.409517e+01
     vertex -3.750000e+01  1.736812e+01  2.407022e+01
   endloop
 endfacet
 facet normal  0.000000e+00 -3.971479e-01  9.177546e-01
   outer loop
     vertex -3.500000e+01  1.736812e+01  2.407022e+01
     vertex -3.500000e+01  1.742578e+01  2.409517e+01
     vertex -3.750000e+01  1.742578e+01  2.409517e+01
   endloop
 endfacet
 facet normal  0.000000e+00 -3.387379e-01  9.408808e-01
   outer loop
     vertex -3.500000e+01  1.730902e+01  2.404894e+01
     vertex -3.750000e+01  1.736812e+01  2.407022e+01
     vertex -3.750000e+01  1.730902e+01  2.404894e+01
   endloop
 endfacet
 facet normal  0.000000e+00 -2.789911e-01  9.602937e-01
   outer loop
     vertex -3.500000e+01  1.730902e+01  2.404894e+01
     vertex -3.750000e+01  1.730902e+01  2.404894e+01
     vertex -3.750000e+01  1.724869e+01  2.403142e+01
   endloop
 endfacet
 facet normal  0.000000e+00 -3.387379e-01  9.408808e-01
   outer loop
     vertex -3.500000e+01  1.730902e+01  2.404894e+01
     vertex -3.500000e+01  1.736812e+01  2.407022e+01
     vertex -3.750000e+01  1.736812e+01  2.407022e+01
   endloop
 endfacet
 facet normal  0.000000e+00 -2.789911e-01  9.602937e-01
   outer loop
     vertex -3.500000e+01  1.724869e+01  2.403142e+01
     vertex -3.500000e+01  1.730902e+01  2.404894e+01
     vertex -3.750000e+01  1.724869e+01  2.403142e+01
   endloop
 endfacet
 facet normal  0.000000e+00 -2.181432e-01  9.759168e-01
   outer loop
     vertex -3.500000e+01  1.718738e+01  2.401771e+01
     vertex -3.750000e+01  1.724869e+01  2.403142e+01
     vertex -3.750000e+01  1.718738e+01  2.401771e+01
   endloop
 endfacet
 facet normal  0.000000e+00 -1.564345e-01  9.876883e-01
   outer loop
     vertex -3.500000e+01  1.718738e+01  2.401771e+01
     vertex -3.750000e+01  1.718738e+01  2.401771e+01
     vertex -3.750000e+01  1.712533e+01  2.400789e+01
   endloop
 endfacet
 facet normal  0.000000e+00 -2.181432e-01  9.759168e-01
   outer loop
     vertex -3.500000e+01  1.718738e+01  2.401771e+01
     vertex -3.500000e+01  1.724869e+01  2.403142e+01
     vertex -3.750000e+01  1.724869e+01  2.403142e+01
   endloop
 endfacet
 facet normal  0.000000e+00 -1.564345e-01  9.876883e-01
   outer loop
     vertex -3.500000e+01  1.712533e+01  2.400789e+01
     vertex -3.500000e+01  1.718738e+01  2.401771e+01
     vertex -3.750000e+01  1.712533e+01  2.400789e+01
   endloop
 endfacet
 facet normal  0.000000e+00 -9.410831e-02  9.955620e-01
   outer loop
     vertex -3.500000e+01  1.706279e+01  2.400197e+01
     vertex -3.750000e+01  1.712533e+01  2.400789e+01
     vertex -3.750000e+01  1.706279e+01  2.400197e+01
   endloop
 endfacet
 facet normal  0.000000e+00 -9.410831e-02  9.955620e-01
   outer loop
     vertex -3.500000e+01  1.706279e+01  2.400197e+01
     vertex -3.500000e+01  1.712533e+01  2.400789e+01
     vertex -3.750000e+01  1.712533e+01  2.400789e+01
   endloop
 endfacet
 facet normal  0.000000e+00 -3.141076e-02  9.995066e-01
   outer loop
     vertex -3.500000e+01  1.700000e+01  2.400000e+01
     vertex -3.750000e+01  1.706279e+01  2.400197e+01
     vertex -3.750000e+01  1.700000e+01  2.400000e+01
   endloop
 endfacet
 facet normal  0.000000e+00 -3.141076e-02  9.995066e-01
   outer loop
     vertex -3.500000e+01  1.700000e+01  2.400000e+01
     vertex -3.500000e+01  1.706279e+01  2.400197e+01
     vertex -3.750000e+01  1.706279e+01  2.400197e+01
   endloop
 endfacet
 facet normal  1.448522e-199 -5.500717e-201 -1.000000e+00
   outer loop
     vertex -3.600000e+01  3.000000e+01 -1.828988e-199
     vertex -3.750000e+01 -2.850000e+01 -7.838521e-200
     vertex -3.750000e+01  2.850000e+01 -3.919261e-199
   endloop
 endfacet
 facet normal -5.791796e-199  1.306420e-200 -1.000000e+00
   outer loop
     vertex -3.600000e+01  3.000000e+01 -1.828988e-199
     vertex -3.600000e+01 -3.000000e+01 -9.667509e-199
     vertex -3.750000e+01 -2.850000e+01 -7.838521e-200
   endloop
 endfacet
 facet normal  1.596736e-200  1.306420e-200 -1.000000e+00
   outer loop
     vertex  3.600000e+01 -3.000000e+01  1.828988e-199
     vertex -3.600000e+01 -3.000000e+01 -9.667509e-199
     vertex -3.600000e+01  3.000000e+01 -1.828988e-199
   endloop
 endfacet
 facet normal  1.262873e-199  1.306420e-200 -1.000000e+00
   outer loop
     vertex  3.600000e+01  3.000000e+01  9.667509e-199
     vertex  3.750000e+01 -2.850000e+01  3.919261e-199
     vertex  3.600000e+01 -3.000000e+01  1.828988e-199
   endloop
 endfacet
 facet normal -5.977445e-199 -5.500717e-201 -1.000000e+00
   outer loop
     vertex  3.600000e+01  3.000000e+01  9.667509e-199
     vertex  3.750000e+01  2.850000e+01  7.838521e-200
     vertex  3.750000e+01 -2.850000e+01  3.919261e-199
   endloop
 endfacet
 facet normal  1.596736e-200  1.306420e-200 -1.000000e+00
   outer loop
     vertex  3.600000e+01  3.000000e+01  9.667509e-199
     vertex  3.600000e+01 -3.000000e+01  1.828988e-199
     vertex -3.600000e+01  3.000000e+01 -1.828988e-199
   endloop
 endfacet
 facet normal  0.000000e+00 -1.000000e+00  0.000000e+00
   outer loop
     vertex -3.750000e+01  1.800000e+01  2.500000e+01
     vertex -3.500000e+01  1.800000e+01  2.700000e+01
     vertex -3.750000e+01  1.800000e+01  2.700000e+01
   endloop
 endfacet
 facet normal  0.000000e+00 -1.000000e+00  0.000000e+00
   outer loop
     vertex -3.750000e+01  1.800000e+01  2.500000e+01
     vertex -3.500000e+01  1.800000e+01  2.500000e+01
     vertex -3.500000e+01  1.800000e+01  2.700000e+01
   endloop
 endfacet
 facet normal -7.071068e-01  7.071068e-01  0.000000e+00
   outer loop
     vertex -3.600000e+01  3.000000e+01  2.700000e+01
     vertex -3.600000e+01  3.000000e+01 -1.828988e-199
     vertex -3.750000e+01  2.850000e+01 -3.919261e-199
   endloop
 endfacet
 facet normal -7.071068e-01  7.071068e-01  0.000000e+00
   outer loop
     vertex -3.600000e+01  3.000000e+01  2.700000e+01
     vertex -3.750000e+01  2.850000e+01 -3.919261e-199
     vertex -3.750000e+01  2.850000e+01  2.700000e+01
   endloop
 endfacet
 facet normal  1.000000e+00  0.000000e+00  0.000000e+00
   outer loop
     vertex -3.500000e+01  1.768455e+01  2.427103e+01
     vertex -3.500000e+01  2.750000e+01  2.700000e+01
     vertex -3.500000e+01  1.772897e+01  2.431545e+01
   endloop
 endfacet
 facet normal  1.000000e+00 -0.000000e+00  0.000000e+00
   outer loop
     vertex -3.500000e+01  1.763742e+01  2.422949e+01
     vertex -3.500000e+01  2.750000e+01  2.000000e+00
     vertex -3.500000e+01  2.750000e+01  2.700000e+01
   endloop
 endfacet
 facet normal  1.000000e+00  0.000000e+00  0.000000e+00
   outer loop
     vertex -3.500000e+01  1.763742e+01  2.422949e+01
     vertex -3.500000e+01  2.750000e+01  2.700000e+01
     vertex -3.500000e+01  1.768455e+01  2.427103e+01
   endloop
 endfacet
 facet normal  1.000000e+00 -0.000000e+00  0.000000e+00
   outer loop
     vertex -3.500000e+01  1.777051e+01  2.436258e+01
     vertex -3.500000e+01  1.772897e+01  2.431545e+01
     vertex -3.500000e+01  2.750000e+01  2.700000e+01
   endloop
 endfacet
 facet normal  1.000000e+00 -0.000000e+00  0.000000e+00
   outer loop
     vertex -3.500000e+01  1.758779e+01  2.419098e+01
     vertex -3.500000e+01  2.750000e+01  2.000000e+00
     vertex -3.500000e+01  1.763742e+01  2.422949e+01
   endloop
 endfacet
 facet normal  1.000000e+00 -0.000000e+00  0.000000e+00
   outer loop
     vertex -3.500000e+01  1.780902e+01  2.441221e+01
     vertex -3.500000e+01  1.777051e+01  2.436258e+01
     vertex -3.500000e+01  2.750000e+01  2.700000e+01
   endloop
 endfacet
 facet normal  1.000000e+00 -0.000000e+00  0.000000e+00
   outer loop
     vertex -3.500000e+01  1.784433e+01  2.446417e+01
     vertex -3.500000e+01  1.780902e+01  2.441221e+01
     vertex -3.500000e+01  2.750000e+01  2.700000e+01
   endloop
 endfacet
 facet normal  1.000000e+00 -0.000000e+00  0.000000e+00
   outer loop
     vertex -3.500000e+01  1.753583e+01  2.415567e+01
     vertex -3.500000e+01  2.750000e+01  2.000000e+00
     vertex -3.500000e+01  1.758779e+01  2.419098e+01
   endloop
 endfacet
 facet normal  1.000000e+00 -0.000000e+00  0.000000e+00
   outer loop
     vertex -3.500000e+01  1.787631e+01  2.451825e+01
     vertex -3.500000e+01  1.784433e+01  2.446417e+01
     vertex -3.500000e+01  2.750000e+01  2.700000e+01
   endloop
 endfacet
 facet normal  1.000000e+00 -0.000000e+00  0.000000e+00
   outer loop
     vertex -3.500000e+01  1.748175e+01  2.412369e+01
     vertex -3.500000e+01  2.750000e+01  2.000000e+00
     vertex -3.500000e+01  1.753583e+01  2.415567e+01
   endloop
 endfacet
 facet normal  1.000000e+00 -0.000000e+00  0.000000e+00
   outer loop
     vertex -3.500000e+01  1.790483e+01  2.457422e+01
     vertex -3.500000e+01  1.787631e+01  2.451825e+01
     vertex -3.500000e+01  2.750000e+01  2.700000e+01
   endloop
 endfacet
 facet normal  1.000000e+00 -0.000000e+00  0.000000e+00
   outer loop
     vertex -3.500000e+01  1.742578e+01  2.409517e+01
     vertex -3.500000e+01  2.750000e+01  2.000000e+00
     vertex -3.500000e+01  1.748175e+01  2.412369e+01
   endloop
 endfacet
 facet normal  1.000000e+00 -0.000000e+00  0.000000e+00
   outer loop
     vertex -3.500000e+01  1.736812e+01  2.407022e+01
     vertex -3.500000e+01  2.750000e+01  2.000000e+00
     vertex -3.500000e+01  1.742578e+01  2.409517e+01
   endloop
 endfacet
 facet normal  1.000000e+00 -0.000000e+00  0.000000e+00
   outer loop
     vertex -3.500000e+01  1.792978e+01  2.463188e+01
     vertex -3.500000e+01  1.790483e+01  2.457422e+01
     vertex -3.500000e+01  2.750000e+01  2.700000e+01
   endloop
 endfacet
 facet normal  1.000000e+00 -0.000000e+00  0.000000e+00
   outer loop
     vertex -3.500000e+01  1.730902e+01  2.404894e+01
     vertex -3.500000e+01  2.750000e+01  2.000000e+00
     vertex -3.500000e+01  1.736812e+01  2.407022e+01
   endloop
 endfacet
 facet normal  1.000000e+00 -0.000000e+00  0.000000e+00
   outer loop
     vertex -3.500000e+01  1.795106e+01  2.469098e+01
     vertex -3.500000e+01  1.792978e+01  2.463188e+01
     vertex -3.500000e+01  2.750000e+01  2.700000e+01
   endloop
 endfacet
 facet normal  1.000000e+00 -0.000000e+00  0.000000e+00
   outer loop
     vertex -3.500000e+01  1.796858e+01  2.475131e+01
     vertex -3.500000e+01  1.795106e+01  2.469098e+01
     vertex -3.500000e+01  2.750000e+01  2.700000e+01
   endloop
 endfacet
 facet normal  1.000000e+00 -0.000000e+00  0.000000e+00
   outer loop
     vertex -3.500000e+01  1.724869e+01  2.403142e+01
     vertex -3.500000e+01  2.750000e+01  2.000000e+00
     vertex -3.500000e+01  1.730902e+01  2.404894e+01
   endloop
 endfacet
 facet normal  1.000000e+00 -0.000000e+00  0.000000e+00
   outer loop
     vertex -3.500000e+01  1.718738e+01  2.401771e+01
     vertex -3.500000e+01  2.750000e+01  2.000000e+00
     vertex -3.500000e+01  1.724869e+01  2.403142e+01
   endloop
 endfacet
 facet normal  1.000000e+00 -0.000000e+00  0.000000e+00
   outer loop
     vertex -3.500000e+01  1.798229e+01  2.481262e+01
     vertex -3.500000e+01  1.796858e+01  2.475131e+01
     vertex -3.500000e+01  2.750000e+01  2.700000e+01
   endloop
 endfacet
 facet normal  1.000000e+00 -0.000000e+00  0.000000e+00
   outer loop
     vertex -3.500000e+01  1.799211e+01  2.487467e+01
     vertex -3.500000e+01  1.798229e+01  2.481262e+01
     vertex -3.500000e+01  2.750000e+01  2.700000e+01
   endloop
 endfacet
 facet normal  1.000000e+00 -0.000000e+00  0.000000e+00
   outer loop
     vertex -3.500000e+01  1.712533e+01  2.400789e+01
     vertex -3.500000e+01  2.750000e+01  2.000000e+00
     vertex -3.500000e+01  1.718738e+01  2.401771e+01
   endloop
 endfacet
 facet normal  1.000000e+00 -0.000000e+00  0.000000e+00
   outer loop
     vertex -3.500000e+01  1.799803e+01  2.493721e+01
     vertex -3.500000e+01  1.799211e+01  2.487467e+01
     vertex -3.500000e+01  2.750000e+01  2.700000e+01
   endloop
 endfacet
 facet normal  1.000000e+00 -0.000000e+00  0.000000e+00
   outer loop
     vertex -3.500000e+01  1.706279e+01  2.400197e+01
     vertex -3.500000e+01  2.750000e+01  2.000000e+00
     vertex -3.500000e+01  1.712533e+01  2.400789e+01
   endloop
 endfacet
 facet normal  1.000000e+00 -0.000000e+00  0.000000e+00
   outer loop
     vertex -3.500000e+01  1.700000e+01  2.400000e+01
     vertex -3.500000e+01  2.750000e+01  2.000000e+00
     vertex -3.500000e+01  1.706279e+01  2.400197e+01
   endloop
 endfacet
 facet normal  1.000000e+00 -0.000000e+00  0.000000e+00
   outer loop
     vertex -3.500000e+01  1.800000e+01  2.500000e+01
     vertex -3.500000e+01  1.799803e+01  2.493721e+01
     vertex -3.500000e+01  2.750000e+01  2.700000e+01
   endloop
 endfacet
 facet normal  1.000000e+00 -0.000000e+00  0.000000e+00
   outer loop
     vertex -3.500000e+01  1.800000e+01  2.700000e+01
     vertex -3.500000e+01  1.800000e+01  2.500000e+01
     vertex -3.500000e+01  2.750000e+01  2.700000e+01
   endloop
 endfacet
 facet normal  1.000000e+00 -0.000000e+00  0.000000e+00
   outer loop
     vertex -3.500000e+01  1.300000e+01  2.400000e+01
     vertex -3.500000e+01  2.750000e+01  2.000000e+00
     vertex -3.500000e+01  1.700000e+01  2.400000e+01
   endloop
 endfacet
 facet normal  1.000000e+00  0.000000e+00  0.000000e+00
   outer loop
     vertex -3.500000e+01  1.293721e+01  2.400197e+01
     vertex -3.500000e+01  2.750000e+01  2.000000e+00
     vertex -3.500000e+01  1.300000e+01  2.400000e+01
   endloop
 endfacet
 facet normal  1.000000e+00  0.000000e+00  0.000000e+00
   outer loop
     vertex -3.500000e+01  1.287467e+01  2.400789e+01
     vertex -3.500000e+01  2.750000e+01  2.000000e+00
     vertex -3.500000e+01  1.293721e+01  2.400197e+01
   endloop
 endfacet
 facet normal  1.000000e+00  0.000000e+00  0.000000e+00
   outer loop
     vertex -3.500000e+01  1.281262e+01  2.401771e+01
     vertex -3.500000e+01  2.750000e+01  2.000000e+00
     vertex -3.500000e+01  1.287467e+01  2.400789e+01
   endloop
 endfacet
 facet normal  1.000000e+00  0.000000e+00  0.000000e+00
   outer loop
     vertex -3.500000e+01  1.275131e+01  2.403142e+01
     vertex -3.500000e+01  2.750000e+01  2.000000e+00
     vertex -3.500000e+01  1.281262e+01  2.401771e+01
   endloop
 endfacet
 facet normal  1.000000e+00  0.000000e+00  0.000000e+00
   outer loop
     vertex -3.500000e+01  1.269098e+01  2.404894e+01
     vertex -3.500000e+01  2.750000e+01  2.000000e+00
     vertex -3.500000e+01  1.275131e+01  2.403142e+01
   endloop
 endfacet
 facet normal  1.000000e+00  0.000000e+00  0.000000e+00
   outer loop
     vertex -3.500000e+01  1.263188e+01  2.407022e+01
     vertex -3.500000e+01  2.750000e+01  2.000000e+00
     vertex -3.500000e+01  1.269098e+01  2.404894e+01
   endloop
 endfacet
 facet normal  1.000000e+00  0.000000e+00  0.000000e+00
   outer loop
     vertex -3.500000e+01  1.257422e+01  2.409517e+01
     vertex -3.500000e+01  2.750000e+01  2.000000e+00
     vertex -3.500000e+01  1.263188e+01  2.407022e+01
   endloop
 endfacet
 facet normal  1.000000e+00  0.000000e+00  0.000000e+00
   outer loop
     vertex -3.500000e+01  1.251825e+01  2.412369e+01
     vertex -3.500000e+01  2.750000e+01  2.000000e+00
     vertex -3.500000e+01  1.257422e+01  2.409517e+01
   endloop
 endfacet
 facet normal  1.000000e+00  0.000000e+00  0.000000e+00
   outer loop
     vertex -3.500000e+01 -2.750000e+01  2.000000e+00
     vertex -3.500000e+01  1.212369e+01  2.451825e+01
     vertex -3.500000e+01  1.209517e+01  2.457422e+01
   endloop
 endfacet
 facet normal  1.000000e+00  0.000000e+00  0.000000e+00
   outer loop
     vertex -3.500000e+01 -2.750000e+01  2.000000e+00
     vertex -3.500000e+01  1.215567e+01  2.446417e+01
     vertex -3.500000e+01  1.212369e+01  2.451825e+01
   endloop
 endfacet
 facet normal  1.000000e+00  0.000000e+00  0.000000e+00
   outer loop
     vertex -3.500000e+01 -2.750000e+01  2.000000e+00
     vertex -3.500000e+01  1.219098e+01  2.441221e+01
     vertex -3.500000e+01  1.215567e+01  2.446417e+01
   endloop
 endfacet
 facet normal  1.000000e+00  0.000000e+00  0.000000e+00
   outer loop
     vertex -3.500000e+01 -2.750000e+01  2.000000e+00
     vertex -3.500000e+01  1.222949e+01  2.436258e+01
     vertex -3.500000e+01  1.219098e+01  2.441221e+01
   endloop
 endfacet
 facet normal  1.000000e+00  0.000000e+00  0.000000e+00
   outer loop
     vertex -3.500000e+01 -2.750000e+01  2.000000e+00
     vertex -3.500000e+01  1.227103e+01  2.431545e+01
     vertex -3.500000e+01  1.222949e+01  2.436258e+01
   endloop
 endfacet
 facet normal  1.000000e+00  0.000000e+00  0.000000e+00
   outer loop
     vertex -3.500000e+01 -2.750000e+01  2.000000e+00
     vertex -3.500000e+01  1.231545e+01  2.427103e+01
     vertex -3.500000e+01  1.227103e+01  2.431545e+01
   endloop
 endfacet
 facet normal  1.000000e+00  0.000000e+00  0.000000e+00
   outer loop
     vertex -3.500000e+01 -2.750000e+01  2.000000e+00
     vertex -3.500000e+01  1.236258e+01  2.422949e+01
     vertex -3.500000e+01  1.231545e+01  2.427103e+01
   endloop
 endfacet
 facet normal  1.000000e+00  0.000000e+00  0.000000e+00
   outer loop
     vertex -3.500000e+01 -2.750000e+01  2.000000e+00
     vertex -3.500000e+01  1.241221e+01  2.419098e+01
     vertex -3.500000e+01  1.236258e+01  2.422949e+01
   endloop
 endfacet
 facet normal  1.000000e+00  0.000000e+00  0.000000e+00
   outer loop
     vertex -3.500000e+01 -2.750000e+01  2.000000e+00
     vertex -3.500000e+01  1.246417e+01  2.415567e+01
     vertex -3.500000e+01  1.241221e+01  2.419098e+01
   endloop
 endfacet
 facet normal  1.000000e+00  0.000000e+00  0.000000e+00
   outer loop
     vertex -3.500000e+01 -2.750000e+01  2.000000e+00
     vertex -3.500000e+01  1.251825e+01  2.412369e+01
     vertex -3.500000e+01  1.246417e+01  2.415567e+01
   endloop
 endfacet
 facet normal  1.000000e+00  0.000000e+00  0.000000e+00
   outer loop
     vertex -3.500000e+01 -2.750000e+01  2.000000e+00
     vertex -3.500000e+01  2.750000e+01  2.000000e+00
     vertex -3.500000e+01  1.251825e+01  2.412369e+01
   endloop
 endfacet
 facet normal  1.000000e+00 -0.000000e+00  0.000000e+00
   outer loop
     vertex -3.500000e+01 -2.750000e+01  2.700000e+01
     vertex -3.500000e+01  1.200000e+01  2.500000e+01
     vertex -3.500000e+01  1.200000e+01  2.700000e+01
   endloop
 endfacet
 facet normal  1.000000e+00  0.000000e+00  0.000000e+00
   outer loop
     vertex -3.500000e+01 -2.750000e+01  2.700000e+01
     vertex -3.500000e+01  1.200197e+01  2.493721e+01
     vertex -3.500000e+01  1.200000e+01  2.500000e+01
   endloop
 endfacet
 facet normal  1.000000e+00  0.000000e+00  0.000000e+00
   outer loop
     vertex -3.500000e+01 -2.750000e+01  2.700000e+01
     vertex -3.500000e+01  1.200789e+01  2.487467e+01
     vertex -3.500000e+01  1.200197e+01  2.493721e+01
   endloop
 endfacet
 facet normal  1.000000e+00  0.000000e+00  0.000000e+00
   outer loop
     vertex -3.500000e+01 -2.750000e+01  2.700000e+01
     vertex -3.500000e+01  1.201771e+01  2.481262e+01
     vertex -3.500000e+01  1.200789e+01  2.487467e+01
   endloop
 endfacet
 facet normal  1.000000e+00  0.000000e+00  0.000000e+00
   outer loop
     vertex -3.500000e+01 -2.750000e+01  2.700000e+01
     vertex -3.500000e+01  1.203142e+01  2.475131e+01
     vertex -3.500000e+01  1.201771e+01  2.481262e+01
   endloop
 endfacet
 facet normal  1.000000e+00  0.000000e+00  0.000000e+00
   outer loop
     vertex -3.500000e+01 -2.750000e+01  2.700000e+01
     vertex -3.500000e+01  1.204894e+01  2.469098e+01
     vertex -3.500000e+01  1.203142e+01  2.475131e+01
   endloop
 endfacet
 facet normal  1.000000e+00  0.000000e+00  0.000000e+00
   outer loop
     vertex -3.500000e+01 -2.750000e+01  2.700000e+01
     vertex -3.500000e+01  1.207022e+01  2.463188e+01
     vertex -3.500000e+01  1.204894e+01  2.469098e+01
   endloop
 endfacet
 facet normal  1.000000e+00  0.000000e+00  0.000000e+00
   outer loop
     vertex -3.500000e+01 -2.750000e+01  2.700000e+01
     vertex -3.500000e+01  1.209517e+01  2.457422e+01
     vertex -3.500000e+01  1.207022e+01  2.463188e+01
   endloop
 endfacet
 facet normal  1.000000e+00  0.000000e+00  0.000000e+00
   outer loop
     vertex -3.500000e+01 -2.750000e+01  2.700000e+01
     vertex -3.500000e+01 -2.750000e+01  2.000000e+00
     vertex -3.500000e+01  1.209517e+01  2.457422e+01
   endloop
 endfacet
 facet normal  6.082246e-14  1.000000e+00  0.000000e+00
   outer loop
     vertex -2.250000e+01 -2.750000e+01  2.350000e+01
     vertex -3.500000e+01 -2.750000e+01  2.000000e+00
     vertex -3.500000e+01 -2.750000e+01  2.700000e+01
   endloop
 endfacet
 facet normal  6.082246e-14  1.000000e+00  0.000000e+00
   outer loop
     vertex -2.250000e+01 -2.750000e+01  2.500000e+01
     vertex -2.250000e+01 -2.750000e+01  2.350000e+01
     vertex -3.500000e+01 -2.750000e+01  2.700000e+01
   endloop
 endfacet
 facet normal  0.000000e+00  1.000000e+00  3.536189e-14
   outer loop
     vertex -1.450000e+01 -2.750000e+01  2.350000e+01
     vertex -3.500000e+01 -2.750000e+01  2.000000e+00
     vertex -2.250000e+01 -2.750000e+01  2.350000e+01
   endloop
 endfacet
 facet normal  0.000000e+00  1.000000e+00  3.536189e-14
   outer loop
     vertex  3.500000e+01 -2.750000e+01  2.000000e+00
     vertex -3.500000e+01 -2.750000e+01  2.000000e+00
     vertex -1.450000e+01 -2.750000e+01  2.350000e+01
   endloop
 endfacet
 facet normal  0.000000e+00  1.000000e+00  0.000000e+00
   outer loop
     vertex  1.450000e+01 -2.750000e+01  2.350000e+01
     vertex -1.450000e+01 -2.750000e+01  2.350000e+01
     vertex -1.450000e+01 -2.750000e+01  2.500000e+01
   endloop
 endfacet
 facet normal -1.732837e-28  1.000000e+00  3.536189e-14
   outer loop
     vertex  1.450000e+01 -2.750000e+01  2.350000e+01
     vertex  3.500000e+01 -2.750000e+01  2.000000e+00
     vertex -1.450000e+01 -2.750000e+01  2.350000e+01
   endloop
 endfacet
 facet normal  0.000000e+00  1.000000e+00  0.000000e+00
   outer loop
     vertex  1.450000e+01 -2.750000e+01  2.500000e+01
     vertex  1.450000e+01 -2.750000e+01  2.350000e+01
     vertex -1.450000e+01 -2.750000e+01  2.500000e+01
   endloop
 endfacet
 facet normal  0.000000e+00  1.000000e+00  3.536189e-14
   outer loop
     vertex  2.250000e+01 -2.750000e+01  2.350000e+01
     vertex  3.500000e+01 -2.750000e+01  2.000000e+00
     vertex  1.450000e+01 -2.750000e+01  2.350000e+01
   endloop
 endfacet
 facet normal -6.082246e-14  1.000000e+00  0.000000e+00
   outer loop
     vertex  3.500000e+01 -2.750000e+01  2.700000e+01
     vertex  2.250000e+01 -2.750000e+01  2.350000e+01
     vertex  2.250000e+01 -2.750000e+01  2.500000e+01
   endloop
 endfacet
 facet normal -6.082246e-14  1.000000e+00  0.000000e+00
   outer loop
     vertex  3.500000e+01 -2.750000e+01  2.700000e+01
     vertex  3.500000e+01 -2.750000e+01  2.000000e+00
     vertex  2.250000e+01 -2.750000e+01  2.350000e+01
   endloop
 endfacet
 facet normal  0.000000e+00  1.000000e+00 -3.801404e-13
   outer loop
     vertex  3.500000e+01 -2.750000e+01  2.700000e+01
     vertex -2.250000e+01 -2.750000e+01  2.500000e+01
     vertex -3.500000e+01 -2.750000e+01  2.700000e+01
   endloop
 endfacet
 facet normal  0.000000e+00  1.000000e+00 -3.801404e-13
   outer loop
     vertex  3.500000e+01 -2.750000e+01  2.700000e+01
     vertex -1.450000e+01 -2.750000e+01  2.500000e+01
     vertex -2.250000e+01 -2.750000e+01  2.500000e+01
   endloop
 endfacet
 facet normal -5.605809e-28  1.000000e+00 -3.801404e-13
   outer loop
     vertex  3.500000e+01 -2.750000e+01  2.700000e+01
     vertex  1.450000e+01 -2.750000e+01  2.500000e+01
     vertex -1.450000e+01 -2.750000e+01  2.500000e+01
   endloop
 endfacet
 facet normal  0.000000e+00  1.000000e+00 -3.801404e-13
   outer loop
     vertex  3.500000e+01 -2.750000e+01  2.700000e+01
     vertex  2.250000e+01 -2.750000e+01  2.500000e+01
     vertex  1.450000e+01 -2.750000e+01  2.500000e+01
   endloop
 endfacet
 facet normal -1.000000e+00 -0.000000e+00  0.000000e+00
   outer loop
     vertex  3.500000e+01  2.750000e+01  2.700000e+01
     vertex  3.500000e+01 -2.750000e+01  2.000000e+00
     vertex  3.500000e+01 -2.750000e+01  2.700000e+01
   endloop
 endfacet
 facet normal -1.000000e+00  0.000000e+00 -0.000000e+00
   outer loop
     vertex  3.500000e+01  2.750000e+01  2.700000e+01
     vertex  3.500000e+01  2.750000e+01  2.000000e+00
     vertex  3.500000e+01 -2.750000e+01  2.000000e+00
   endloop
 endfacet
 facet normal  0.000000e+00 -1.000000e+00  0.000000e+00
   outer loop
     vertex  2.250000e+01  2.750000e+01  2.350000e+01
     vertex  3.500000e+01  2.750000e+01  2.000000e+00
     vertex  3.500000e+01  2.750000e+01  2.700000e+01
   endloop
 endfacet
 facet normal  0.000000e+00 -1.000000e+00  0.000000e+00
   outer loop
     vertex  2.250000e+01  2.750000e+01  2.500000e+01
     vertex  2.250000e+01  2.750000e+01  2.350000e+01
     vertex  3.500000e+01  2.750000e+01  2.700000e+01
   endloop
 endfacet
 facet normal  0.000000e+00 -1.000000e+00  0.000000e+00
   outer loop
     vertex  1.450000e+01  2.750000e+01  2.350000e+01
     vertex  3.500000e+01  2.750000e+01  2.000000e+00
     vertex  2.250000e+01  2.750000e+01  2.350000e+01
   endloop
 endfacet
 facet normal  0.000000e+00 -1.000000e+00 -0.000000e+00
   outer loop
     vertex -1.450000e+01  2.750000e+01  2.350000e+01
     vertex -3.500000e+01  2.750000e+01  2.000000e+00
     vertex  3.500000e+01  2.750000e+01  2.000000e+00
   endloop
 endfacet
 facet normal  0.000000e+00 -1.000000e+00  0.000000e+00
   outer loop
     vertex -1.450000e+01  2.750000e+01  2.350000e+01
     vertex  3.500000e+01  2.750000e+01  2.000000e+00
     vertex  1.450000e+01  2.750000e+01  2.350000e+01
   endloop
 endfacet
 facet normal  0.000000e+00 -1.000000e+00  0.000000e+00
   outer loop
     vertex -1.450000e+01  2.750000e+01  2.500000e+01
     vertex  1.450000e+01  2.750000e+01  2.350000e+01
     vertex  1.450000e+01  2.750000e+01  2.500000e+01
   endloop
 endfacet
 facet normal  0.000000e+00 -1.000000e+00  0.000000e+00
   outer loop
     vertex -1.450000e+01  2.750000e+01  2.500000e+01
     vertex -1.450000e+01  2.750000e+01  2.350000e+01
     vertex  1.450000e+01  2.750000e+01  2.350000e+01
   endloop
 endfacet
 facet normal  0.000000e+00 -1.000000e+00 -0.000000e+00
   outer loop
     vertex -2.250000e+01  2.750000e+01  2.350000e+01
     vertex -3.500000e+01  2.750000e+01  2.000000e+00
     vertex -1.450000e+01  2.750000e+01  2.350000e+01
   endloop
 endfacet
 facet normal  0.000000e+00 -1.000000e+00  0.000000e+00
   outer loop
     vertex -3.500000e+01  2.750000e+01  2.700000e+01
     vertex -2.250000e+01  2.750000e+01  2.350000e+01
     vertex -2.250000e+01  2.750000e+01  2.500000e+01
   endloop
 endfacet
 facet normal  0.000000e+00 -1.000000e+00  0.000000e+00
   outer loop
     vertex -3.500000e+01  2.750000e+01  2.700000e+01
     vertex -3.500000e+01  2.750000e+01  2.000000e+00
     vertex -2.250000e+01  2.750000e+01  2.350000e+01
   endloop
 endfacet
 facet normal  0.000000e+00 -1.000000e+00  0.000000e+00
   outer loop
     vertex -3.500000e+01  2.750000e+01  2.700000e+01
     vertex  2.250000e+01  2.750000e+01  2.500000e+01
     vertex  3.500000e+01  2.750000e+01  2.700000e+01
   endloop
 endfacet
 facet normal  0.000000e+00 -1.000000e+00  0.000000e+00
   outer loop
     vertex -3.500000e+01  2.750000e+01  2.700000e+01
     vertex  1.450000e+01  2.750000e+01  2.500000e+01
     vertex  2.250000e+01  2.750000e+01  2.500000e+01
   endloop
 endfacet
 facet normal  0.000000e+00 -1.000000e+00  0.000000e+00
   outer loop
     vertex -3.500000e+01  2.750000e+01  2.700000e+01
     vertex -1.450000e+01  2.750000e+01  2.500000e+01
     vertex  1.450000e+01  2.750000e+01  2.500000e+01
   endloop
 endfacet
 facet normal  0.000000e+00 -1.000000e+00  0.000000e+00
   outer loop
     vertex -3.500000e+01  2.750000e+01  2.700000e+01
     vertex -2.250000e+01  2.750000e+01  2.500000e+01
     vertex -1.450000e+01  2.750000e+01  2.500000e+01
   endloop
 endfacet
 facet normal  0.000000e+00  1.000000e+00  0.000000e+00
   outer loop
     vertex  2.250000e+01  3.000000e+01  2.350000e+01
     vertex  2.250000e+01  3.000000e+01  2.500000e+01
     vertex  3.600000e+01  3.000000e+01  2.700000e+01
   endloop
 endfacet
 facet normal  0.000000e+00  1.000000e+00  0.000000e+00
   outer loop
     vertex  1.450000e+01  3.000000e+01  2.500000e+01
     vertex  3.600000e+01  3.000000e+01  2.700000e+01
     vertex  2.250000e+01  3.000000e+01  2.500000e+01
   endloop
 endfacet
 facet normal  0.000000e+00  1.000000e+00  0.000000e+00
   outer loop
     vertex  3.600000e+01  3.000000e+01  9.667509e-199
     vertex  1.450000e+01  3.000000e+01  2.350000e+01
     vertex  2.250000e+01  3.000000e+01  2.350000e+01
   endloop
 endfacet
 facet normal  0.000000e+00  1.000000e+00 -0.000000e+00
   outer loop
     vertex  3.600000e+01  3.000000e+01  9.667509e-199
     vertex  2.250000e+01  3.000000e+01  2.350000e+01
     vertex  3.600000e+01  3.000000e+01  2.700000e+01
   endloop
 endfacet
 facet normal  0.000000e+00  1.000000e+00  0.000000e+00
   outer loop
     vertex -1.450000e+01  3.000000e+01  2.350000e+01
     vertex  1.450000e+01  3.000000e+01  2.500000e+01
     vertex  1.450000e+01  3.000000e+01  2.350000e+01
   endloop
 endfacet
 facet normal  0.000000e+00  1.000000e+00  0.000000e+00
   outer loop
     vertex -1.450000e+01  3.000000e+01  2.350000e+01
     vertex -1.450000e+01  3.000000e+01  2.500000e+01
     vertex  1.450000e+01  3.000000e+01  2.500000e+01
   endloop
 endfacet
 facet normal  0.000000e+00  1.000000e+00  0.000000e+00
   outer loop
     vertex -3.600000e+01  3.000000e+01  2.700000e+01
     vertex -2.250000e+01  3.000000e+01  2.500000e+01
     vertex -2.250000e+01  3.000000e+01  2.350000e+01
   endloop
 endfacet
 facet normal  0.000000e+00  1.000000e+00  0.000000e+00
   outer loop
     vertex -3.600000e+01  3.000000e+01  2.700000e+01
     vertex -1.450000e+01  3.000000e+01  2.500000e+01
     vertex -2.250000e+01  3.000000e+01  2.500000e+01
   endloop
 endfacet
 facet normal  0.000000e+00  1.000000e+00  0.000000e+00
   outer loop
     vertex -3.600000e+01  3.000000e+01  2.700000e+01
     vertex  1.450000e+01  3.000000e+01  2.500000e+01
     vertex -1.450000e+01  3.000000e+01  2.500000e+01
   endloop
 endfacet
 facet normal -0.000000e+00  1.000000e+00  0.000000e+00
   outer loop
     vertex -3.600000e+01  3.000000e+01  2.700000e+01
     vertex  3.600000e+01  3.000000e+01  2.700000e+01
     vertex  1.450000e+01  3.000000e+01  2.500000e+01
   endloop
 endfacet
 facet normal  0.000000e+00  1.000000e+00  0.000000e+00
   outer loop
     vertex -3.600000e+01  3.000000e+01 -1.828988e-199
     vertex -2.250000e+01  3.000000e+01  2.350000e+01
     vertex -1.450000e+01  3.000000e+01  2.350000e+01
   endloop
 endfacet
 facet normal  0.000000e+00  1.000000e+00  0.000000e+00
   outer loop
     vertex -3.600000e+01  3.000000e+01 -1.828988e-199
     vertex  1.450000e+01  3.000000e+01  2.350000e+01
     vertex  3.600000e+01  3.000000e+01  9.667509e-199
   endloop
 endfacet
 facet normal  0.000000e+00  1.000000e+00  0.000000e+00
   outer loop
     vertex -3.600000e+01  3.000000e+01 -1.828988e-199
     vertex -1.450000e+01  3.000000e+01  2.350000e+01
     vertex  1.450000e+01  3.000000e+01  2.350000e+01
   endloop
 endfacet
 facet normal  0.000000e+00  1.000000e+00  0.000000e+00
   outer loop
     vertex -3.600000e+01  3.000000e+01 -1.828988e-199
     vertex -3.600000e+01  3.000000e+01  2.700000e+01
     vertex -2.250000e+01  3.000000e+01  2.350000e+01
   endloop
 endfacet
 facet normal  7.071068e-01  7.071068e-01  0.000000e+00
   outer loop
     vertex  3.600000e+01  3.000000e+01  2.700000e+01
     vertex  3.750000e+01  2.850000e+01  7.838521e-200
     vertex  3.600000e+01  3.000000e+01  9.667509e-199
   endloop
 endfacet
 facet normal  7.071068e-01  7.071068e-01  0.000000e+00
   outer loop
     vertex  3.600000e+01  3.000000e+01  2.700000e+01
     vertex  3.750000e+01  2.850000e+01  2.700000e+01
     vertex  3.750000e+01  2.850000e+01  7.838521e-200
   endloop
 endfacet
 facet normal  1.000000e+00  0.000000e+00  0.000000e+00
   outer loop
     vertex  3.750000e+01  2.850000e+01  7.838521e-200
     vertex  3.750000e+01 -2.850000e+01  2.700000e+01
     vertex  3.750000e+01 -2.850000e+01  3.919261e-199
   endloop
 endfacet
 facet normal  1.000000e+00  0.000000e+00 -0.000000e+00
   outer loop
     vertex  3.750000e+01  2.850000e+01  7.838521e-200
     vertex  3.750000e+01  2.850000e+01  2.700000e+01
     vertex  3.750000e+01 -2.850000e+01  2.700000e+01
   endloop
 endfacet
 facet normal  7.071068e-01 -7.071068e-01  0.000000e+00
   outer loop
     vertex  3.750000e+01 -2.850000e+01  2.700000e+01
     vertex  3.600000e+01 -3.000000e+01  1.828988e-199
     vertex  3.750000e+01 -2.850000e+01  3.919261e-199
   endloop
 endfacet
 facet normal  7.071068e-01 -7.071068e-01  0.000000e+00
   outer loop
     vertex  3.750000e+01 -2.850000e+01  2.700000e+01
     vertex  3.600000e+01 -3.000000e+01  2.700000e+01
     vertex  3.600000e+01 -3.000000e+01  1.828988e-199
   endloop
 endfacet
 facet normal -5.631709e-14 -1.000000e+00  0.000000e+00
   outer loop
     vertex -2.250000e+01 -3.000000e+01  2.350000e+01
     vertex -2.250000e+01 -3.000000e+01  2.500000e+01
     vertex -3.600000e+01 -3.000000e+01  2.700000e+01
   endloop
 endfacet
 facet normal  0.000000e+00 -1.000000e+00  3.801404e-13
   outer loop
     vertex -1.450000e+01 -3.000000e+01  2.500000e+01
     vertex -3.600000e+01 -3.000000e+01  2.700000e+01
     vertex -2.250000e+01 -3.000000e+01  2.500000e+01
   endloop
 endfacet
 facet normal  0.000000e+00 -1.000000e+00 -3.235237e-14
   outer loop
     vertex -3.600000e+01 -3.000000e+01 -9.667509e-199
     vertex -1.450000e+01 -3.000000e+01  2.350000e+01
     vertex -2.250000e+01 -3.000000e+01  2.350000e+01
   endloop
 endfacet
 facet normal -5.631709e-14 -1.000000e+00  0.000000e+00
   outer loop
     vertex -3.600000e+01 -3.000000e+01 -9.667509e-199
     vertex -2.250000e+01 -3.000000e+01  2.350000e+01
     vertex -3.600000e+01 -3.000000e+01  2.700000e+01
   endloop
 endfacet
 facet normal -0.000000e+00 -1.000000e+00  0.000000e+00
   outer loop
     vertex  1.450000e+01 -3.000000e+01  2.350000e+01
     vertex -1.450000e+01 -3.000000e+01  2.500000e+01
     vertex -1.450000e+01 -3.000000e+01  2.350000e+01
   endloop
 endfacet
 facet normal  0.000000e+00 -1.000000e+00  0.000000e+00
   outer loop
     vertex  1.450000e+01 -3.000000e+01  2.350000e+01
     vertex  1.450000e+01 -3.000000e+01  2.500000e+01
     vertex -1.450000e+01 -3.000000e+01  2.500000e+01
   endloop
 endfacet
 facet normal  0.000000e+00 -1.000000e+00  3.801404e-13
   outer loop
     vertex  3.600000e+01 -3.000000e+01  2.700000e+01
     vertex  1.450000e+01 -3.000000e+01  2.500000e+01
     vertex  2.250000e+01 -3.000000e+01  2.500000e+01
   endloop
 endfacet
 facet normal  5.631709e-14 -1.000000e+00  0.000000e+00
   outer loop
     vertex  3.600000e+01 -3.000000e+01  2.700000e+01
     vertex  2.250000e+01 -3.000000e+01  2.500000e+01
     vertex  2.250000e+01 -3.000000e+01  2.350000e+01
   endloop
 endfacet
 facet normal  5.605809e-28 -1.000000e+00  3.801404e-13
   outer loop
     vertex  3.600000e+01 -3.000000e+01  2.700000e+01
     vertex -1.450000e+01 -3.000000e+01  2.500000e+01
     vertex  1.450000e+01 -3.000000e+01  2.500000e+01
   endloop
 endfacet
 facet normal  0.000000e+00 -1.000000e+00  3.801404e-13
   outer loop
     vertex  3.600000e+01 -3.000000e+01  2.700000e+01
     vertex -3.600000e+01 -3.000000e+01  2.700000e+01
     vertex -1.450000e+01 -3.000000e+01  2.500000e+01
   endloop
 endfacet
 facet normal  0.000000e+00 -1.000000e+00 -3.235237e-14
   outer loop
     vertex  3.600000e+01 -3.000000e+01  1.828988e-199
     vertex  2.250000e+01 -3.000000e+01  2.350000e+01
     vertex  1.450000e+01 -3.000000e+01  2.350000e+01
   endloop
 endfacet
 facet normal  5.631709e-14 -1.000000e+00  0.000000e+00
   outer loop
     vertex  3.600000e+01 -3.000000e+01  1.828988e-199
     vertex  3.600000e+01 -3.000000e+01  2.700000e+01
     vertex  2.250000e+01 -3.000000e+01  2.350000e+01
   endloop
 endfacet
 facet normal  5.165819e-214 -1.000000e+00 -3.235237e-14
   outer loop
     vertex  3.600000e+01 -3.000000e+01  1.828988e-199
     vertex -1.450000e+01 -3.000000e+01  2.350000e+01
     vertex -3.600000e+01 -3.000000e+01 -9.667509e-199
   endloop
 endfacet
 facet normal  1.564619e-28 -1.000000e+00 -3.235237e-14
   outer loop
     vertex  3.600000e+01 -3.000000e+01  1.828988e-199
     vertex  1.450000e+01 -3.000000e+01  2.350000e+01
     vertex -1.450000e+01 -3.000000e+01  2.350000e+01
   endloop
 endfacet
 facet normal  0.000000e+00  0.000000e+00  1.000000e+00
   outer loop
     vertex  3.500000e+01  2.750000e+01  2.000000e+00
     vertex -3.500000e+01  2.750000e+01  2.000000e+00
     vertex -3.500000e+01 -2.750000e+01  2.000000e+00
   endloop
 endfacet
 facet normal  0.000000e+00  0.000000e+00  1.000000e+00
   outer loop
     vertex  3.500000e+01  2.750000e+01  2.000000e+00
     vertex -3.500000e+01 -2.750000e+01  2.000000e+00
     vertex  3.500000e+01 -2.750000e+01  2.000000e+00
   endloop
 endfacet
 facet normal  0.000000e+00  0.000000e+00  1.000000e+00
   outer loop
     vertex -1.450000e+01 -3.000000e+01  2.350000e+01
     vertex -2.250000e+01 -2.750000e+01  2.350000e+01
     vertex -2.250000e+01 -3.000000e+01  2.350000e+01
   endloop
 endfacet
 facet normal  0.000000e+00 -0.000000e+00  1.000000e+00
   outer loop
     vertex -1.450000e+01 -3.000000e+01  2.350000e+01
     vertex -1.450000e+01 -2.750000e+01  2.350000e+01
     vertex -2.250000e+01 -2.750000e+01  2.350000e+01
   endloop
 endfacet
 facet normal -1.000000e+00  0.000000e+00  0.000000e+00
   outer loop
     vertex -1.450000e+01 -3.000000e+01  2.350000e+01
     vertex -1.450000e+01 -2.750000e+01  2.500000e+01
     vertex -1.450000e+01 -2.750000e+01  2.350000e+01
   endloop
 endfacet
 facet normal -1.000000e+00  0.000000e+00  0.000000e+00
   outer loop
     vertex -1.450000e+01 -3.000000e+01  2.500000e+01
     vertex -1.450000e+01 -2.750000e+01  2.500000e+01
     vertex -1.450000e+01 -3.000000e+01  2.350000e+01
   endloop
 endfacet
 facet normal  0.000000e+00  0.000000e+00 -1.000000e+00
   outer loop
     vertex -2.250000e+01 -3.000000e+01  2.500000e+01
     vertex -1.450000e+01 -2.750000e+01  2.500000e+01
     vertex -1.450000e+01 -3.000000e+01  2.500000e+01
   endloop
 endfacet
 facet normal  0.000000e+00  0.000000e+00 -1.000000e+00
   outer loop
     vertex -2.250000e+01 -3.000000e+01  2.500000e+01
     vertex -2.250000e+01 -2.750000e+01  2.500000e+01
     vertex -1.450000e+01 -2.750000e+01  2.500000e+01
   endloop
 endfacet
 facet normal  1.000000e+00 -0.000000e+00  0.000000e+00
   outer loop
     vertex -2.250000e+01 -3.000000e+01  2.500000e+01
     vertex -2.250000e+01 -2.750000e+01  2.350000e+01
     vertex -2.250000e+01 -2.750000e+01  2.500000e+01
   endloop
 endfacet
 facet normal  1.000000e+00  0.000000e+00  0.000000e+00
   outer loop
     vertex -2.250000e+01 -3.000000e+01  2.350000e+01
     vertex -2.250000e+01 -2.750000e+01  2.350000e+01
     vertex -2.250000e+01 -3.000000e+01  2.500000e+01
   endloop
 endfacet
 facet normal  1.000000e+00 -0.000000e+00  0.000000e+00
   outer loop
     vertex  1.450000e+01 -3.000000e+01  2.500000e+01
     vertex  1.450000e+01 -2.750000e+01  2.350000e+01
     vertex  1.450000e+01 -2.750000e+01  2.500000e+01
   endloop
 endfacet
 facet normal  1.000000e+00  0.000000e+00  0.000000e+00
   outer loop
     vertex  1.450000e+01 -3.000000e+01  2.350000e+01
     vertex  1.450000e+01 -2.750000e+01  2.350000e+01
     vertex  1.450000e+01 -3.000000e+01  2.500000e+01
   endloop
 endfacet
 facet normal  0.000000e+00  0.000000e+00  1.000000e+00
   outer loop
     vertex  2.250000e+01 -3.000000e+01  2.350000e+01
     vertex  1.450000e+01 -2.750000e+01  2.350000e+01
     vertex  1.450000e+01 -3.000000e+01  2.350000e+01
   endloop
 endfacet
 facet normal  0.000000e+00 -0.000000e+00  1.000000e+00
   outer loop
     vertex  2.250000e+01 -3.000000e+01  2.350000e+01
     vertex  2.250000e+01 -2.750000e+01  2.350000e+01
     vertex  1.450000e+01 -2.750000e+01  2.350000e+01
   endloop
 endfacet
 facet normal -1.000000e+00  0.000000e+00  0.000000e+00
   outer loop
     vertex  2.250000e+01 -3.000000e+01  2.350000e+01
     vertex  2.250000e+01 -2.750000e+01  2.500000e+01
     vertex  2.250000e+01 -2.750000e+01  2.350000e+01
   endloop
 endfacet
 facet normal -1.000000e+00  0.000000e+00  0.000000e+00
   outer loop
     vertex  2.250000e+01 -3.000000e+01  2.500000e+01
     vertex  2.250000e+01 -2.750000e+01  2.500000e+01
     vertex  2.250000e+01 -3.000000e+01  2.350000e+01
   endloop
 endfacet
 facet normal  0.000000e+00  0.000000e+00 -1.000000e+00
   outer loop
     vertex  1.450000e+01 -2.750000e+01  2.500000e+01
     vertex  2.250000e+01 -2.750000e+01  2.500000e+01
     vertex  2.250000e+01 -3.000000e+01  2.500000e+01
   endloop
 endfacet
 facet normal  0.000000e+00  0.000000e+00 -1.000000e+00
   outer loop
     vertex  1.450000e+01 -3.000000e+01  2.500000e+01
     vertex  1.450000e+01 -2.750000e+01  2.500000e+01
     vertex  2.250000e+01 -3.000000e+01  2.500000e+01
   endloop
 endfacet
 facet normal -1.000000e+00  0.000000e+00  0.000000e+00
   outer loop
     vertex  2.250000e+01  3.000000e+01  2.350000e+01
     vertex  2.250000e+01  2.750000e+01  2.500000e+01
     vertex  2.250000e+01  3.000000e+01  2.500000e+01
   endloop
 endfacet
 facet normal -1.000000e+00  0.000000e+00  0.000000e+00
   outer loop
     vertex  2.250000e+01  3.000000e+01  2.350000e+01
     vertex  2.250000e+01  2.750000e+01  2.350000e+01
     vertex  2.250000e+01  2.750000e+01  2.500000e+01
   endloop
 endfacet
 facet normal -0.000000e+00  0.000000e+00  1.000000e+00
   outer loop
     vertex  1.450000e+01  3.000000e+01  2.350000e+01
     vertex  2.250000e+01  2.750000e+01  2.350000e+01
     vertex  2.250000e+01  3.000000e+01  2.350000e+01
   endloop
 endfacet
 facet normal  0.000000e+00  0.000000e+00  1.000000e+00
   outer loop
     vertex  1.450000e+01  3.000000e+01  2.350000e+01
     vertex  1.450000e+01  2.750000e+01  2.350000e+01
     vertex  2.250000e+01  2.750000e+01  2.350000e+01
   endloop
 endfacet
 facet normal  1.000000e+00  0.000000e+00  0.000000e+00
   outer loop
     vertex  1.450000e+01  3.000000e+01  2.500000e+01
     vertex  1.450000e+01  2.750000e+01  2.350000e+01
     vertex  1.450000e+01  3.000000e+01  2.350000e+01
   endloop
 endfacet
 facet normal  1.000000e+00  0.000000e+00  0.000000e+00
   outer loop
     vertex  1.450000e+01  3.000000e+01  2.500000e+01
     vertex  1.450000e+01  2.750000e+01  2.500000e+01
     vertex  1.450000e+01  2.750000e+01  2.350000e+01
   endloop
 endfacet
 facet normal -0.000000e+00  0.000000e+00 -1.000000e+00
   outer loop
     vertex  2.250000e+01  3.000000e+01  2.500000e+01
     vertex  1.450000e+01  2.750000e+01  2.500000e+01
     vertex  1.450000e+01  3.000000e+01  2.500000e+01
   endloop
 endfacet
 facet normal  0.000000e+00 -0.000000e+00 -1.000000e+00
   outer loop
     vertex  2.250000e+01  3.000000e+01  2.500000e+01
     vertex  2.250000e+01  2.750000e+01  2.500000e+01
     vertex  1.450000e+01  2.750000e+01  2.500000e+01
   endloop
 endfacet
 facet normal -0.000000e+00  0.000000e+00  1.000000e+00
   outer loop
     vertex -2.250000e+01  3.000000e+01  2.350000e+01
     vertex -1.450000e+01  2.750000e+01  2.350000e+01
     vertex -1.450000e+01  3.000000e+01  2.350000e+01
   endloop
 endfacet
 facet normal  0.000000e+00  0.000000e+00  1.000000e+00
   outer loop
     vertex -2.250000e+01  3.000000e+01  2.350000e+01
     vertex -2.250000e+01  2.750000e+01  2.350000e+01
     vertex -1.450000e+01  2.750000e+01  2.350000e+01
   endloop
 endfacet
 facet normal  1.000000e+00  0.000000e+00  0.000000e+00
   outer loop
     vertex -2.250000e+01  3.000000e+01  2.500000e+01
     vertex -2.250000e+01  2.750000e+01  2.350000e+01
     vertex -2.250000e+01  3.000000e+01  2.350000e+01
   endloop
 endfacet
 facet normal  1.000000e+00  0.000000e+00  0.000000e+00
   outer loop
     vertex -2.250000e+01  3.000000e+01  2.500000e+01
     vertex -2.250000e+01  2.750000e+01  2.500000e+01
     vertex -2.250000e+01  2.750000e+01  2.350000e+01
   endloop
 endfacet
 facet normal -0.000000e+00  0.000000e+00 -1.000000e+00
   outer loop
     vertex -1.450000e+01  3.000000e+01  2.500000e+01
     vertex -2.250000e+01  2.750000e+01  2.500000e+01
     vertex -2.250000e+01  3.000000e+01  2.500000e+01
   endloop
 endfacet
 facet normal  0.000000e+00 -0.000000e+00 -1.000000e+00
   outer loop
     vertex -1.450000e+01  3.000000e+01  2.500000e+01
     vertex -1.450000e+01  2.750000e+01  2.500000e+01
     vertex -2.250000e+01  2.750000e+01  2.500000e+01
   endloop
 endfacet
 facet normal -1.000000e+00  0.000000e+00  0.000000e+00
   outer loop
     vertex -1.450000e+01  3.000000e+01  2.350000e+01
     vertex -1.450000e+01  2.750000e+01  2.500000e+01
     vertex -1.450000e+01  3.000000e+01  2.500000e+01
   endloop
 endfacet
 facet normal -1.000000e+00  0.000000e+00  0.000000e+00
   outer loop
     vertex -1.450000e+01  3.000000e+01  2.350000e+01
     vertex -1.450000e+01  2.750000e+01  2.350000e+01
     vertex -1.450000e+01  2.750000e+01  2.500000e+01
   endloop
 endfacet
endsolid
