<?xml version="1.0" encoding="UTF-8"?>
<svg xmlns="http://www.w3.org/2000/svg" xmlns:xlink="http://www.w3.org/1999/xlink" width="60mm" height="38mm" viewBox="0 0 60 38">
<defs>
<g id="source-212269">
<path fill="none" stroke-width="0.1" stroke-linecap="round" stroke-linejoin="miter" stroke="rgb(0%, 0%, 0%)" stroke-opacity="1" stroke-miterlimit="10" d="M -29.414062 18.113281 L -29.414062 -18.113281 " transform="matrix(1, 0, 0, -1, 0, 0)"/>
<path fill="none" stroke-width="0.1" stroke-linecap="round" stroke-linejoin="miter" stroke="rgb(0%, 0%, 0%)" stroke-opacity="1" stroke-miterlimit="10" d="M 29.414062 18.113281 L -29.414062 18.113281 " transform="matrix(1, 0, 0, -1, 0, 0)"/>
<path fill="none" stroke-width="0.1" stroke-linecap="round" stroke-linejoin="miter" stroke="rgb(0%, 0%, 0%)" stroke-opacity="1" stroke-miterlimit="10" d="M -29.414062 -18.113281 L 29.414062 -18.113281 " transform="matrix(1, 0, 0, -1, 0, 0)"/>
<path fill="none" stroke-width="0.1" stroke-linecap="round" stroke-linejoin="miter" stroke="rgb(0%, 0%, 0%)" stroke-opacity="1" stroke-miterlimit="10" d="M 29.414062 -18.113281 L 29.414062 18.113281 " transform="matrix(1, 0, 0, -1, 0, 0)"/>
<path fill="none" stroke-width="0.1" stroke-linecap="round" stroke-linejoin="miter" stroke="rgb(0%, 0%, 0%)" stroke-opacity="1" stroke-miterlimit="10" d="M -21.402344 -11.5625 C -21.402344 -9.5625 -24.402344 -9.5625 -24.402344 -11.5625 C -24.402344 -13.5625 -21.402344 -13.5625 -21.402344 -11.5625 " transform="matrix(1, 0, 0, -1, 0, 0)"/>
<path fill="none" stroke-width="0.1" stroke-linecap="round" stroke-linejoin="miter" stroke="rgb(0%, 0%, 0%)" stroke-opacity="1" stroke-miterlimit="10" d="M 24.316406 -11.636719 C 24.316406 -9.636719 21.316406 -9.636719 21.316406 -11.636719 C 21.316406 -13.636719 24.316406 -13.636719 24.316406 -11.636719 " transform="matrix(1, 0, 0, -1, 0, 0)"/>
<path fill="none" stroke-width="0.1" stroke-linecap="round" stroke-linejoin="miter" stroke="rgb(0%, 0%, 0%)" stroke-opacity="1" stroke-miterlimit="10" d="M -21.367188 11.550781 C -21.367188 13.550781 -24.367188 13.550781 -24.367188 11.550781 C -24.367188 9.550781 -21.367188 9.550781 -21.367188 11.550781 " transform="matrix(1, 0, 0, -1, 0, 0)"/>
<path fill="none" stroke-width="0.1" stroke-linecap="round" stroke-linejoin="miter" stroke="rgb(0%, 0%, 0%)" stroke-opacity="1" stroke-miterlimit="10" d="M 24.355469 11.476562 C 24.355469 13.476562 21.355469 13.476562 21.355469 11.476562 C 21.355469 9.476562 24.355469 9.476562 24.355469 11.476562 " transform="matrix(1, 0, 0, -1, 0, 0)"/>
</g>
</defs>
<use xlink:href="#source-212269" transform="matrix(1, 0, 0, 1, 30, 19)"/>
</svg>
