solid Default
  facet normal 0.000000e+00 0.000000e+00 -1.000000e+00
    outer loop
      vertex -1.730929e+01 3.090129e+01 0.000000e+00
      vertex -1.591247e+01 -3.349870e+01 0.000000e+00
      vertex -1.730929e+01 -3.349870e+01 0.000000e+00
    endloop
  endfacet
  facet normal 0.000000e+00 0.000000e+00 -1.000000e+00
    outer loop
      vertex -1.591247e+01 -3.349870e+01 0.000000e+00
      vertex -1.730929e+01 3.090129e+01 0.000000e+00
      vertex -1.591247e+01 3.090129e+01 0.000000e+00
    endloop
  endfacet
  facet normal 0.000000e+00 -1.000000e+00 0.000000e+00
    outer loop
      vertex -1.591247e+01 -3.349870e+01 6.000042e-02
      vertex -1.730929e+01 -3.349870e+01 0.000000e+00
      vertex -1.591247e+01 -3.349870e+01 0.000000e+00
    endloop
  endfacet
  facet normal 0.000000e+00 -1.000000e+00 0.000000e+00
    outer loop
      vertex -1.730929e+01 -3.349870e+01 0.000000e+00
      vertex -1.591247e+01 -3.349870e+01 6.000042e-02
      vertex -1.730929e+01 -3.349870e+01 6.000042e-02
    endloop
  endfacet
  facet normal 0.000000e+00 0.000000e+00 1.000000e+00
    outer loop
      vertex -1.730929e+01 3.090129e+01 6.360077e+00
      vertex -1.593750e+01 -3.278871e+01 6.360077e+00
      vertex -1.593750e+01 3.090129e+01 6.360077e+00
    endloop
  endfacet
  facet normal 0.000000e+00 0.000000e+00 1.000000e+00
    outer loop
      vertex 1.590071e+01 -3.278871e+01 6.360077e+00
      vertex 1.727250e+01 3.090129e+01 6.360077e+00
      vertex 1.590071e+01 3.090129e+01 6.360077e+00
    endloop
  endfacet
  facet normal 0.000000e+00 0.000000e+00 1.000000e+00
    outer loop
      vertex 1.590071e+01 -3.278871e+01 6.360077e+00
      vertex 1.727250e+01 -3.419971e+01 6.360077e+00
      vertex 1.727250e+01 3.090129e+01 6.360077e+00
    endloop
  endfacet
  facet normal 0.000000e+00 0.000000e+00 1.000000e+00
    outer loop
      vertex 1.590071e+01 -3.278871e+01 6.360077e+00
      vertex -1.730929e+01 -3.419971e+01 6.360077e+00
      vertex 1.727250e+01 -3.419971e+01 6.360077e+00
    endloop
  endfacet
  facet normal 0.000000e+00 0.000000e+00 1.000000e+00
    outer loop
      vertex -1.593750e+01 -3.278871e+01 6.360077e+00
      vertex -1.730929e+01 -3.419971e+01 6.360077e+00
      vertex 1.590071e+01 -3.278871e+01 6.360077e+00
    endloop
  endfacet
  facet normal 0.000000e+00 0.000000e+00 1.000000e+00
    outer loop
      vertex -1.593750e+01 -3.278871e+01 6.360077e+00
      vertex -1.730929e+01 3.090129e+01 6.360077e+00
      vertex -1.730929e+01 -3.419971e+01 6.360077e+00
    endloop
  endfacet
  facet normal 1.000000e+00 0.000000e+00 0.000000e+00
    outer loop
      vertex -1.593750e+01 -3.278871e+01 6.360077e+00
      vertex -1.593750e+01 3.090129e+01 3.790001e+00
      vertex -1.593750e+01 3.090129e+01 6.360077e+00
    endloop
  endfacet
  facet normal 1.000000e+00 0.000000e+00 0.000000e+00
    outer loop
      vertex -1.593750e+01 3.090129e+01 3.790001e+00
      vertex -1.593750e+01 -3.278871e+01 6.360077e+00
      vertex -1.593750e+01 -3.278871e+01 3.790001e+00
    endloop
  endfacet
  facet normal 0.000000e+00 0.000000e+00 1.000000e+00
    outer loop
      vertex -1.593750e+01 -3.278871e+01 3.790001e+00
      vertex -1.475750e+01 3.090129e+01 3.790001e+00
      vertex -1.593750e+01 3.090129e+01 3.790001e+00
    endloop
  endfacet
  facet normal 0.000000e+00 0.000000e+00 1.000000e+00
    outer loop
      vertex -1.475750e+01 3.090129e+01 3.790001e+00
      vertex -1.593750e+01 -3.278871e+01 3.790001e+00
      vertex -1.475750e+01 -3.278871e+01 3.790001e+00
    endloop
  endfacet
  facet normal 1.000000e+00 0.000000e+00 0.000000e+00
    outer loop
      vertex -1.475750e+01 -3.278871e+01 3.790001e+00
      vertex -1.475750e+01 3.090129e+01 3.389999e+00
      vertex -1.475750e+01 3.090129e+01 3.790001e+00
    endloop
  endfacet
  facet normal 1.000000e+00 0.000000e+00 0.000000e+00
    outer loop
      vertex -1.475750e+01 3.090129e+01 3.389999e+00
      vertex -1.475750e+01 -3.278871e+01 3.790001e+00
      vertex -1.475750e+01 -3.278871e+01 3.389999e+00
    endloop
  endfacet
  facet normal 7.071068e-01 0.000000e+00 -7.071068e-01
    outer loop
      vertex -1.475750e+01 -3.278871e+01 3.389999e+00
      vertex -1.591247e+01 3.090129e+01 2.235027e+00
      vertex -1.475750e+01 3.090129e+01 3.389999e+00
    endloop
  endfacet
  facet normal 7.071068e-01 0.000000e+00 -7.071068e-01
    outer loop
      vertex -1.591247e+01 3.090129e+01 2.235027e+00
      vertex -1.475750e+01 -3.278871e+01 3.389999e+00
      vertex -1.591247e+01 -3.278871e+01 2.235027e+00
    endloop
  endfacet
  facet normal 0.000000e+00 0.000000e+00 -1.000000e+00
    outer loop
      vertex 1.587568e+01 3.090129e+01 0.000000e+00
      vertex 1.727250e+01 -3.349870e+01 0.000000e+00
      vertex 1.587568e+01 -3.349870e+01 0.000000e+00
    endloop
  endfacet
  facet normal 0.000000e+00 0.000000e+00 -1.000000e+00
    outer loop
      vertex 1.727250e+01 -3.349870e+01 0.000000e+00
      vertex 1.587568e+01 3.090129e+01 0.000000e+00
      vertex 1.727250e+01 3.090129e+01 0.000000e+00
    endloop
  endfacet
  facet normal 0.000000e+00 -1.000000e+00 0.000000e+00
    outer loop
      vertex 1.727250e+01 -3.349870e+01 6.000042e-02
      vertex 1.587568e+01 -3.349870e+01 0.000000e+00
      vertex 1.727250e+01 -3.349870e+01 0.000000e+00
    endloop
  endfacet
  facet normal 0.000000e+00 -1.000000e+00 0.000000e+00
    outer loop
      vertex 1.587568e+01 -3.349870e+01 0.000000e+00
      vertex 1.727250e+01 -3.349870e+01 6.000042e-02
      vertex 1.587568e+01 -3.349870e+01 6.000042e-02
    endloop
  endfacet
  facet normal -1.000000e+00 0.000000e+00 0.000000e+00
    outer loop
      vertex 1.587568e+01 3.090129e+01 1.060000e+00
      vertex 1.587568e+01 -3.278871e+01 2.235027e+00
      vertex 1.587568e+01 3.090129e+01 2.235027e+00
    endloop
  endfacet
  facet normal -1.000000e+00 0.000000e+00 0.000000e+00
    outer loop
      vertex 1.587568e+01 -3.278871e+01 6.000042e-02
      vertex 1.587568e+01 -3.349870e+01 0.000000e+00
      vertex 1.587568e+01 -3.349870e+01 6.000042e-02
    endloop
  endfacet
  facet normal -1.000000e+00 0.000000e+00 0.000000e+00
    outer loop
      vertex 1.587568e+01 -3.278871e+01 6.000042e-02
      vertex 1.587568e+01 3.090129e+01 0.000000e+00
      vertex 1.587568e+01 -3.349870e+01 0.000000e+00
    endloop
  endfacet
  facet normal -1.000000e+00 0.000000e+00 0.000000e+00
    outer loop
      vertex 1.587568e+01 -3.278871e+01 6.000042e-02
      vertex 1.587568e+01 3.090129e+01 6.000042e-02
      vertex 1.587568e+01 3.090129e+01 0.000000e+00
    endloop
  endfacet
  facet normal -1.000000e+00 0.000000e+00 0.000000e+00
    outer loop
      vertex 1.587568e+01 -3.278871e+01 2.235027e+00
      vertex 1.587568e+01 3.090129e+01 6.000042e-02
      vertex 1.587568e+01 -3.278871e+01 6.000042e-02
    endloop
  endfacet
  facet normal -1.000000e+00 0.000000e+00 0.000000e+00
    outer loop
      vertex 1.587568e+01 -3.278871e+01 2.235027e+00
      vertex 1.587568e+01 3.090129e+01 1.060000e+00
      vertex 1.587568e+01 3.090129e+01 6.000042e-02
    endloop
  endfacet
  facet normal -7.071068e-01 0.000000e+00 -7.071068e-01
    outer loop
      vertex 1.587568e+01 -3.278871e+01 2.235027e+00
      vertex 1.472071e+01 3.090129e+01 3.389999e+00
      vertex 1.587568e+01 3.090129e+01 2.235027e+00
    endloop
  endfacet
  facet normal -7.071068e-01 -0.000000e+00 -7.071068e-01
    outer loop
      vertex 1.472071e+01 3.090129e+01 3.389999e+00
      vertex 1.587568e+01 -3.278871e+01 2.235027e+00
      vertex 1.472071e+01 -3.278871e+01 3.389999e+00
    endloop
  endfacet
  facet normal -1.000000e+00 0.000000e+00 0.000000e+00
    outer loop
      vertex 1.472071e+01 -3.278871e+01 3.389999e+00
      vertex 1.472071e+01 3.090129e+01 3.790001e+00
      vertex 1.472071e+01 3.090129e+01 3.389999e+00
    endloop
  endfacet
  facet normal -1.000000e+00 0.000000e+00 0.000000e+00
    outer loop
      vertex 1.472071e+01 3.090129e+01 3.790001e+00
      vertex 1.472071e+01 -3.278871e+01 3.389999e+00
      vertex 1.472071e+01 -3.278871e+01 3.790001e+00
    endloop
  endfacet
  facet normal 0.000000e+00 0.000000e+00 1.000000e+00
    outer loop
      vertex 1.472071e+01 -3.278871e+01 3.790001e+00
      vertex 1.590071e+01 3.090129e+01 3.790001e+00
      vertex 1.472071e+01 3.090129e+01 3.790001e+00
    endloop
  endfacet
  facet normal 0.000000e+00 0.000000e+00 1.000000e+00
    outer loop
      vertex 1.590071e+01 3.090129e+01 3.790001e+00
      vertex 1.472071e+01 -3.278871e+01 3.790001e+00
      vertex 1.590071e+01 -3.278871e+01 3.790001e+00
    endloop
  endfacet
  facet normal -1.000000e+00 0.000000e+00 0.000000e+00
    outer loop
      vertex 1.590071e+01 -3.278871e+01 3.790001e+00
      vertex 1.590071e+01 3.090129e+01 6.360077e+00
      vertex 1.590071e+01 3.090129e+01 3.790001e+00
    endloop
  endfacet
  facet normal -1.000000e+00 0.000000e+00 0.000000e+00
    outer loop
      vertex 1.590071e+01 3.090129e+01 6.360077e+00
      vertex 1.590071e+01 -3.278871e+01 3.790001e+00
      vertex 1.590071e+01 -3.278871e+01 6.360077e+00
    endloop
  endfacet
  facet normal 0.000000e+00 -1.000000e+00 0.000000e+00
    outer loop
      vertex -1.730929e+01 -3.419971e+01 6.000042e-02
      vertex 1.727250e+01 -3.419971e+01 6.360077e+00
      vertex -1.730929e+01 -3.419971e+01 6.360077e+00
    endloop
  endfacet
  facet normal 0.000000e+00 -1.000000e+00 0.000000e+00
    outer loop
      vertex 1.727250e+01 -3.419971e+01 6.360077e+00
      vertex -1.730929e+01 -3.419971e+01 6.000042e-02
      vertex 1.727250e+01 -3.419971e+01 6.000042e-02
    endloop
  endfacet
  facet normal 1.000000e+00 0.000000e+00 0.000000e+00
    outer loop
      vertex 1.727250e+01 3.090129e+01 6.000042e-02
      vertex 1.727250e+01 -3.349870e+01 0.000000e+00
      vertex 1.727250e+01 3.090129e+01 0.000000e+00
    endloop
  endfacet
  facet normal 1.000000e+00 0.000000e+00 0.000000e+00
    outer loop
      vertex 1.727250e+01 -3.349870e+01 0.000000e+00
      vertex 1.727250e+01 3.090129e+01 6.000042e-02
      vertex 1.727250e+01 -3.349870e+01 6.000042e-02
    endloop
  endfacet
  facet normal 1.000000e+00 0.000000e+00 0.000000e+00
    outer loop
      vertex -1.591247e+01 3.090129e+01 6.000042e-02
      vertex -1.591247e+01 -3.349870e+01 0.000000e+00
      vertex -1.591247e+01 3.090129e+01 0.000000e+00
    endloop
  endfacet
  facet normal 1.000000e+00 0.000000e+00 0.000000e+00
    outer loop
      vertex -1.591247e+01 -3.349870e+01 0.000000e+00
      vertex -1.591247e+01 3.090129e+01 6.000042e-02
      vertex -1.591247e+01 -3.349870e+01 6.000042e-02
    endloop
  endfacet
  facet normal -1.000000e+00 0.000000e+00 0.000000e+00
    outer loop
      vertex -1.730929e+01 -3.349870e+01 6.000042e-02
      vertex -1.730929e+01 3.090129e+01 0.000000e+00
      vertex -1.730929e+01 -3.349870e+01 0.000000e+00
    endloop
  endfacet
  facet normal -1.000000e+00 0.000000e+00 0.000000e+00
    outer loop
      vertex -1.730929e+01 3.090129e+01 0.000000e+00
      vertex -1.730929e+01 -3.349870e+01 6.000042e-02
      vertex -1.730929e+01 3.090129e+01 6.000042e-02
    endloop
  endfacet
  facet normal 0.000000e+00 1.000000e+00 0.000000e+00
    outer loop
      vertex 1.587568e+01 3.090129e+01 6.000042e-02
      vertex 1.727250e+01 3.090129e+01 0.000000e+00
      vertex 1.587568e+01 3.090129e+01 0.000000e+00
    endloop
  endfacet
  facet normal 0.000000e+00 1.000000e+00 0.000000e+00
    outer loop
      vertex 1.727250e+01 3.090129e+01 0.000000e+00
      vertex 1.587568e+01 3.090129e+01 6.000042e-02
      vertex 1.727250e+01 3.090129e+01 6.000042e-02
    endloop
  endfacet
  facet normal 0.000000e+00 1.000000e+00 0.000000e+00
    outer loop
      vertex -1.730929e+01 3.090129e+01 6.000042e-02
      vertex -1.591247e+01 3.090129e+01 0.000000e+00
      vertex -1.730929e+01 3.090129e+01 0.000000e+00
    endloop
  endfacet
  facet normal 0.000000e+00 1.000000e+00 0.000000e+00
    outer loop
      vertex -1.591247e+01 3.090129e+01 0.000000e+00
      vertex -1.730929e+01 3.090129e+01 6.000042e-02
      vertex -1.591247e+01 3.090129e+01 6.000042e-02
    endloop
  endfacet
  facet normal 1.000000e+00 0.000000e+00 0.000000e+00
    outer loop
      vertex 1.727250e+01 3.090129e+01 6.360077e+00
      vertex 1.727250e+01 -3.419871e+01 1.060000e+00
      vertex 1.727250e+01 3.090129e+01 1.060000e+00
    endloop
  endfacet
  facet normal 1.000000e+00 0.000000e+00 0.000000e+00
    outer loop
      vertex 1.727250e+01 -3.419871e+01 1.060000e+00
      vertex 1.727250e+01 -3.419971e+01 6.000042e-02
      vertex 1.727250e+01 -3.419871e+01 6.000042e-02
    endloop
  endfacet
  facet normal 1.000000e+00 0.000000e+00 0.000000e+00
    outer loop
      vertex 1.727250e+01 -3.419871e+01 1.060000e+00
      vertex 1.727250e+01 -3.419971e+01 6.360077e+00
      vertex 1.727250e+01 -3.419971e+01 6.000042e-02
    endloop
  endfacet
  facet normal 1.000000e+00 0.000000e+00 0.000000e+00
    outer loop
      vertex 1.727250e+01 -3.419871e+01 1.060000e+00
      vertex 1.727250e+01 3.090129e+01 6.360077e+00
      vertex 1.727250e+01 -3.419971e+01 6.360077e+00
    endloop
  endfacet
  facet normal 1.000000e+00 0.000000e+00 0.000000e+00
    outer loop
      vertex -1.591247e+01 -3.278871e+01 1.060000e+00
      vertex -1.591247e+01 3.090129e+01 2.235027e+00
      vertex -1.591247e+01 -3.278871e+01 2.235027e+00
    endloop
  endfacet
  facet normal 1.000000e+00 0.000000e+00 0.000000e+00
    outer loop
      vertex -1.591247e+01 3.090129e+01 2.235027e+00
      vertex -1.591247e+01 -3.278871e+01 1.060000e+00
      vertex -1.591247e+01 3.090129e+01 1.060000e+00
    endloop
  endfacet
  facet normal -1.000000e+00 0.000000e+00 0.000000e+00
    outer loop
      vertex -1.730929e+01 -3.419871e+01 1.060000e+00
      vertex -1.730929e+01 3.090129e+01 6.360077e+00
      vertex -1.730929e+01 3.090129e+01 1.060000e+00
    endloop
  endfacet
  facet normal -1.000000e+00 0.000000e+00 0.000000e+00
    outer loop
      vertex -1.730929e+01 -3.419971e+01 6.000042e-02
      vertex -1.730929e+01 -3.419871e+01 1.060000e+00
      vertex -1.730929e+01 -3.419871e+01 6.000042e-02
    endloop
  endfacet
  facet normal -1.000000e+00 0.000000e+00 0.000000e+00
    outer loop
      vertex -1.730929e+01 -3.419971e+01 6.360077e+00
      vertex -1.730929e+01 -3.419871e+01 1.060000e+00
      vertex -1.730929e+01 -3.419971e+01 6.000042e-02
    endloop
  endfacet
  facet normal -1.000000e+00 0.000000e+00 0.000000e+00
    outer loop
      vertex -1.730929e+01 3.090129e+01 6.360077e+00
      vertex -1.730929e+01 -3.419871e+01 1.060000e+00
      vertex -1.730929e+01 -3.419971e+01 6.360077e+00
    endloop
  endfacet
  facet normal 0.000000e+00 1.000000e+00 0.000000e+00
    outer loop
      vertex 1.727250e+01 3.090129e+01 6.360077e+00
      vertex 1.590071e+01 3.090129e+01 3.790001e+00
      vertex 1.590071e+01 3.090129e+01 6.360077e+00
    endloop
  endfacet
  facet normal 0.000000e+00 1.000000e+00 0.000000e+00
    outer loop
      vertex 1.587568e+01 3.090129e+01 2.235027e+00
      vertex 1.727250e+01 3.090129e+01 1.060000e+00
      vertex 1.587568e+01 3.090129e+01 1.060000e+00
    endloop
  endfacet
  facet normal 0.000000e+00 1.000000e+00 0.000000e+00
    outer loop
      vertex 1.587568e+01 3.090129e+01 2.235027e+00
      vertex 1.727250e+01 3.090129e+01 6.360077e+00
      vertex 1.727250e+01 3.090129e+01 1.060000e+00
    endloop
  endfacet
  facet normal 0.000000e+00 1.000000e+00 0.000000e+00
    outer loop
      vertex 1.590071e+01 3.090129e+01 3.790001e+00
      vertex 1.472071e+01 3.090129e+01 3.389999e+00
      vertex 1.472071e+01 3.090129e+01 3.790001e+00
    endloop
  endfacet
  facet normal 0.000000e+00 1.000000e+00 0.000000e+00
    outer loop
      vertex 1.590071e+01 3.090129e+01 3.790001e+00
      vertex 1.587568e+01 3.090129e+01 2.235027e+00
      vertex 1.472071e+01 3.090129e+01 3.389999e+00
    endloop
  endfacet
  facet normal 0.000000e+00 1.000000e+00 0.000000e+00
    outer loop
      vertex 1.590071e+01 3.090129e+01 3.790001e+00
      vertex 1.727250e+01 3.090129e+01 6.360077e+00
      vertex 1.587568e+01 3.090129e+01 2.235027e+00
    endloop
  endfacet
  facet normal 0.000000e+00 1.000000e+00 0.000000e+00
    outer loop
      vertex -1.593750e+01 3.090129e+01 3.790001e+00
      vertex -1.730929e+01 3.090129e+01 6.360077e+00
      vertex -1.593750e+01 3.090129e+01 6.360077e+00
    endloop
  endfacet
  facet normal 0.000000e+00 1.000000e+00 0.000000e+00
    outer loop
      vertex -1.475750e+01 3.090129e+01 3.389999e+00
      vertex -1.593750e+01 3.090129e+01 3.790001e+00
      vertex -1.475750e+01 3.090129e+01 3.790001e+00
    endloop
  endfacet
  facet normal 0.000000e+00 1.000000e+00 0.000000e+00
    outer loop
      vertex -1.591247e+01 3.090129e+01 2.235027e+00
      vertex -1.593750e+01 3.090129e+01 3.790001e+00
      vertex -1.475750e+01 3.090129e+01 3.389999e+00
    endloop
  endfacet
  facet normal 0.000000e+00 1.000000e+00 0.000000e+00
    outer loop
      vertex -1.730929e+01 3.090129e+01 1.060000e+00
      vertex -1.591247e+01 3.090129e+01 2.235027e+00
      vertex -1.591247e+01 3.090129e+01 1.060000e+00
    endloop
  endfacet
  facet normal 0.000000e+00 1.000000e+00 0.000000e+00
    outer loop
      vertex -1.730929e+01 3.090129e+01 6.360077e+00
      vertex -1.591247e+01 3.090129e+01 2.235027e+00
      vertex -1.730929e+01 3.090129e+01 1.060000e+00
    endloop
  endfacet
  facet normal 0.000000e+00 1.000000e+00 0.000000e+00
    outer loop
      vertex -1.730929e+01 3.090129e+01 6.360077e+00
      vertex -1.593750e+01 3.090129e+01 3.790001e+00
      vertex -1.591247e+01 3.090129e+01 2.235027e+00
    endloop
  endfacet
  facet normal 0.000000e+00 1.000000e+00 0.000000e+00
    outer loop
      vertex -1.475750e+01 -3.278871e+01 3.389999e+00
      vertex -1.587750e+01 -3.278871e+01 1.060000e+00
      vertex -1.591247e+01 -3.278871e+01 2.235027e+00
    endloop
  endfacet
  facet normal 0.000000e+00 1.000000e+00 0.000000e+00
    outer loop
      vertex -1.591247e+01 -3.278871e+01 2.235027e+00
      vertex -1.587750e+01 -3.278871e+01 1.060000e+00
      vertex -1.591247e+01 -3.278871e+01 1.060000e+00
    endloop
  endfacet
  facet normal 0.000000e+00 1.000000e+00 0.000000e+00
    outer loop
      vertex 1.472071e+01 -3.278871e+01 3.790001e+00
      vertex 1.590071e+01 -3.278871e+01 6.360077e+00
      vertex 1.590071e+01 -3.278871e+01 3.790001e+00
    endloop
  endfacet
  facet normal 0.000000e+00 1.000000e+00 0.000000e+00
    outer loop
      vertex 1.472071e+01 -3.278871e+01 3.790001e+00
      vertex -1.593750e+01 -3.278871e+01 6.360077e+00
      vertex 1.590071e+01 -3.278871e+01 6.360077e+00
    endloop
  endfacet
  facet normal 0.000000e+00 1.000000e+00 0.000000e+00
    outer loop
      vertex -1.593750e+01 -3.278871e+01 6.360077e+00
      vertex -1.475750e+01 -3.278871e+01 3.790001e+00
      vertex -1.593750e+01 -3.278871e+01 3.790001e+00
    endloop
  endfacet
  facet normal 0.000000e+00 1.000000e+00 0.000000e+00
    outer loop
      vertex 1.472071e+01 -3.278871e+01 3.790001e+00
      vertex -1.475750e+01 -3.278871e+01 3.790001e+00
      vertex -1.593750e+01 -3.278871e+01 6.360077e+00
    endloop
  endfacet
  facet normal 0.000000e+00 1.000000e+00 0.000000e+00
    outer loop
      vertex 1.472071e+01 -3.278871e+01 3.790001e+00
      vertex -1.475750e+01 -3.278871e+01 3.389999e+00
      vertex -1.475750e+01 -3.278871e+01 3.790001e+00
    endloop
  endfacet
  facet normal 0.000000e+00 1.000000e+00 0.000000e+00
    outer loop
      vertex 1.472071e+01 -3.278871e+01 3.389999e+00
      vertex -1.475750e+01 -3.278871e+01 3.389999e+00
      vertex 1.472071e+01 -3.278871e+01 3.790001e+00
    endloop
  endfacet
  facet normal 0.000000e+00 1.000000e+00 0.000000e+00
    outer loop
      vertex -1.587750e+01 -3.278871e+01 1.060000e+00
      vertex 1.587568e+01 -3.278871e+01 6.000042e-02
      vertex -1.587750e+01 -3.278871e+01 6.000042e-02
    endloop
  endfacet
  facet normal 0.000000e+00 1.000000e+00 0.000000e+00
    outer loop
      vertex -1.587750e+01 -3.278871e+01 1.060000e+00
      vertex 1.587568e+01 -3.278871e+01 2.235027e+00
      vertex 1.587568e+01 -3.278871e+01 6.000042e-02
    endloop
  endfacet
  facet normal 0.000000e+00 1.000000e+00 0.000000e+00
    outer loop
      vertex -1.587750e+01 -3.278871e+01 1.060000e+00
      vertex 1.472071e+01 -3.278871e+01 3.389999e+00
      vertex 1.587568e+01 -3.278871e+01 2.235027e+00
    endloop
  endfacet
  facet normal 0.000000e+00 1.000000e+00 0.000000e+00
    outer loop
      vertex -1.587750e+01 -3.278871e+01 1.060000e+00
      vertex -1.475750e+01 -3.278871e+01 3.389999e+00
      vertex 1.472071e+01 -3.278871e+01 3.389999e+00
    endloop
  endfacet
  facet normal 0.000000e+00 0.000000e+00 1.000000e+00
    outer loop
      vertex 1.961245e+01 -3.419871e+01 1.060000e+00
      vertex 1.727250e+01 3.090129e+01 1.060000e+00
      vertex 1.727250e+01 -3.419871e+01 1.060000e+00
    endloop
  endfacet
  facet normal -1.000000e-14 0.000000e+00 1.000000e+00
    outer loop
      vertex 1.727250e+01 3.090808e+01 1.060000e+00
      vertex 1.587568e+01 3.090129e+01 1.060000e+00
      vertex 1.727250e+01 3.090129e+01 1.060000e+00
    endloop
  endfacet
  facet normal 0.000000e+00 -2.090000e-12 1.000000e+00
    outer loop
      vertex -1.730929e+01 3.090808e+01 1.060000e+00
      vertex 1.587568e+01 3.090129e+01 1.060000e+00
      vertex 1.727250e+01 3.090808e+01 1.060000e+00
    endloop
  endfacet
  facet normal 0.000000e+00 -2.090000e-12 1.000000e+00
    outer loop
      vertex -1.730929e+01 3.090808e+01 1.060000e+00
      vertex -1.587750e+01 3.090129e+01 1.060000e+00
      vertex 1.587568e+01 3.090129e+01 1.060000e+00
    endloop
  endfacet
  facet normal 4.100000e-13 0.000000e+00 1.000000e+00
    outer loop
      vertex -1.587750e+01 -3.278871e+01 1.060000e+00
      vertex -1.591247e+01 3.090129e+01 1.060000e+00
      vertex -1.591247e+01 -3.278871e+01 1.060000e+00
    endloop
  endfacet
  facet normal 4.100000e-13 0.000000e+00 1.000000e+00
    outer loop
      vertex -1.587750e+01 3.090129e+01 1.060000e+00
      vertex -1.591247e+01 3.090129e+01 1.060000e+00
      vertex -1.587750e+01 -3.278871e+01 1.060000e+00
    endloop
  endfacet
  facet normal 4.100000e-13 8.358000e-11 1.000000e+00
    outer loop
      vertex -1.730929e+01 3.090808e+01 1.060000e+00
      vertex -1.591247e+01 3.090129e+01 1.060000e+00
      vertex -1.587750e+01 3.090129e+01 1.060000e+00
    endloop
  endfacet
  facet normal 0.000000e+00 0.000000e+00 1.000000e+00
    outer loop
      vertex -1.730929e+01 3.090808e+01 1.060000e+00
      vertex -1.730929e+01 3.090129e+01 1.060000e+00
      vertex -1.591247e+01 3.090129e+01 1.060000e+00
    endloop
  endfacet
  facet normal 0.000000e+00 0.000000e+00 1.000000e+00
    outer loop
      vertex -1.730929e+01 3.090129e+01 1.060000e+00
      vertex -1.961245e+01 -3.419871e+01 1.060000e+00
      vertex -1.730929e+01 -3.419871e+01 1.060000e+00
    endloop
  endfacet
  facet normal -1.000000e-14 0.000000e+00 1.000000e+00
    outer loop
      vertex -1.730929e+01 3.090129e+01 1.060000e+00
      vertex -1.961245e+01 3.419971e+01 1.060000e+00
      vertex -1.961245e+01 -3.419871e+01 1.060000e+00
    endloop
  endfacet
  facet normal -1.000000e-14 0.000000e+00 1.000000e+00
    outer loop
      vertex -1.730929e+01 3.090808e+01 1.060000e+00
      vertex -1.961245e+01 3.419971e+01 1.060000e+00
      vertex -1.730929e+01 3.090129e+01 1.060000e+00
    endloop
  endfacet
  facet normal -1.000000e-14 0.000000e+00 1.000000e+00
    outer loop
      vertex -1.730929e+01 3.231910e+01 1.060000e+00
      vertex -1.961245e+01 3.419971e+01 1.060000e+00
      vertex -1.730929e+01 3.090808e+01 1.060000e+00
    endloop
  endfacet
  facet normal 0.000000e+00 1.000000e-14 1.000000e+00
    outer loop
      vertex -1.730929e+01 3.231910e+01 1.060000e+00
      vertex 1.961245e+01 3.419971e+01 1.060000e+00
      vertex -1.961245e+01 3.419971e+01 1.060000e+00
    endloop
  endfacet
  facet normal 0.000000e+00 1.000000e-14 1.000000e+00
    outer loop
      vertex 1.727250e+01 3.231910e+01 1.060000e+00
      vertex 1.961245e+01 3.419971e+01 1.060000e+00
      vertex -1.730929e+01 3.231910e+01 1.060000e+00
    endloop
  endfacet
  facet normal 1.000000e-14 0.000000e+00 1.000000e+00
    outer loop
      vertex 1.727250e+01 3.231910e+01 1.060000e+00
      vertex 1.961245e+01 -3.419871e+01 1.060000e+00
      vertex 1.961245e+01 3.419971e+01 1.060000e+00
    endloop
  endfacet
  facet normal 1.000000e-14 0.000000e+00 1.000000e+00
    outer loop
      vertex 1.727250e+01 3.090808e+01 1.060000e+00
      vertex 1.961245e+01 -3.419871e+01 1.060000e+00
      vertex 1.727250e+01 3.231910e+01 1.060000e+00
    endloop
  endfacet
  facet normal 1.000000e-14 0.000000e+00 1.000000e+00
    outer loop
      vertex 1.727250e+01 3.090129e+01 1.060000e+00
      vertex 1.961245e+01 -3.419871e+01 1.060000e+00
      vertex 1.727250e+01 3.090808e+01 1.060000e+00
    endloop
  endfacet
  facet normal 0.000000e+00 0.000000e+00 -1.000000e+00
    outer loop
      vertex -1.730929e+01 3.231910e+01 1.000023e-02
      vertex 1.727250e+01 3.090808e+01 1.000023e-02
      vertex -1.730929e+01 3.090808e+01 1.000023e-02
    endloop
  endfacet
  facet normal 0.000000e+00 0.000000e+00 -1.000000e+00
    outer loop
      vertex 1.727250e+01 3.090808e+01 1.000023e-02
      vertex -1.730929e+01 3.231910e+01 1.000023e-02
      vertex 1.727250e+01 3.231910e+01 1.000023e-02
    endloop
  endfacet
  facet normal 0.000000e+00 0.000000e+00 1.000000e+00
    outer loop
      vertex -1.730929e+01 3.231910e+01 6.360077e+00
      vertex 1.727250e+01 3.090808e+01 6.360077e+00
      vertex 1.727250e+01 3.231910e+01 6.360077e+00
    endloop
  endfacet
  facet normal 0.000000e+00 0.000000e+00 1.000000e+00
    outer loop
      vertex 1.727250e+01 3.090808e+01 6.360077e+00
      vertex -1.730929e+01 3.231910e+01 6.360077e+00
      vertex -1.730929e+01 3.090808e+01 6.360077e+00
    endloop
  endfacet
  facet normal 0.000000e+00 1.000000e+00 0.000000e+00
    outer loop
      vertex -1.730929e+01 3.231910e+01 6.000042e-02
      vertex 1.727250e+01 3.231910e+01 1.000023e-02
      vertex -1.730929e+01 3.231910e+01 1.000023e-02
    endloop
  endfacet
  facet normal 0.000000e+00 1.000000e+00 0.000000e+00
    outer loop
      vertex 1.727250e+01 3.231910e+01 1.000023e-02
      vertex -1.730929e+01 3.231910e+01 6.000042e-02
      vertex 1.727250e+01 3.231910e+01 6.000042e-02
    endloop
  endfacet
  facet normal 1.000000e+00 0.000000e+00 0.000000e+00
    outer loop
      vertex 1.727250e+01 3.231910e+01 6.000042e-02
      vertex 1.727250e+01 3.090808e+01 1.000023e-02
      vertex 1.727250e+01 3.231910e+01 1.000023e-02
    endloop
  endfacet
  facet normal 1.000000e+00 0.000000e+00 0.000000e+00
    outer loop
      vertex 1.727250e+01 3.090808e+01 1.000023e-02
      vertex 1.727250e+01 3.231910e+01 6.000042e-02
      vertex 1.727250e+01 3.090808e+01 6.000042e-02
    endloop
  endfacet
  facet normal 0.000000e+00 -1.000000e+00 0.000000e+00
    outer loop
      vertex 1.727250e+01 3.090808e+01 6.000042e-02
      vertex -1.730929e+01 3.090808e+01 1.000023e-02
      vertex 1.727250e+01 3.090808e+01 1.000023e-02
    endloop
  endfacet
  facet normal 0.000000e+00 -1.000000e+00 0.000000e+00
    outer loop
      vertex -1.730929e+01 3.090808e+01 1.000023e-02
      vertex 1.727250e+01 3.090808e+01 6.000042e-02
      vertex -1.730929e+01 3.090808e+01 6.000042e-02
    endloop
  endfacet
  facet normal -1.000000e+00 0.000000e+00 0.000000e+00
    outer loop
      vertex -1.730929e+01 3.090808e+01 6.000042e-02
      vertex -1.730929e+01 3.231910e+01 1.000023e-02
      vertex -1.730929e+01 3.090808e+01 1.000023e-02
    endloop
  endfacet
  facet normal -1.000000e+00 0.000000e+00 0.000000e+00
    outer loop
      vertex -1.730929e+01 3.231910e+01 1.000023e-02
      vertex -1.730929e+01 3.090808e+01 6.000042e-02
      vertex -1.730929e+01 3.231910e+01 6.000042e-02
    endloop
  endfacet
  facet normal 0.000000e+00 1.000000e+00 0.000000e+00
    outer loop
      vertex 1.727250e+01 3.231910e+01 1.060000e+00
      vertex -1.730929e+01 3.231910e+01 6.360077e+00
      vertex 1.727250e+01 3.231910e+01 6.360077e+00
    endloop
  endfacet
  facet normal 0.000000e+00 1.000000e+00 0.000000e+00
    outer loop
      vertex -1.730929e+01 3.231910e+01 6.360077e+00
      vertex 1.727250e+01 3.231910e+01 1.060000e+00
      vertex -1.730929e+01 3.231910e+01 1.060000e+00
    endloop
  endfacet
  facet normal 1.000000e+00 0.000000e+00 0.000000e+00
    outer loop
      vertex 1.727250e+01 3.090808e+01 1.060000e+00
      vertex 1.727250e+01 3.231910e+01 6.360077e+00
      vertex 1.727250e+01 3.090808e+01 6.360077e+00
    endloop
  endfacet
  facet normal 1.000000e+00 0.000000e+00 0.000000e+00
    outer loop
      vertex 1.727250e+01 3.231910e+01 6.360077e+00
      vertex 1.727250e+01 3.090808e+01 1.060000e+00
      vertex 1.727250e+01 3.231910e+01 1.060000e+00
    endloop
  endfacet
  facet normal 0.000000e+00 -1.000000e+00 0.000000e+00
    outer loop
      vertex -1.730929e+01 3.090808e+01 1.060000e+00
      vertex 1.727250e+01 3.090808e+01 6.360077e+00
      vertex -1.730929e+01 3.090808e+01 6.360077e+00
    endloop
  endfacet
  facet normal 0.000000e+00 -1.000000e+00 0.000000e+00
    outer loop
      vertex 1.727250e+01 3.090808e+01 6.360077e+00
      vertex -1.730929e+01 3.090808e+01 1.060000e+00
      vertex 1.727250e+01 3.090808e+01 1.060000e+00
    endloop
  endfacet
  facet normal -1.000000e+00 0.000000e+00 0.000000e+00
    outer loop
      vertex -1.730929e+01 3.231910e+01 1.060000e+00
      vertex -1.730929e+01 3.090808e+01 6.360077e+00
      vertex -1.730929e+01 3.231910e+01 6.360077e+00
    endloop
  endfacet
  facet normal -1.000000e+00 0.000000e+00 0.000000e+00
    outer loop
      vertex -1.730929e+01 3.090808e+01 6.360077e+00
      vertex -1.730929e+01 3.231910e+01 1.060000e+00
      vertex -1.730929e+01 3.090808e+01 1.060000e+00
    endloop
  endfacet
  facet normal 0.000000e+00 -1.000000e+00 0.000000e+00
    outer loop
      vertex -1.730929e+01 -3.419871e+01 6.000042e-02
      vertex -1.961245e+01 -3.419871e+01 1.060000e+00
      vertex -1.961245e+01 -3.419871e+01 6.000042e-02
    endloop
  endfacet
  facet normal 0.000000e+00 -1.000000e+00 0.000000e+00
    outer loop
      vertex -1.961245e+01 -3.419871e+01 1.060000e+00
      vertex -1.730929e+01 -3.419871e+01 6.000042e-02
      vertex -1.730929e+01 -3.419871e+01 1.060000e+00
    endloop
  endfacet
  facet normal 0.000000e+00 -9.000000e-14 -1.000000e+00
    outer loop
      vertex -1.587750e+01 3.090129e+01 6.000042e-02
      vertex 1.727250e+01 3.090808e+01 6.000042e-02
      vertex 1.587568e+01 3.090129e+01 6.000042e-02
    endloop
  endfacet
  facet normal 0.000000e+00 0.000000e+00 -1.000000e+00
    outer loop
      vertex -1.730929e+01 3.090808e+01 6.000042e-02
      vertex -1.591247e+01 3.090129e+01 6.000042e-02
      vertex -1.730929e+01 3.090129e+01 6.000042e-02
    endloop
  endfacet
  facet normal 0.000000e+00 0.000000e+00 -1.000000e+00
    outer loop
      vertex 1.727250e+01 3.090808e+01 6.000042e-02
      vertex -1.591247e+01 3.090129e+01 6.000042e-02
      vertex -1.730929e+01 3.090808e+01 6.000042e-02
    endloop
  endfacet
  facet normal 0.000000e+00 0.000000e+00 -1.000000e+00
    outer loop
      vertex 1.587568e+01 3.090129e+01 6.000042e-02
      vertex 1.727250e+01 3.090808e+01 6.000042e-02
      vertex 1.727250e+01 3.090129e+01 6.000042e-02
    endloop
  endfacet
  facet normal 0.000000e+00 0.000000e+00 -1.000000e+00
    outer loop
      vertex -1.591247e+01 -3.349870e+01 6.000042e-02
      vertex -1.730929e+01 -3.419871e+01 6.000042e-02
      vertex -1.730929e+01 -3.349870e+01 6.000042e-02
    endloop
  endfacet
  facet normal 0.000000e+00 0.000000e+00 -1.000000e+00
    outer loop
      vertex -1.961245e+01 -3.419871e+01 6.000042e-02
      vertex -1.730929e+01 -3.349870e+01 6.000042e-02
      vertex -1.730929e+01 -3.419871e+01 6.000042e-02
    endloop
  endfacet
  facet normal 0.000000e+00 0.000000e+00 -1.000000e+00
    outer loop
      vertex -1.961245e+01 3.419971e+01 6.000042e-02
      vertex -1.730929e+01 -3.349870e+01 6.000042e-02
      vertex -1.961245e+01 -3.419871e+01 6.000042e-02
    endloop
  endfacet
  facet normal 1.000000e-14 0.000000e+00 -1.000000e+00
    outer loop
      vertex -1.961245e+01 3.419971e+01 6.000042e-02
      vertex -1.730929e+01 3.090129e+01 6.000042e-02
      vertex -1.730929e+01 -3.349870e+01 6.000042e-02
    endloop
  endfacet
  facet normal 1.000000e-14 0.000000e+00 -1.000000e+00
    outer loop
      vertex -1.961245e+01 3.419971e+01 6.000042e-02
      vertex -1.730929e+01 3.090808e+01 6.000042e-02
      vertex -1.730929e+01 3.090129e+01 6.000042e-02
    endloop
  endfacet
  facet normal 1.000000e-14 0.000000e+00 -1.000000e+00
    outer loop
      vertex -1.961245e+01 3.419971e+01 6.000042e-02
      vertex -1.730929e+01 3.231910e+01 6.000042e-02
      vertex -1.730929e+01 3.090808e+01 6.000042e-02
    endloop
  endfacet
  facet normal -0.000000e+00 -1.000000e-14 -1.000000e+00
    outer loop
      vertex 1.961245e+01 3.419971e+01 6.000042e-02
      vertex -1.730929e+01 3.231910e+01 6.000042e-02
      vertex -1.961245e+01 3.419971e+01 6.000042e-02
    endloop
  endfacet
  facet normal 0.000000e+00 -1.000000e-14 -1.000000e+00
    outer loop
      vertex 1.961245e+01 3.419971e+01 6.000042e-02
      vertex 1.727250e+01 3.231910e+01 6.000042e-02
      vertex -1.730929e+01 3.231910e+01 6.000042e-02
    endloop
  endfacet
  facet normal -1.000000e-14 0.000000e+00 -1.000000e+00
    outer loop
      vertex 1.961245e+01 -3.419871e+01 6.000042e-02
      vertex 1.727250e+01 3.231910e+01 6.000042e-02
      vertex 1.961245e+01 3.419971e+01 6.000042e-02
    endloop
  endfacet
  facet normal -1.000000e-14 -0.000000e+00 -1.000000e+00
    outer loop
      vertex 1.961245e+01 -3.419871e+01 6.000042e-02
      vertex 1.727250e+01 3.090808e+01 6.000042e-02
      vertex 1.727250e+01 3.231910e+01 6.000042e-02
    endloop
  endfacet
  facet normal -1.000000e-14 0.000000e+00 -1.000000e+00
    outer loop
      vertex 1.961245e+01 -3.419871e+01 6.000042e-02
      vertex 1.727250e+01 3.090129e+01 6.000042e-02
      vertex 1.727250e+01 3.090808e+01 6.000042e-02
    endloop
  endfacet
  facet normal 0.000000e+00 0.000000e+00 -1.000000e+00
    outer loop
      vertex 1.961245e+01 -3.419871e+01 6.000042e-02
      vertex 1.727250e+01 -3.349870e+01 6.000042e-02
      vertex 1.727250e+01 3.090129e+01 6.000042e-02
    endloop
  endfacet
  facet normal 0.000000e+00 0.000000e+00 -1.000000e+00
    outer loop
      vertex 1.727250e+01 -3.419871e+01 6.000042e-02
      vertex 1.727250e+01 -3.349870e+01 6.000042e-02
      vertex 1.961245e+01 -3.419871e+01 6.000042e-02
    endloop
  endfacet
  facet normal 0.000000e+00 0.000000e+00 -1.000000e+00
    outer loop
      vertex 1.727250e+01 -3.419871e+01 6.000042e-02
      vertex 1.587568e+01 -3.349870e+01 6.000042e-02
      vertex 1.727250e+01 -3.349870e+01 6.000042e-02
    endloop
  endfacet
  facet normal 0.000000e+00 0.000000e+00 -1.000000e+00
    outer loop
      vertex 1.587568e+01 -3.349870e+01 6.000042e-02
      vertex -1.587750e+01 -3.278871e+01 6.000042e-02
      vertex 1.587568e+01 -3.278871e+01 6.000042e-02
    endloop
  endfacet
  facet normal 0.000000e+00 0.000000e+00 -1.000000e+00
    outer loop
      vertex -1.730929e+01 -3.419971e+01 6.000042e-02
      vertex 1.727250e+01 -3.419871e+01 6.000042e-02
      vertex 1.727250e+01 -3.419971e+01 6.000042e-02
    endloop
  endfacet
  facet normal 0.000000e+00 0.000000e+00 -1.000000e+00
    outer loop
      vertex -1.730929e+01 -3.419971e+01 6.000042e-02
      vertex 1.587568e+01 -3.349870e+01 6.000042e-02
      vertex 1.727250e+01 -3.419871e+01 6.000042e-02
    endloop
  endfacet
  facet normal 0.000000e+00 0.000000e+00 -1.000000e+00
    outer loop
      vertex -1.730929e+01 -3.419871e+01 6.000042e-02
      vertex 1.587568e+01 -3.349870e+01 6.000042e-02
      vertex -1.730929e+01 -3.419971e+01 6.000042e-02
    endloop
  endfacet
  facet normal 0.000000e+00 0.000000e+00 -1.000000e+00
    outer loop
      vertex -1.591247e+01 -3.349870e+01 6.000042e-02
      vertex 1.587568e+01 -3.349870e+01 6.000042e-02
      vertex -1.730929e+01 -3.419871e+01 6.000042e-02
    endloop
  endfacet
  facet normal 0.000000e+00 0.000000e+00 -1.000000e+00
    outer loop
      vertex -1.591247e+01 -3.349870e+01 6.000042e-02
      vertex -1.587750e+01 -3.278871e+01 6.000042e-02
      vertex 1.587568e+01 -3.349870e+01 6.000042e-02
    endloop
  endfacet
  facet normal 0.000000e+00 0.000000e+00 -1.000000e+00
    outer loop
      vertex -1.591247e+01 3.090129e+01 6.000042e-02
      vertex -1.587750e+01 -3.278871e+01 6.000042e-02
      vertex -1.591247e+01 -3.349870e+01 6.000042e-02
    endloop
  endfacet
  facet normal -4.100000e-13 0.000000e+00 -1.000000e+00
    outer loop
      vertex -1.591247e+01 3.090129e+01 6.000042e-02
      vertex -1.587750e+01 3.090129e+01 6.000042e-02
      vertex -1.587750e+01 -3.278871e+01 6.000042e-02
    endloop
  endfacet
  facet normal -4.100000e-13 1.985660e-09 -1.000000e+00
    outer loop
      vertex 1.727250e+01 3.090808e+01 6.000042e-02
      vertex -1.587750e+01 3.090129e+01 6.000042e-02
      vertex -1.591247e+01 3.090129e+01 6.000042e-02
    endloop
  endfacet
  facet normal -1.000000e+00 0.000000e+00 0.000000e+00
    outer loop
      vertex -1.961245e+01 3.419971e+01 6.000042e-02
      vertex -1.961245e+01 -3.419871e+01 1.060000e+00
      vertex -1.961245e+01 3.419971e+01 1.060000e+00
    endloop
  endfacet
  facet normal -1.000000e+00 0.000000e+00 0.000000e+00
    outer loop
      vertex -1.961245e+01 -3.419871e+01 1.060000e+00
      vertex -1.961245e+01 3.419971e+01 6.000042e-02
      vertex -1.961245e+01 -3.419871e+01 6.000042e-02
    endloop
  endfacet
  facet normal 0.000000e+00 1.000000e+00 0.000000e+00
    outer loop
      vertex 1.961245e+01 3.419971e+01 6.000042e-02
      vertex -1.961245e+01 3.419971e+01 1.060000e+00
      vertex 1.961245e+01 3.419971e+01 1.060000e+00
    endloop
  endfacet
  facet normal 0.000000e+00 1.000000e+00 0.000000e+00
    outer loop
      vertex -1.961245e+01 3.419971e+01 1.060000e+00
      vertex 1.961245e+01 3.419971e+01 6.000042e-02
      vertex -1.961245e+01 3.419971e+01 6.000042e-02
    endloop
  endfacet
  facet normal 1.000000e+00 0.000000e+00 0.000000e+00
    outer loop
      vertex 1.961245e+01 -3.419871e+01 6.000042e-02
      vertex 1.961245e+01 3.419971e+01 1.060000e+00
      vertex 1.961245e+01 -3.419871e+01 1.060000e+00
    endloop
  endfacet
  facet normal 1.000000e+00 0.000000e+00 0.000000e+00
    outer loop
      vertex 1.961245e+01 3.419971e+01 1.060000e+00
      vertex 1.961245e+01 -3.419871e+01 6.000042e-02
      vertex 1.961245e+01 3.419971e+01 6.000042e-02
    endloop
  endfacet
  facet normal 0.000000e+00 -1.000000e+00 0.000000e+00
    outer loop
      vertex 1.727250e+01 -3.419871e+01 1.060000e+00
      vertex 1.961245e+01 -3.419871e+01 6.000042e-02
      vertex 1.961245e+01 -3.419871e+01 1.060000e+00
    endloop
  endfacet
  facet normal 0.000000e+00 -1.000000e+00 0.000000e+00
    outer loop
      vertex 1.961245e+01 -3.419871e+01 6.000042e-02
      vertex 1.727250e+01 -3.419871e+01 1.060000e+00
      vertex 1.727250e+01 -3.419871e+01 6.000042e-02
    endloop
  endfacet
  facet normal 0.000000e+00 -1.000000e+00 0.000000e+00
    outer loop
      vertex 1.587568e+01 3.090129e+01 6.000042e-02
      vertex -1.587750e+01 3.090129e+01 1.060000e+00
      vertex -1.587750e+01 3.090129e+01 6.000042e-02
    endloop
  endfacet
  facet normal 0.000000e+00 -1.000000e+00 0.000000e+00
    outer loop
      vertex -1.587750e+01 3.090129e+01 1.060000e+00
      vertex 1.587568e+01 3.090129e+01 6.000042e-02
      vertex 1.587568e+01 3.090129e+01 1.060000e+00
    endloop
  endfacet
  facet normal 1.000000e+00 0.000000e+00 0.000000e+00
    outer loop
      vertex -1.587750e+01 -3.278871e+01 1.060000e+00
      vertex -1.587750e+01 3.090129e+01 6.000042e-02
      vertex -1.587750e+01 3.090129e+01 1.060000e+00
    endloop
  endfacet
  facet normal 1.000000e+00 0.000000e+00 0.000000e+00
    outer loop
      vertex -1.587750e+01 3.090129e+01 6.000042e-02
      vertex -1.587750e+01 -3.278871e+01 1.060000e+00
      vertex -1.587750e+01 -3.278871e+01 6.000042e-02
    endloop
  endfacet
endsolid Default
